SplineFontDB: 3.2
FontName: Anton-Regular
FullName: Anton Regular
FamilyName: Anton
Weight: Book
Copyright: Copyright 2020 The Anton Project Authors (https://github.com/googlefonts/AntonFont.git)
Version: 2.116; ttfautohint (v1.8.3)
ItalicAngle: 0
UnderlinePosition: -358
UnderlineWidth: 102
Ascent: 1638
Descent: 410
InvalidEm: 0
sfntRevision: 0x00021db2
LayerCount: 2
Layer: 0 1 "Atr+AOEA-s" 1
Layer: 1 1 "Fore" 0
XUID: [1021 61 -107668329 1953195]
StyleMap: 0x0040
FSType: 0
OS2Version: 4
OS2_WeightWidthSlopeOnly: 0
OS2_UseTypoMetrics: 1
CreationTime: 1608131130
ModificationTime: 1608645676
PfmFamily: 81
TTFWeight: 400
TTFWidth: 5
LineGap: 0
VLineGap: 0
Panose: 0 0 0 0 0 0 0 0 0 0
OS2TypoAscent: 2409
OS2TypoAOffset: 0
OS2TypoDescent: -674
OS2TypoDOffset: 0
OS2TypoLinegap: 0
OS2WinAscent: 2876
OS2WinAOffset: 0
OS2WinDescent: 674
OS2WinDOffset: 0
HheadAscent: 2409
HheadAOffset: 0
HheadDescent: -674
HheadDOffset: 0
OS2SubXSize: 1331
OS2SubYSize: 1229
OS2SubXOff: 0
OS2SubYOff: 154
OS2SupXSize: 1331
OS2SupYSize: 1229
OS2SupXOff: 0
OS2SupYOff: 717
OS2StrikeYSize: 102
OS2StrikeYPos: 900
OS2CapHeight: 1760
OS2XHeight: 1500
OS2Vendor: 'newt'
OS2CodePages: 20000193.00000000
OS2UnicodeRanges: a00000ff.4000207b.00000000.00000000
Lookup: 1 0 0 "'aalt' Activar todas las variantes en Latin b+APoA-squeda 0" { "'aalt' Activar todas las variantes en Latin b+APoA-squeda 0 subtabla"  } ['aalt' ('DFLT' <'dflt' > 'latn' <'AZE ' 'CAT ' 'CRT ' 'KAZ ' 'MOL ' 'NLD ' 'ROM ' 'TAT ' 'TRK ' 'dflt' > ) ]
Lookup: 3 0 0 "'aalt' Activar todas las variantes en Latin b+APoA-squeda 1" { "'aalt' Activar todas las variantes en Latin b+APoA-squeda 1 subtabla"  } ['aalt' ('DFLT' <'dflt' > 'latn' <'AZE ' 'CAT ' 'CRT ' 'KAZ ' 'MOL ' 'NLD ' 'ROM ' 'TAT ' 'TRK ' 'dflt' > ) ]

StartChar: .notdef
Encoding: 65536 -1 0
Width: 1022
GlyphClass: 1
Flags: W
LayerCount: 2
Fore
SplineSet
78 0 m 1,0,-1
 78 1760 l 1,1,-1
 944 1760 l 1,2,-1
 944 0 l 1,3,-1
 78 0 l 1,0,-1
511 1091 m 1,4,-1
 681 1630 l 1,5,-1
 341 1630 l 1,6,-1
 511 1091 l 1,4,-1
218 162 m 1,7,-1
 445 880 l 1,8,-1
 218 1598 l 1,9,-1
 218 162 l 1,7,-1
804 162 m 1,10,-1
 804 1598 l 1,11,-1
 578 880 l 1,12,-1
 804 162 l 1,10,-1
511 669 m 1,13,-1
 341 130 l 1,14,-1
 681 130 l 1,15,-1
 511 669 l 1,13,-1
EndSplineSet
EndChar

StartChar: A
Encoding: 65 65 4
Width: 994
GlyphClass: 2
Flags: W
AnchorPoint: "Anclaje-7" 497 20 basechar 0
AnchorPoint: "Anclaje-5" 496 1760 basechar 0
AnchorPoint: "Anclaje-3" 790 0 basechar 0
LayerCount: 2
Fore
SplineSet
30 0 m 1,0,-1
 200 1760 l 1,1,-1
 797 1760 l 1,2,-1
 964 0 l 1,3,-1
 631 0 l 1,4,-1
 606 284 l 1,5,-1
 394 284 l 1,6,-1
 372 0 l 1,7,-1
 30 0 l 1,0,-1
419 565 m 1,8,-1
 579 565 l 1,9,-1
 502 1460 l 1,10,-1
 486 1460 l 1,11,-1
 419 565 l 1,8,-1
EndSplineSet
Substitution2: "'c2sc' May+APoA-sculas a min+APoA-sculas en Latin b+APoA-squeda 32 subtabla" a.sc
Substitution2: "Single Substitution b+APoA-squeda 24 subtabla" ordfeminine
AlternateSubs2: "'aalt' Activar todas las variantes en Latin b+APoA-squeda 1 subtabla" a.sc ordfeminine
Position2: "'cpsp' Espaciado de may+APoA-sculas en Latin b+APoA-squeda 0 subtabla" dx=5 dy=0 dh=10 dv=0
EndChar

StartChar: AE
Encoding: 198 198 5
Width: 1311
GlyphClass: 2
Flags: W
AnchorPoint: "Anclaje-6" 796 1760 basechar 0
LayerCount: 2
Fore
SplineSet
-44 0 m 1,0,-1
 277 1760 l 1,1,-1
 1249 1760 l 1,2,-1
 1249 1451 l 1,3,-1
 963 1451 l 1,4,-1
 963 1049 l 1,5,-1
 1235 1049 l 1,6,-1
 1235 750 l 1,7,-1
 963 750 l 1,8,-1
 963 311 l 1,9,-1
 1272 311 l 1,10,-1
 1272 0 l 1,11,-1
 623 0 l 1,12,-1
 623 479 l 1,13,-1
 416 479 l 1,14,-1
 337 0 l 1,15,-1
 -44 0 l 1,0,-1
462 769 m 1,16,-1
 618 769 l 1,17,-1
 618 1461 l 1,18,-1
 561 1461 l 1,19,-1
 462 769 l 1,16,-1
EndSplineSet
Substitution2: "'c2sc' May+APoA-sculas a min+APoA-sculas en Latin b+APoA-squeda 32 subtabla" ae.sc
Substitution2: "'aalt' Activar todas las variantes en Latin b+APoA-squeda 0 subtabla" ae.sc
Position2: "'cpsp' Espaciado de may+APoA-sculas en Latin b+APoA-squeda 0 subtabla" dx=5 dy=0 dh=10 dv=0
EndChar

StartChar: uni2C6D
Encoding: 11373 11373 31
Width: 1069
GlyphClass: 1
Flags: W
LayerCount: 2
Fore
SplineSet
363 -16 m 0,0,1
 234 -16 234 -16 170 45.5 c 128,-1,2
 106 107 106 107 85 216 c 128,-1,3
 64 325 64 325 64 467 c 2,4,-1
 64 1294 l 2,5,6
 64 1436 64 1436 85 1544.5 c 128,-1,7
 106 1653 106 1653 170 1714.5 c 128,-1,8
 234 1776 234 1776 363 1776 c 0,9,10
 449 1776 449 1776 500 1733 c 128,-1,11
 551 1690 551 1690 581 1604 c 1,12,-1
 581 1760 l 1,13,-1
 931 1760 l 1,14,-1
 931 439 l 2,15,16
 931 368 931 368 961.5 337 c 128,-1,17
 992 306 992 306 1059 306 c 1,18,-1
 1059 -10 l 1,19,20
 887 -10 887 -10 790 29.5 c 128,-1,21
 693 69 693 69 642 189 c 1,22,23
 609 75 609 75 534 29.5 c 128,-1,24
 459 -16 459 -16 363 -16 c 0,0,1
499 278 m 0,25,26
 546 278 546 278 563.5 322 c 128,-1,27
 581 366 581 366 581 431 c 2,28,-1
 581 1330 l 2,29,30
 581 1395 581 1395 563.5 1438.5 c 128,-1,31
 546 1482 546 1482 499 1482 c 0,32,33
 448 1482 448 1482 431 1441.5 c 128,-1,34
 414 1401 414 1401 414 1330 c 2,35,-1
 414 431 l 2,36,37
 414 360 414 360 431 319 c 128,-1,38
 448 278 448 278 499 278 c 0,25,26
EndSplineSet
Position2: "'cpsp' Espaciado de may+APoA-sculas en Latin b+APoA-squeda 0 subtabla" dx=5 dy=0 dh=10 dv=0
EndChar

StartChar: uni023A
Encoding: 570 570 37
Width: 994
GlyphClass: 2
Flags: W
AnchorPoint: "Anclaje-7" 497 20 basechar 0
AnchorPoint: "Anclaje-5" 496 1760 basechar 0
AnchorPoint: "Anclaje-3" 790 0 basechar 0
LayerCount: 2
Fore
SplineSet
30 0 m 1,0,-1
 200 1760 l 1,1,-1
 607 1760 l 1,2,-1
 669 2000 l 1,3,-1
 809 2000 l 1,4,-1
 747 1760 l 1,5,-1
 797 1760 l 1,6,-1
 964 0 l 1,7,-1
 631 0 l 1,8,-1
 606 284 l 1,9,-1
 394 284 l 1,10,-1
 372 0 l 1,11,-1
 289 0 l 1,12,-1
 241 -186 l 1,13,-1
 101 -186 l 1,14,-1
 149 0 l 1,15,-1
 30 0 l 1,0,-1
419 565 m 1,16,-1
 579 565 l 1,17,-1
 502 1460 l 1,18,-1
 486 1460 l 1,19,-1
 419 565 l 1,16,-1
EndSplineSet
Position2: "'cpsp' Espaciado de may+APoA-sculas en Latin b+APoA-squeda 0 subtabla" dx=5 dy=0 dh=10 dv=0
EndChar

StartChar: B
Encoding: 66 66 39
Width: 980
GlyphClass: 2
Flags: W
AnchorPoint: "Anclaje-7" 451 0 basechar 0
AnchorPoint: "Anclaje-6" 451 1760 basechar 0
LayerCount: 2
Fore
SplineSet
78 0 m 1,0,-1
 78 1760 l 1,1,-1
 555 1760 l 2,2,3
 747 1760 747 1760 834.5 1666.5 c 128,-1,4
 922 1573 922 1573 922 1358 c 2,5,-1
 922 1281 l 2,6,7
 922 1157 922 1157 877.5 1080 c 128,-1,8
 833 1003 833 1003 742 979 c 1,9,10
 861 949 861 949 901.5 838.5 c 128,-1,11
 942 728 942 728 942 569 c 0,12,13
 942 398 942 398 910 270 c 128,-1,14
 878 142 878 142 794 71 c 128,-1,15
 710 0 710 0 555 0 c 2,16,-1
 78 0 l 1,0,-1
422 1097 m 1,17,-1
 494 1097 l 2,18,19
 543 1097 543 1097 557 1135 c 128,-1,20
 571 1173 571 1173 571 1226 c 2,21,-1
 571 1403 l 2,22,23
 571 1488 571 1488 496 1488 c 2,24,-1
 422 1488 l 1,25,-1
 422 1097 l 1,17,-1
457 310 m 0,26,27
 594 310 594 310 594 440 c 2,28,-1
 594 660 l 2,29,30
 594 735 594 735 571.5 778.5 c 128,-1,31
 549 822 549 822 487 822 c 2,32,-1
 422 822 l 1,33,-1
 422 312 l 1,34,35
 444 310 444 310 457 310 c 0,26,27
EndSplineSet
Substitution2: "'c2sc' May+APoA-sculas a min+APoA-sculas en Latin b+APoA-squeda 32 subtabla" b.sc
Substitution2: "'aalt' Activar todas las variantes en Latin b+APoA-squeda 0 subtabla" b.sc
Position2: "'cpsp' Espaciado de may+APoA-sculas en Latin b+APoA-squeda 0 subtabla" dx=5 dy=0 dh=10 dv=0
EndChar

StartChar: uniA7B4
Encoding: 42932 42932 42
Width: 980
GlyphClass: 1
Flags: W
LayerCount: 2
Fore
SplineSet
78 -186 m 1,0,-1
 78 1760 l 1,1,-1
 555 1760 l 2,2,3
 747 1760 747 1760 834.5 1666.5 c 128,-1,4
 922 1573 922 1573 922 1358 c 2,5,-1
 922 1281 l 2,6,7
 922 1157 922 1157 877.5 1080 c 128,-1,8
 833 1003 833 1003 742 979 c 1,9,10
 861 949 861 949 901.5 838.5 c 128,-1,11
 942 728 942 728 942 569 c 0,12,13
 942 398 942 398 910 270 c 128,-1,14
 878 142 878 142 794 71 c 128,-1,15
 710 0 710 0 555 0 c 2,16,-1
 422 0 l 1,17,-1
 422 -186 l 1,18,-1
 78 -186 l 1,0,-1
422 1097 m 1,19,-1
 494 1097 l 2,20,21
 543 1097 543 1097 557 1135 c 128,-1,22
 571 1173 571 1173 571 1226 c 2,23,-1
 571 1403 l 2,24,25
 571 1488 571 1488 496 1488 c 2,26,-1
 422 1488 l 1,27,-1
 422 1097 l 1,19,-1
457 310 m 0,28,29
 594 310 594 310 594 440 c 2,30,-1
 594 660 l 2,31,32
 594 735 594 735 571.5 778.5 c 128,-1,33
 549 822 549 822 487 822 c 2,34,-1
 422 822 l 1,35,-1
 422 312 l 1,36,37
 444 310 444 310 457 310 c 0,28,29
EndSplineSet
Position2: "'cpsp' Espaciado de may+APoA-sculas en Latin b+APoA-squeda 0 subtabla" dx=5 dy=0 dh=10 dv=0
EndChar

StartChar: uni0181
Encoding: 385 385 43
Width: 1328
GlyphClass: 1
Flags: W
LayerCount: 2
Fore
SplineSet
426 0 m 1,0,-1
 426 1488 l 1,1,2
 312 1488 312 1488 312 1336 c 2,3,-1
 312 1252 l 1,4,-1
 5 1252 l 1,5,-1
 5 1312 l 2,6,7
 5 1443 5 1443 51.5 1544 c 128,-1,8
 98 1645 98 1645 191.5 1702.5 c 128,-1,9
 285 1760 285 1760 426 1760 c 2,10,-1
 903 1760 l 2,11,12
 1095 1760 1095 1760 1182.5 1666.5 c 128,-1,13
 1270 1573 1270 1573 1270 1358 c 2,14,-1
 1270 1281 l 2,15,16
 1270 1157 1270 1157 1225.5 1080 c 128,-1,17
 1181 1003 1181 1003 1090 979 c 1,18,19
 1209 949 1209 949 1249.5 838.5 c 128,-1,20
 1290 728 1290 728 1290 569 c 0,21,22
 1290 398 1290 398 1258 270 c 128,-1,23
 1226 142 1226 142 1142 71 c 128,-1,24
 1058 0 1058 0 903 0 c 2,25,-1
 426 0 l 1,0,-1
770 1097 m 1,26,-1
 842 1097 l 2,27,28
 891 1097 891 1097 905 1135 c 128,-1,29
 919 1173 919 1173 919 1226 c 2,30,-1
 919 1403 l 2,31,32
 919 1488 919 1488 844 1488 c 2,33,-1
 770 1488 l 1,34,-1
 770 1097 l 1,26,-1
805 310 m 0,35,36
 942 310 942 310 942 440 c 2,37,-1
 942 660 l 2,38,39
 942 735 942 735 919.5 778.5 c 128,-1,40
 897 822 897 822 835 822 c 2,41,-1
 770 822 l 1,42,-1
 770 312 l 1,43,44
 792 310 792 310 805 310 c 0,35,36
EndSplineSet
Position2: "'cpsp' Espaciado de may+APoA-sculas en Latin b+APoA-squeda 0 subtabla" dx=5 dy=0 dh=10 dv=0
EndChar

StartChar: uni0243
Encoding: 579 579 45
Width: 980
GlyphClass: 2
Flags: W
AnchorPoint: "Anclaje-7" 451 0 basechar 0
AnchorPoint: "Anclaje-6" 451 1760 basechar 0
LayerCount: 2
Fore
SplineSet
78 0 m 1,0,-1
 78 453 l 1,1,-1
 0 453 l 1,2,-1
 0 685 l 1,3,-1
 78 685 l 1,4,-1
 78 1760 l 1,5,-1
 555 1760 l 2,6,7
 747 1760 747 1760 834.5 1666.5 c 128,-1,8
 922 1573 922 1573 922 1358 c 2,9,-1
 922 1281 l 2,10,11
 922 1157 922 1157 877.5 1080 c 128,-1,12
 833 1003 833 1003 742 979 c 1,13,14
 861 949 861 949 901.5 838.5 c 128,-1,15
 942 728 942 728 942 569 c 0,16,17
 942 398 942 398 910 270 c 128,-1,18
 878 142 878 142 794 71 c 128,-1,19
 710 0 710 0 555 0 c 2,20,-1
 78 0 l 1,0,-1
422 1097 m 1,21,-1
 494 1097 l 2,22,23
 543 1097 543 1097 557 1135 c 128,-1,24
 571 1173 571 1173 571 1226 c 2,25,-1
 571 1403 l 2,26,27
 571 1488 571 1488 496 1488 c 2,28,-1
 422 1488 l 1,29,-1
 422 1097 l 1,21,-1
457 310 m 0,30,31
 594 310 594 310 594 440 c 2,32,-1
 594 660 l 2,33,34
 594 735 594 735 571.5 778.5 c 128,-1,35
 549 822 549 822 487 822 c 2,36,-1
 422 822 l 1,37,-1
 422 685 l 1,38,-1
 516 685 l 1,39,-1
 516 453 l 1,40,-1
 422 453 l 1,41,-1
 422 312 l 1,42,43
 444 310 444 310 457 310 c 0,30,31
EndSplineSet
Position2: "'cpsp' Espaciado de may+APoA-sculas en Latin b+APoA-squeda 0 subtabla" dx=5 dy=0 dh=10 dv=0
EndChar

StartChar: C
Encoding: 67 67 46
Width: 971
GlyphClass: 2
Flags: W
AnchorPoint: "Anclaje-6" 496 1760 basechar 0
AnchorPoint: "Anclaje-0" 489 0 basechar 0
LayerCount: 2
Fore
SplineSet
488 -16 m 0,0,1
 297 -16 297 -16 180.5 103 c 128,-1,2
 64 222 64 222 64 436 c 2,3,-1
 64 1248 l 2,4,5
 64 1504 64 1504 165.5 1640 c 128,-1,6
 267 1776 267 1776 496 1776 c 0,7,8
 621 1776 621 1776 718.5 1730 c 128,-1,9
 816 1684 816 1684 872 1592.5 c 128,-1,10
 928 1501 928 1501 928 1362 c 2,11,-1
 928 1058 l 1,12,-1
 578 1058 l 1,13,-1
 578 1318 l 2,14,15
 578 1397 578 1397 558 1424.5 c 128,-1,16
 538 1452 538 1452 496 1452 c 0,17,18
 447 1452 447 1452 430 1416.5 c 128,-1,19
 413 1381 413 1381 413 1322 c 2,20,-1
 413 441 l 2,21,22
 413 368 413 368 434.5 338 c 128,-1,23
 456 308 456 308 496 308 c 0,24,25
 541 308 541 308 559.5 345 c 128,-1,26
 578 382 578 382 578 441 c 2,27,-1
 578 758 l 1,28,-1
 932 758 l 1,29,-1
 932 425 l 2,30,31
 932 193 932 193 815 88.5 c 128,-1,32
 698 -16 698 -16 488 -16 c 0,0,1
EndSplineSet
Substitution2: "'c2sc' May+APoA-sculas a min+APoA-sculas en Latin b+APoA-squeda 32 subtabla" c.sc
Substitution2: "'aalt' Activar todas las variantes en Latin b+APoA-squeda 0 subtabla" c.sc
Position2: "'cpsp' Espaciado de may+APoA-sculas en Latin b+APoA-squeda 0 subtabla" dx=5 dy=0 dh=10 dv=0
EndChar

StartChar: uniA7B3
Encoding: 42931 42931 53
Width: 1013
GlyphClass: 1
Flags: W
LayerCount: 2
Fore
SplineSet
987 -202 m 1,0,1
 777 -202 777 -202 680.5 -121.5 c 128,-1,2
 584 -41 584 -41 559 134 c 2,3,-1
 497 572 l 1,4,-1
 387 -186 l 1,5,-1
 37 -186 l 1,6,-1
 221 844 l 1,7,-1
 143 1342 l 2,8,9
 131 1419 131 1419 113 1453.5 c 128,-1,10
 95 1488 95 1488 27 1488 c 1,11,-1
 27 1774 l 1,12,13
 237 1774 237 1774 334.5 1694 c 128,-1,14
 432 1614 432 1614 455 1438 c 2,15,-1
 501 1091 l 1,16,-1
 579 1760 l 1,17,-1
 917 1760 l 1,18,-1
 769 844 l 1,19,-1
 879 231 l 2,20,21
 893 154 893 154 914 119 c 128,-1,22
 935 84 935 84 987 84 c 1,23,-1
 987 -202 l 1,0,1
EndSplineSet
Position2: "'cpsp' Espaciado de may+APoA-sculas en Latin b+APoA-squeda 0 subtabla" dx=5 dy=0 dh=10 dv=0
EndChar

StartChar: uni0187
Encoding: 391 391 54
Width: 1054
GlyphClass: 2
Flags: W
AnchorPoint: "Anclaje-6" 496 1760 basechar 0
AnchorPoint: "Anclaje-0" 489 0 basechar 0
LayerCount: 2
Fore
SplineSet
488 -16 m 0,0,1
 297 -16 297 -16 180.5 103 c 128,-1,2
 64 222 64 222 64 436 c 2,3,-1
 64 1248 l 2,4,5
 64 1504 64 1504 164.5 1640 c 128,-1,6
 265 1776 265 1776 486 1776 c 0,7,8
 596 1776 596 1776 677 1723 c 1,9,10
 718 1849 718 1849 818.5 1924.5 c 128,-1,11
 919 2000 919 2000 1064 2000 c 1,12,-1
 1064 1684 l 1,13,14
 995 1684 995 1684 961.5 1651.5 c 128,-1,15
 928 1619 928 1619 928 1532 c 2,16,-1
 928 1058 l 1,17,-1
 578 1058 l 1,18,-1
 578 1318 l 2,19,20
 578 1397 578 1397 558 1424.5 c 128,-1,21
 538 1452 538 1452 496 1452 c 0,22,23
 447 1452 447 1452 430 1416.5 c 128,-1,24
 413 1381 413 1381 413 1322 c 2,25,-1
 413 441 l 2,26,27
 413 368 413 368 434.5 338 c 128,-1,28
 456 308 456 308 496 308 c 0,29,30
 541 308 541 308 559.5 345 c 128,-1,31
 578 382 578 382 578 441 c 2,32,-1
 578 758 l 1,33,-1
 932 758 l 1,34,-1
 932 425 l 2,35,36
 932 193 932 193 815 88.5 c 128,-1,37
 698 -16 698 -16 488 -16 c 0,0,1
EndSplineSet
Position2: "'cpsp' Espaciado de may+APoA-sculas en Latin b+APoA-squeda 0 subtabla" dx=5 dy=0 dh=10 dv=0
EndChar

StartChar: uni023B
Encoding: 571 571 55
Width: 971
GlyphClass: 2
Flags: W
AnchorPoint: "Anclaje-6" 496 1760 basechar 0
AnchorPoint: "Anclaje-0" 489 0 basechar 0
LayerCount: 2
Fore
SplineSet
161 -186 m 1,0,-1
 226 63 l 1,1,2
 149 120 149 120 106.5 214.5 c 128,-1,3
 64 309 64 309 64 436 c 2,4,-1
 64 1248 l 2,5,6
 64 1504 64 1504 165.5 1640 c 128,-1,7
 267 1776 267 1776 496 1776 c 0,8,9
 588 1776 588 1776 665 1752 c 1,10,-1
 729 2000 l 1,11,-1
 869 2000 l 1,12,-1
 789 1687 l 1,13,14
 854 1636 854 1636 891 1554.5 c 128,-1,15
 928 1473 928 1473 928 1362 c 2,16,-1
 928 1058 l 1,17,-1
 578 1058 l 1,18,-1
 578 1318 l 2,19,20
 578 1397 578 1397 558 1424.5 c 128,-1,21
 538 1452 538 1452 496 1452 c 0,22,23
 447 1452 447 1452 430 1416.5 c 128,-1,24
 413 1381 413 1381 413 1322 c 2,25,-1
 413 441 l 2,26,27
 413 368 413 368 434.5 338 c 128,-1,28
 456 308 456 308 496 308 c 0,29,30
 541 308 541 308 559.5 345 c 128,-1,31
 578 382 578 382 578 441 c 2,32,-1
 578 758 l 1,33,-1
 932 758 l 1,34,-1
 932 425 l 2,35,36
 932 193 932 193 815 88.5 c 128,-1,37
 698 -16 698 -16 488 -16 c 0,38,39
 414 -16 414 -16 350 2 c 1,40,-1
 301 -186 l 1,41,-1
 161 -186 l 1,0,-1
EndSplineSet
Position2: "'cpsp' Espaciado de may+APoA-sculas en Latin b+APoA-squeda 0 subtabla" dx=5 dy=0 dh=10 dv=0
EndChar

StartChar: D
Encoding: 68 68 56
Width: 1010
GlyphClass: 2
Flags: W
AnchorPoint: "Anclaje-7" 505 0 basechar 0
AnchorPoint: "Anclaje-6" 504 1760 basechar 0
AnchorPoint: "Anclaje-4" 505 880 basechar 0
AnchorPoint: "Anclaje-2" 271 923 basechar 0
LayerCount: 2
Fore
SplineSet
78 0 m 1,0,-1
 78 1760 l 1,1,-1
 562 1760 l 2,2,3
 752 1760 752 1760 848 1654.5 c 128,-1,4
 944 1549 944 1549 944 1346 c 2,5,-1
 944 522 l 2,6,7
 944 272 944 272 856.5 136 c 128,-1,8
 769 0 769 0 550 0 c 2,9,-1
 78 0 l 1,0,-1
432 311 m 1,10,-1
 493 311 l 2,11,12
 590 311 590 311 590 405 c 2,13,-1
 590 1313 l 2,14,15
 590 1401 590 1401 566.5 1426.5 c 128,-1,16
 543 1452 543 1452 471 1452 c 2,17,-1
 432 1452 l 1,18,-1
 432 311 l 1,10,-1
EndSplineSet
Substitution2: "'c2sc' May+APoA-sculas a min+APoA-sculas en Latin b+APoA-squeda 32 subtabla" d.sc
Substitution2: "'aalt' Activar todas las variantes en Latin b+APoA-squeda 0 subtabla" d.sc
Position2: "'cpsp' Espaciado de may+APoA-sculas en Latin b+APoA-squeda 0 subtabla" dx=5 dy=0 dh=10 dv=0
EndChar

StartChar: uni0394
Encoding: 916 916 66
Width: 1103
GlyphClass: 1
Flags: W
LayerCount: 2
Fore
SplineSet
30 0 m 1,0,-1
 299 1760 l 1,1,-1
 796 1760 l 1,2,-1
 1073 0 l 1,3,-1
 30 0 l 1,0,-1
359 225 m 1,4,-1
 668 225 l 1,5,-1
 531 1560 l 1,6,-1
 515 1560 l 1,7,-1
 359 225 l 1,4,-1
EndSplineSet
Position2: "'cpsp' Espaciado de may+APoA-sculas en Latin b+APoA-squeda 0 subtabla" dx=5 dy=0 dh=10 dv=0
EndChar

StartChar: uni018A
Encoding: 394 394 67
Width: 1359
GlyphClass: 1
Flags: W
LayerCount: 2
Fore
SplineSet
427 0 m 1,0,-1
 427 1452 l 1,1,2
 312 1452 312 1452 312 1312 c 2,3,-1
 312 1252 l 1,4,-1
 5 1252 l 1,5,-1
 5 1312 l 2,6,7
 5 1509 5 1509 110 1634.5 c 128,-1,8
 215 1760 215 1760 427 1760 c 2,9,-1
 911 1760 l 2,10,11
 1101 1760 1101 1760 1197 1654.5 c 128,-1,12
 1293 1549 1293 1549 1293 1346 c 2,13,-1
 1293 522 l 2,14,15
 1293 272 1293 272 1205.5 136 c 128,-1,16
 1118 0 1118 0 899 0 c 2,17,-1
 427 0 l 1,0,-1
781 311 m 1,18,-1
 842 311 l 2,19,20
 939 311 939 311 939 405 c 2,21,-1
 939 1313 l 2,22,23
 939 1401 939 1401 915.5 1426.5 c 128,-1,24
 892 1452 892 1452 820 1452 c 2,25,-1
 781 1452 l 1,26,-1
 781 311 l 1,18,-1
EndSplineSet
Position2: "'cpsp' Espaciado de may+APoA-sculas en Latin b+APoA-squeda 0 subtabla" dx=5 dy=0 dh=10 dv=0
EndChar

StartChar: E
Encoding: 69 69 71
Width: 843
GlyphClass: 2
Flags: W
AnchorPoint: "Anclaje-7" 442 0 basechar 0
AnchorPoint: "Anclaje-5" 435 1760 basechar 0
AnchorPoint: "Anclaje-3" 477 0 basechar 0
LayerCount: 2
Fore
SplineSet
78 0 m 1,0,-1
 78 1760 l 1,1,-1
 782 1760 l 1,2,-1
 782 1420 l 1,3,-1
 436 1420 l 1,4,-1
 436 1077 l 1,5,-1
 768 1077 l 1,6,-1
 768 746 l 1,7,-1
 436 746 l 1,8,-1
 436 343 l 1,9,-1
 805 343 l 1,10,-1
 805 0 l 1,11,-1
 78 0 l 1,0,-1
EndSplineSet
Substitution2: "'c2sc' May+APoA-sculas a min+APoA-sculas en Latin b+APoA-squeda 32 subtabla" e.sc
Substitution2: "'aalt' Activar todas las variantes en Latin b+APoA-squeda 0 subtabla" e.sc
Position2: "'cpsp' Espaciado de may+APoA-sculas en Latin b+APoA-squeda 0 subtabla" dx=5 dy=0 dh=10 dv=0
EndChar

StartChar: Eng
Encoding: 330 330 94
Width: 1006
GlyphClass: 1
Flags: W
LayerCount: 2
Fore
SplineSet
447 -488 m 1,0,-1
 447 -186 l 1,1,2
 577 -186 577 -186 577 -31 c 2,3,-1
 577 105 l 1,4,-1
 422 880 l 1,5,-1
 422 0 l 1,6,-1
 78 0 l 1,7,-1
 78 1760 l 1,8,-1
 440 1760 l 1,9,-1
 602 917 l 1,10,-1
 602 1760 l 1,11,-1
 942 1760 l 1,12,-1
 942 -8 l 2,13,14
 942 -246 942 -246 812.5 -367 c 128,-1,15
 683 -488 683 -488 447 -488 c 1,0,-1
EndSplineSet
Substitution2: "'c2sc' May+APoA-sculas a min+APoA-sculas en Latin b+APoA-squeda 32 subtabla" eng.sc
Substitution2: "'aalt' Activar todas las variantes en Latin b+APoA-squeda 0 subtabla" eng.sc
Position2: "'cpsp' Espaciado de may+APoA-sculas en Latin b+APoA-squeda 0 subtabla" dx=5 dy=0 dh=10 dv=0
EndChar

StartChar: uni0190
Encoding: 400 400 96
Width: 1012
GlyphClass: 1
Flags: W
LayerCount: 2
Fore
SplineSet
516 -20 m 0,0,1
 260 -20 260 -20 149.5 123 c 128,-1,2
 39 266 39 266 39 530 c 0,3,4
 39 640 39 640 50 719 c 128,-1,5
 61 798 61 798 97 853.5 c 128,-1,6
 133 909 133 909 208 945 c 1,7,8
 114 979 114 979 78.5 1066 c 128,-1,9
 43 1153 43 1153 43 1295 c 0,10,11
 43 1763 43 1763 493 1763 c 0,12,13
 726 1763 726 1763 838 1650 c 128,-1,14
 950 1537 950 1537 950 1295 c 2,15,-1
 950 1233 l 1,16,-1
 586 1233 l 1,17,-1
 586 1286 l 2,18,19
 586 1349 586 1349 574 1394.5 c 128,-1,20
 562 1440 562 1440 503 1440 c 0,21,22
 405 1440 405 1440 405 1291 c 0,23,24
 405 1191 405 1191 459 1147 c 128,-1,25
 513 1103 513 1103 598 1103 c 2,26,-1
 662 1103 l 1,27,-1
 662 787 l 1,28,-1
 558 787 l 2,29,30
 470 787 470 787 439 720 c 128,-1,31
 408 653 408 653 408 562 c 2,32,-1
 408 530 l 2,33,34
 408 474 408 474 412.5 422.5 c 128,-1,35
 417 371 417 371 438 338.5 c 128,-1,36
 459 306 459 306 506 306 c 0,37,38
 571 306 571 306 585.5 354.5 c 128,-1,39
 600 403 600 403 600 473 c 2,40,-1
 600 658 l 1,41,-1
 961 658 l 1,42,-1
 961 474 l 2,43,44
 961 226 961 226 855 103 c 128,-1,45
 749 -20 749 -20 516 -20 c 0,0,1
EndSplineSet
Position2: "'cpsp' Espaciado de may+APoA-sculas en Latin b+APoA-squeda 0 subtabla" dx=5 dy=0 dh=10 dv=0
EndChar

StartChar: uni018E
Encoding: 398 398 97
Width: 843
GlyphClass: 1
Flags: W
LayerCount: 2
Fore
SplineSet
765 0 m 1,0,-1
 38 0 l 1,1,-1
 38 343 l 1,2,-1
 407 343 l 1,3,-1
 407 746 l 1,4,-1
 75 746 l 1,5,-1
 75 1077 l 1,6,-1
 407 1077 l 1,7,-1
 407 1420 l 1,8,-1
 61 1420 l 1,9,-1
 61 1760 l 1,10,-1
 765 1760 l 1,11,-1
 765 0 l 1,0,-1
EndSplineSet
Position2: "'cpsp' Espaciado de may+APoA-sculas en Latin b+APoA-squeda 0 subtabla" dx=5 dy=0 dh=10 dv=0
EndChar

StartChar: uni01A9
Encoding: 425 425 98
Width: 836
GlyphClass: 1
Flags: W
LayerCount: 2
Fore
SplineSet
62 0 m 1,0,-1
 62 268 l 1,1,-1
 369 882 l 1,2,-1
 62 1455 l 1,3,-1
 62 1760 l 1,4,-1
 779 1760 l 1,5,-1
 779 1420 l 1,6,-1
 438 1420 l 1,7,-1
 702 926 l 1,8,-1
 702 850 l 1,9,-1
 449 343 l 1,10,-1
 795 343 l 1,11,-1
 795 0 l 1,12,-1
 62 0 l 1,0,-1
EndSplineSet
Position2: "'cpsp' Espaciado de may+APoA-sculas en Latin b+APoA-squeda 0 subtabla" dx=5 dy=0 dh=10 dv=0
EndChar

StartChar: uni0246
Encoding: 582 582 99
Width: 843
GlyphClass: 2
Flags: W
AnchorPoint: "Anclaje-7" 442 0 basechar 0
AnchorPoint: "Anclaje-5" 435 1760 basechar 0
AnchorPoint: "Anclaje-3" 477 0 basechar 0
LayerCount: 2
Fore
SplineSet
78 0 m 1,0,-1
 78 1760 l 1,1,-1
 607 1760 l 1,2,-1
 669 2000 l 1,3,-1
 809 2000 l 1,4,-1
 747 1760 l 1,5,-1
 782 1760 l 1,6,-1
 782 1420 l 1,7,-1
 436 1420 l 1,8,-1
 436 1077 l 1,9,-1
 768 1077 l 1,10,-1
 768 746 l 1,11,-1
 436 746 l 1,12,-1
 436 343 l 1,13,-1
 805 343 l 1,14,-1
 805 0 l 1,15,-1
 289 0 l 1,16,-1
 241 -186 l 1,17,-1
 101 -186 l 1,18,-1
 149 0 l 1,19,-1
 78 0 l 1,0,-1
EndSplineSet
Position2: "'cpsp' Espaciado de may+APoA-sculas en Latin b+APoA-squeda 0 subtabla" dx=5 dy=0 dh=10 dv=0
EndChar

StartChar: Eth
Encoding: 208 208 100
Width: 1010
GlyphClass: 1
Flags: W
LayerCount: 2
Fore
SplineSet
78 0 m 1,0,-1
 78 804 l 1,1,-1
 3 804 l 1,2,-1
 3 1036 l 1,3,-1
 78 1036 l 1,4,-1
 78 1760 l 1,5,-1
 562 1760 l 2,6,7
 752 1760 752 1760 848 1654.5 c 128,-1,8
 944 1549 944 1549 944 1346 c 2,9,-1
 944 522 l 2,10,11
 944 272 944 272 856.5 136 c 128,-1,12
 769 0 769 0 550 0 c 2,13,-1
 78 0 l 1,0,-1
432 311 m 1,14,-1
 493 311 l 2,15,16
 590 311 590 311 590 405 c 2,17,-1
 590 1313 l 2,18,19
 590 1401 590 1401 566.5 1426.5 c 128,-1,20
 543 1452 543 1452 471 1452 c 2,21,-1
 432 1452 l 1,22,-1
 432 1036 l 1,23,-1
 519 1036 l 1,24,-1
 519 804 l 1,25,-1
 432 804 l 1,26,-1
 432 311 l 1,14,-1
EndSplineSet
Substitution2: "'c2sc' May+APoA-sculas a min+APoA-sculas en Latin b+APoA-squeda 32 subtabla" eth.sc
Substitution2: "'aalt' Activar todas las variantes en Latin b+APoA-squeda 0 subtabla" eth.sc
Position2: "'cpsp' Espaciado de may+APoA-sculas en Latin b+APoA-squeda 0 subtabla" dx=5 dy=0 dh=10 dv=0
EndChar

StartChar: uni01B7
Encoding: 439 439 103
Width: 1012
GlyphClass: 2
Flags: W
AnchorPoint: "Anclaje-7" 506 0 basechar 0
AnchorPoint: "Anclaje-6" 526 1760 basechar 0
LayerCount: 2
Fore
SplineSet
486 -14 m 0,0,1
 255 -14 255 -14 149 107.5 c 128,-1,2
 43 229 43 229 43 479 c 2,3,-1
 43 658 l 1,4,-1
 402 658 l 1,5,-1
 402 479 l 2,6,7
 402 399 402 399 422.5 354.5 c 128,-1,8
 443 310 443 310 504 310 c 0,9,10
 548 310 548 310 566.5 341 c 128,-1,11
 585 372 585 372 588.5 423.5 c 128,-1,12
 592 475 592 475 592 536 c 2,13,-1
 592 579 l 2,14,15
 592 803 592 803 445 803 c 2,16,-1
 329 803 l 1,17,-1
 329 1058 l 1,18,-1
 566 1420 l 1,19,-1
 88 1420 l 1,20,-1
 88 1760 l 1,21,-1
 959 1760 l 1,22,-1
 959 1450 l 1,23,-1
 697 1050 l 1,24,25
 836 998 836 998 898.5 867 c 128,-1,26
 961 736 961 736 961 536 c 0,27,28
 961 265 961 265 848 125.5 c 128,-1,29
 735 -14 735 -14 486 -14 c 0,0,1
EndSplineSet
Position2: "'cpsp' Espaciado de may+APoA-sculas en Latin b+APoA-squeda 0 subtabla" dx=5 dy=0 dh=10 dv=0
EndChar

StartChar: uni01B8
Encoding: 440 440 105
Width: 1012
GlyphClass: 1
Flags: W
LayerCount: 2
Fore
SplineSet
526 -14 m 0,0,1
 277 -14 277 -14 164 125.5 c 128,-1,2
 51 265 51 265 51 536 c 0,3,4
 51 736 51 736 113.5 867 c 128,-1,5
 176 998 176 998 315 1050 c 1,6,-1
 53 1450 l 1,7,-1
 53 1760 l 1,8,-1
 924 1760 l 1,9,-1
 924 1420 l 1,10,-1
 446 1420 l 1,11,-1
 683 1058 l 1,12,-1
 683 803 l 1,13,-1
 567 803 l 2,14,15
 420 803 420 803 420 579 c 2,16,-1
 420 536 l 2,17,18
 420 475 420 475 423.5 423.5 c 128,-1,19
 427 372 427 372 445.5 341 c 128,-1,20
 464 310 464 310 508 310 c 0,21,22
 570 310 570 310 590 354.5 c 128,-1,23
 610 399 610 399 610 479 c 2,24,-1
 610 658 l 1,25,-1
 969 658 l 1,26,-1
 969 479 l 2,27,28
 969 229 969 229 863 107.5 c 128,-1,29
 757 -14 757 -14 526 -14 c 0,0,1
EndSplineSet
Position2: "'cpsp' Espaciado de may+APoA-sculas en Latin b+APoA-squeda 0 subtabla" dx=5 dy=0 dh=10 dv=0
EndChar

StartChar: F
Encoding: 70 70 106
Width: 817
GlyphClass: 2
Flags: W
AnchorPoint: "Anclaje-6" 452 1760 basechar 0
LayerCount: 2
Fore
SplineSet
78 0 m 1,0,-1
 78 1760 l 1,1,-1
 782 1760 l 1,2,-1
 782 1417 l 1,3,-1
 432 1417 l 1,4,-1
 432 1137 l 1,5,-1
 764 1137 l 1,6,-1
 764 798 l 1,7,-1
 432 798 l 1,8,-1
 432 0 l 1,9,-1
 78 0 l 1,0,-1
EndSplineSet
Substitution2: "'c2sc' May+APoA-sculas a min+APoA-sculas en Latin b+APoA-squeda 32 subtabla" f.sc
Substitution2: "'aalt' Activar todas las variantes en Latin b+APoA-squeda 0 subtabla" f.sc
Position2: "'cpsp' Espaciado de may+APoA-sculas en Latin b+APoA-squeda 0 subtabla" dx=5 dy=0 dh=10 dv=0
EndChar

StartChar: uni0191
Encoding: 401 401 108
Width: 817
GlyphClass: 2
Flags: W
AnchorPoint: "Anclaje-6" 452 1760 basechar 0
LayerCount: 2
Fore
SplineSet
-22 -196 m 1,0,-1
 -22 120 l 1,1,2
 31 120 31 120 54.5 151 c 128,-1,3
 78 182 78 182 78 252 c 2,4,-1
 78 1760 l 1,5,-1
 782 1760 l 1,6,-1
 782 1417 l 1,7,-1
 432 1417 l 1,8,-1
 432 1137 l 1,9,-1
 764 1137 l 1,10,-1
 764 798 l 1,11,-1
 432 798 l 1,12,-1
 432 252 l 2,13,14
 432 121 432 121 376 20 c 128,-1,15
 320 -81 320 -81 218 -138.5 c 128,-1,16
 116 -196 116 -196 -22 -196 c 1,0,-1
EndSplineSet
Position2: "'cpsp' Espaciado de may+APoA-sculas en Latin b+APoA-squeda 0 subtabla" dx=5 dy=0 dh=10 dv=0
EndChar

StartChar: G
Encoding: 71 71 109
Width: 993
GlyphClass: 2
Flags: W
AnchorPoint: "Anclaje-6" 495 1760 basechar 0
AnchorPoint: "Anclaje-0" 504 0 basechar 0
LayerCount: 2
Fore
SplineSet
441 -16 m 0,0,1
 64 -16 64 -16 64 524 c 2,2,-1
 64 1283 l 2,3,4
 64 1776 64 1776 496 1776 c 0,5,6
 674 1776 674 1776 769 1704.5 c 128,-1,7
 864 1633 864 1633 900 1496 c 128,-1,8
 936 1359 936 1359 936 1162 c 1,9,-1
 592 1162 l 1,10,-1
 592 1318 l 2,11,12
 592 1375 592 1375 576.5 1413.5 c 128,-1,13
 561 1452 561 1452 512 1452 c 0,14,15
 451 1452 451 1452 431.5 1411 c 128,-1,16
 412 1370 412 1370 412 1321 c 2,17,-1
 412 468 l 2,18,19
 412 397 412 397 430.5 352.5 c 128,-1,20
 449 308 449 308 503 308 c 0,21,22
 559 308 559 308 577.5 352.5 c 128,-1,23
 596 397 596 397 596 470 c 2,24,-1
 596 721 l 1,25,-1
 502 721 l 1,26,-1
 502 1025 l 1,27,-1
 932 1025 l 1,28,-1
 932 0 l 1,29,-1
 791 0 l 1,30,-1
 731 148 l 1,31,32
 639 -16 639 -16 441 -16 c 0,0,1
EndSplineSet
Substitution2: "'c2sc' May+APoA-sculas a min+APoA-sculas en Latin b+APoA-squeda 32 subtabla" g.sc
Substitution2: "'aalt' Activar todas las variantes en Latin b+APoA-squeda 0 subtabla" g.sc
Position2: "'cpsp' Espaciado de may+APoA-sculas en Latin b+APoA-squeda 0 subtabla" dx=5 dy=0 dh=10 dv=0
EndChar

StartChar: uni0194
Encoding: 404 404 111
Width: 961
GlyphClass: 1
Flags: W
LayerCount: 2
Fore
SplineSet
480 -196 m 256,0,1
 358 -196 358 -196 273 -146 c 128,-1,2
 188 -96 188 -96 143.5 -8.5 c 128,-1,3
 99 79 99 79 99 189 c 0,4,5
 99 285 99 285 129 401 c 128,-1,6
 159 517 159 517 201 638 c 2,7,-1
 273 846 l 1,8,-1
 23 1761 l 1,9,-1
 361 1761 l 1,10,-1
 480 1182 l 1,11,-1
 599 1761 l 1,12,-1
 937 1761 l 1,13,-1
 689 855 l 1,14,-1
 770 638 l 2,15,16
 815 518 815 518 838 401.5 c 128,-1,17
 861 285 861 285 861 189 c 0,18,19
 861 79 861 79 816.5 -8.5 c 128,-1,20
 772 -96 772 -96 687 -146 c 128,-1,21
 602 -196 602 -196 480 -196 c 256,0,1
480 102 m 256,22,23
 517 102 517 102 535.5 128.5 c 128,-1,24
 554 155 554 155 554 193 c 0,25,26
 554 263 554 263 536 331 c 128,-1,27
 518 399 518 399 480 506 c 1,28,29
 442 399 442 399 424 331 c 128,-1,30
 406 263 406 263 406 193 c 0,31,32
 406 155 406 155 424.5 128.5 c 128,-1,33
 443 102 443 102 480 102 c 256,22,23
EndSplineSet
Position2: "'cpsp' Espaciado de may+APoA-sculas en Latin b+APoA-squeda 0 subtabla" dx=5 dy=0 dh=10 dv=0
EndChar

StartChar: uni1E9E
Encoding: 7838 7838 117
Width: 1019
GlyphClass: 1
Flags: W
LayerCount: 2
Fore
SplineSet
58 0 m 1,0,-1
 58 1403 l 2,1,2
 58 1591 58 1591 170.5 1684 c 128,-1,3
 283 1777 283 1777 491 1777 c 0,4,5
 640 1777 640 1777 750.5 1738 c 128,-1,6
 861 1699 861 1699 934 1647 c 1,7,-1
 934 1404 l 1,8,-1
 805 1032 l 1,9,10
 903 988 903 988 936 867 c 128,-1,11
 969 746 969 746 969 538 c 0,12,13
 969 356 969 356 935 236.5 c 128,-1,14
 901 117 901 117 816.5 58.5 c 128,-1,15
 732 0 732 0 582 0 c 2,16,-1
 478 0 l 1,17,-1
 478 281 l 1,18,19
 621 281 621 281 621 399 c 2,20,-1
 621 676 l 2,21,22
 621 757 621 757 588.5 790 c 128,-1,23
 556 823 556 823 474 823 c 1,24,-1
 474 1043 l 1,25,-1
 617 1451 l 1,26,27
 568 1470 568 1470 514 1470 c 0,28,29
 408 1470 408 1470 408 1358 c 2,30,-1
 408 0 l 1,31,-1
 58 0 l 1,0,-1
EndSplineSet
Substitution2: "'c2sc' May+APoA-sculas a min+APoA-sculas en Latin b+APoA-squeda 32 subtabla" germandbls.sc
Substitution2: "'aalt' Activar todas las variantes en Latin b+APoA-squeda 0 subtabla" germandbls.sc
Position2: "'cpsp' Espaciado de may+APoA-sculas en Latin b+APoA-squeda 0 subtabla" dx=5 dy=0 dh=10 dv=0
EndChar

StartChar: uni0193
Encoding: 403 403 118
Width: 1054
GlyphClass: 2
Flags: W
AnchorPoint: "Anclaje-6" 495 1760 basechar 0
AnchorPoint: "Anclaje-0" 504 0 basechar 0
LayerCount: 2
Fore
SplineSet
441 -16 m 0,0,1
 64 -16 64 -16 64 524 c 2,2,-1
 64 1283 l 2,3,4
 64 1527 64 1527 167 1651.5 c 128,-1,5
 270 1776 270 1776 456 1776 c 0,6,7
 590 1776 590 1776 676 1717 c 1,8,9
 716 1846 716 1846 816.5 1923 c 128,-1,10
 917 2000 917 2000 1064 2000 c 1,11,-1
 1064 1684 l 1,12,13
 995 1684 995 1684 961.5 1651.5 c 128,-1,14
 928 1619 928 1619 928 1532 c 2,15,-1
 928 1162 l 1,16,-1
 592 1162 l 1,17,-1
 592 1318 l 2,18,19
 592 1375 592 1375 576.5 1413.5 c 128,-1,20
 561 1452 561 1452 512 1452 c 0,21,22
 451 1452 451 1452 431.5 1411 c 128,-1,23
 412 1370 412 1370 412 1321 c 2,24,-1
 412 468 l 2,25,26
 412 397 412 397 430.5 352.5 c 128,-1,27
 449 308 449 308 503 308 c 0,28,29
 559 308 559 308 577.5 352.5 c 128,-1,30
 596 397 596 397 596 470 c 2,31,-1
 596 721 l 1,32,-1
 502 721 l 1,33,-1
 502 1025 l 1,34,-1
 932 1025 l 1,35,-1
 932 0 l 1,36,-1
 791 0 l 1,37,-1
 731 148 l 1,38,39
 639 -16 639 -16 441 -16 c 0,0,1
EndSplineSet
Position2: "'cpsp' Espaciado de may+APoA-sculas en Latin b+APoA-squeda 0 subtabla" dx=5 dy=0 dh=10 dv=0
EndChar

StartChar: uni0241
Encoding: 577 577 119
Width: 1008
GlyphClass: 1
Flags: W
LayerCount: 2
Fore
SplineSet
287 0 m 1,0,-1
 287 871 l 1,1,2
 371 871 371 871 430.5 884 c 128,-1,3
 490 897 490 897 527.5 939 c 128,-1,4
 565 981 565 981 583 1066 c 128,-1,5
 601 1151 601 1151 601 1294 c 0,6,7
 601 1359 601 1359 584.5 1408 c 128,-1,8
 568 1457 568 1457 508 1457 c 0,9,10
 465 1457 465 1457 445 1429.5 c 128,-1,11
 425 1402 425 1402 419.5 1359.5 c 128,-1,12
 414 1317 414 1317 414 1271 c 2,13,-1
 414 1125 l 1,14,-1
 48 1125 l 1,15,-1
 48 1379 l 2,16,17
 48 1581 48 1581 176.5 1678.5 c 128,-1,18
 305 1776 305 1776 508 1776 c 0,19,20
 686 1776 686 1776 788.5 1712 c 128,-1,21
 891 1648 891 1648 934.5 1525.5 c 128,-1,22
 978 1403 978 1403 978 1226 c 0,23,24
 978 1053 978 1053 936.5 917 c 128,-1,25
 895 781 895 781 815 703 c 128,-1,26
 735 625 735 625 620 625 c 1,27,-1
 620 0 l 1,28,-1
 287 0 l 1,0,-1
EndSplineSet
Position2: "'cpsp' Espaciado de may+APoA-sculas en Latin b+APoA-squeda 0 subtabla" dx=5 dy=0 dh=10 dv=0
EndChar

StartChar: uni01E4
Encoding: 484 484 121
Width: 993
GlyphClass: 2
Flags: W
AnchorPoint: "Anclaje-6" 495 1760 basechar 0
AnchorPoint: "Anclaje-0" 504 0 basechar 0
LayerCount: 2
Fore
SplineSet
441 -16 m 0,0,1
 64 -16 64 -16 64 524 c 2,2,-1
 64 1283 l 2,3,4
 64 1776 64 1776 496 1776 c 0,5,6
 674 1776 674 1776 769 1704.5 c 128,-1,7
 864 1633 864 1633 900 1496 c 128,-1,8
 936 1359 936 1359 936 1162 c 1,9,-1
 592 1162 l 1,10,-1
 592 1318 l 2,11,12
 592 1375 592 1375 576.5 1413.5 c 128,-1,13
 561 1452 561 1452 512 1452 c 0,14,15
 451 1452 451 1452 431.5 1411 c 128,-1,16
 412 1370 412 1370 412 1321 c 2,17,-1
 412 468 l 2,18,19
 412 397 412 397 430.5 352.5 c 128,-1,20
 449 308 449 308 503 308 c 0,21,22
 549 308 549 308 569 339 c 128,-1,23
 589 370 589 370 594 423 c 1,24,-1
 499 423 l 1,25,-1
 499 655 l 1,26,-1
 596 655 l 1,27,-1
 596 721 l 1,28,-1
 502 721 l 1,29,-1
 502 1025 l 1,30,-1
 932 1025 l 1,31,-1
 932 655 l 1,32,-1
 1015 655 l 1,33,-1
 1015 423 l 1,34,-1
 932 423 l 1,35,-1
 932 0 l 1,36,-1
 791 0 l 1,37,-1
 731 148 l 1,38,39
 639 -16 639 -16 441 -16 c 0,0,1
EndSplineSet
Position2: "'cpsp' Espaciado de may+APoA-sculas en Latin b+APoA-squeda 0 subtabla" dx=5 dy=0 dh=10 dv=0
EndChar

StartChar: H
Encoding: 72 72 122
Width: 1022
GlyphClass: 2
Flags: W
AnchorPoint: "Anclaje-7" 511 0 basechar 0
AnchorPoint: "Anclaje-6" 511 1760 basechar 0
AnchorPoint: "Anclaje-4" 511 880 basechar 0
LayerCount: 2
Fore
SplineSet
78 0 m 1,0,-1
 78 1760 l 1,1,-1
 428 1760 l 1,2,-1
 428 1131 l 1,3,-1
 594 1131 l 1,4,-1
 594 1760 l 1,5,-1
 944 1760 l 1,6,-1
 944 0 l 1,7,-1
 594 0 l 1,8,-1
 594 798 l 1,9,-1
 428 798 l 1,10,-1
 428 0 l 1,11,-1
 78 0 l 1,0,-1
EndSplineSet
Substitution2: "'c2sc' May+APoA-sculas a min+APoA-sculas en Latin b+APoA-squeda 32 subtabla" h.sc
Substitution2: "'aalt' Activar todas las variantes en Latin b+APoA-squeda 0 subtabla" h.sc
Position2: "'cpsp' Espaciado de may+APoA-sculas en Latin b+APoA-squeda 0 subtabla" dx=5 dy=0 dh=10 dv=0
EndChar

StartChar: Hbar
Encoding: 294 294 123
Width: 1041
GlyphClass: 1
Flags: W
LayerCount: 2
Fore
SplineSet
96 0 m 1,0,-1
 96 1342 l 1,1,-1
 -10 1342 l 1,2,-1
 -10 1562 l 1,3,-1
 96 1562 l 1,4,-1
 96 1760 l 1,5,-1
 446 1760 l 1,6,-1
 446 1562 l 1,7,-1
 612 1562 l 1,8,-1
 612 1760 l 1,9,-1
 962 1760 l 1,10,-1
 962 1562 l 1,11,-1
 1051 1562 l 1,12,-1
 1051 1342 l 1,13,-1
 962 1342 l 1,14,-1
 962 0 l 1,15,-1
 612 0 l 1,16,-1
 612 798 l 1,17,-1
 446 798 l 1,18,-1
 446 0 l 1,19,-1
 96 0 l 1,0,-1
446 1131 m 1,20,-1
 612 1131 l 1,21,-1
 612 1342 l 1,22,-1
 446 1342 l 1,23,-1
 446 1131 l 1,20,-1
EndSplineSet
Substitution2: "'c2sc' May+APoA-sculas a min+APoA-sculas en Latin b+APoA-squeda 32 subtabla" hbar.sc
Substitution2: "'aalt' Activar todas las variantes en Latin b+APoA-squeda 0 subtabla" hbar.sc
Position2: "'cpsp' Espaciado de may+APoA-sculas en Latin b+APoA-squeda 0 subtabla" dx=5 dy=0 dh=10 dv=0
EndChar

StartChar: uniA726
Encoding: 42790 42790 131
Width: 1022
GlyphClass: 1
Flags: W
LayerCount: 2
Fore
SplineSet
514 -196 m 1,0,-1
 514 120 l 1,1,2
 552 120 552 120 573 143.5 c 128,-1,3
 594 167 594 167 594 252 c 2,4,-1
 594 798 l 1,5,-1
 428 798 l 1,6,-1
 428 0 l 1,7,-1
 78 0 l 1,8,-1
 78 1760 l 1,9,-1
 428 1760 l 1,10,-1
 428 1131 l 1,11,-1
 594 1131 l 1,12,-1
 594 1760 l 1,13,-1
 944 1760 l 1,14,-1
 944 232 l 2,15,16
 944 21 944 21 824.5 -87.5 c 128,-1,17
 705 -196 705 -196 514 -196 c 1,0,-1
EndSplineSet
Position2: "'cpsp' Espaciado de may+APoA-sculas en Latin b+APoA-squeda 0 subtabla" dx=5 dy=0 dh=10 dv=0
EndChar

StartChar: uniA7AA
Encoding: 42922 42922 132
Width: 1371
GlyphClass: 1
Flags: W
LayerCount: 2
Fore
SplineSet
427 0 m 1,0,-1
 427 1464 l 1,1,2
 368 1464 368 1464 340 1428 c 128,-1,3
 312 1392 312 1392 312 1312 c 2,4,-1
 312 1252 l 1,5,-1
 5 1252 l 1,6,-1
 5 1312 l 2,7,8
 5 1509 5 1509 110 1634.5 c 128,-1,9
 215 1760 215 1760 427 1760 c 2,10,-1
 777 1760 l 1,11,-1
 777 1131 l 1,12,-1
 943 1131 l 1,13,-1
 943 1760 l 1,14,-1
 1293 1760 l 1,15,-1
 1293 0 l 1,16,-1
 943 0 l 1,17,-1
 943 798 l 1,18,-1
 777 798 l 1,19,-1
 777 0 l 1,20,-1
 427 0 l 1,0,-1
EndSplineSet
Position2: "'cpsp' Espaciado de may+APoA-sculas en Latin b+APoA-squeda 0 subtabla" dx=5 dy=0 dh=10 dv=0
EndChar

StartChar: uniA78D
Encoding: 42893 42893 133
Width: 1022
GlyphClass: 1
Flags: W
LayerCount: 2
Fore
SplineSet
594 0 m 1,0,-1
 594 798 l 1,1,-1
 78 798 l 1,2,-1
 78 1760 l 1,3,-1
 428 1760 l 1,4,-1
 428 1131 l 1,5,-1
 594 1131 l 1,6,-1
 594 1760 l 1,7,-1
 944 1760 l 1,8,-1
 944 0 l 1,9,-1
 594 0 l 1,0,-1
EndSplineSet
Position2: "'cpsp' Espaciado de may+APoA-sculas en Latin b+APoA-squeda 0 subtabla" dx=5 dy=0 dh=10 dv=0
EndChar

StartChar: I
Encoding: 73 73 134
Width: 464
GlyphClass: 2
Flags: W
AnchorPoint: "Anclaje-7" 232 0 basechar 0
AnchorPoint: "Anclaje-5" 232 1760 basechar 0
AnchorPoint: "Anclaje-3" 290 0 basechar 0
LayerCount: 2
Fore
SplineSet
62 0 m 1,0,-1
 62 1760 l 1,1,-1
 402 1760 l 1,2,-1
 402 0 l 1,3,-1
 62 0 l 1,0,-1
EndSplineSet
Substitution2: "'c2sc' May+APoA-sculas a min+APoA-sculas en Latin b+APoA-squeda 32 subtabla" i.sc
Substitution2: "'aalt' Activar todas las variantes en Latin b+APoA-squeda 0 subtabla" i.sc
Position2: "'cpsp' Espaciado de may+APoA-sculas en Latin b+APoA-squeda 0 subtabla" dx=5 dy=0 dh=10 dv=0
EndChar

StartChar: uni0196
Encoding: 406 406 151
Width: 464
GlyphClass: 2
Flags: W
AnchorPoint: "Anclaje-7" 232 0 basechar 0
AnchorPoint: "Anclaje-5" 232 1760 basechar 0
AnchorPoint: "Anclaje-3" 290 0 basechar 0
LayerCount: 2
Fore
SplineSet
482 -16 m 1,0,1
 298 -16 298 -16 180 92.5 c 128,-1,2
 62 201 62 201 62 412 c 2,3,-1
 62 1760 l 1,4,-1
 402 1760 l 1,5,-1
 402 432 l 2,6,7
 402 347 402 347 423.5 323.5 c 128,-1,8
 445 300 445 300 482 300 c 1,9,-1
 482 -16 l 1,0,1
EndSplineSet
Position2: "'cpsp' Espaciado de may+APoA-sculas en Latin b+APoA-squeda 0 subtabla" dx=5 dy=0 dh=10 dv=0
EndChar

StartChar: uni026A
Encoding: 618 618 152
Width: 616
GlyphClass: 1
Flags: W
LayerCount: 2
Fore
SplineSet
33 0 m 1,0,-1
 33 273 l 1,1,-1
 134 273 l 1,2,-1
 134 1227 l 1,3,-1
 33 1227 l 1,4,-1
 33 1500 l 1,5,-1
 583 1500 l 1,6,-1
 583 1227 l 1,7,-1
 482 1227 l 1,8,-1
 482 273 l 1,9,-1
 583 273 l 1,10,-1
 583 0 l 1,11,-1
 33 0 l 1,0,-1
EndSplineSet
EndChar

StartChar: uni0197
Encoding: 407 407 153
Width: 526
GlyphClass: 2
Flags: W
AnchorPoint: "Anclaje-7" 263 0 basechar 0
AnchorPoint: "Anclaje-5" 263 1760 basechar 0
AnchorPoint: "Anclaje-3" 321 0 basechar 0
LayerCount: 2
Fore
SplineSet
93 0 m 1,0,-1
 93 785 l 1,1,-1
 5 785 l 1,2,-1
 5 1017 l 1,3,-1
 93 1017 l 1,4,-1
 93 1760 l 1,5,-1
 433 1760 l 1,6,-1
 433 1017 l 1,7,-1
 521 1017 l 1,8,-1
 521 785 l 1,9,-1
 433 785 l 1,10,-1
 433 0 l 1,11,-1
 93 0 l 1,0,-1
EndSplineSet
Position2: "'cpsp' Espaciado de may+APoA-sculas en Latin b+APoA-squeda 0 subtabla" dx=5 dy=0 dh=10 dv=0
EndChar

StartChar: J
Encoding: 74 74 156
Width: 955
GlyphClass: 2
Flags: W
AnchorPoint: "Anclaje-6" 721 1760 basechar 0
LayerCount: 2
Fore
SplineSet
468 -16 m 0,0,1
 349 -16 349 -16 251 30 c 128,-1,2
 153 76 153 76 95.5 166.5 c 128,-1,3
 38 257 38 257 38 389 c 2,4,-1
 38 830 l 1,5,-1
 386 830 l 1,6,-1
 386 410 l 2,7,8
 386 364 386 364 404.5 336 c 128,-1,9
 423 308 423 308 464 308 c 0,10,11
 543 308 543 308 543 405 c 2,12,-1
 543 1760 l 1,13,-1
 898 1760 l 1,14,-1
 898 440 l 2,15,16
 898 300 898 300 843 197.5 c 128,-1,17
 788 95 788 95 691 39.5 c 128,-1,18
 594 -16 594 -16 468 -16 c 0,0,1
EndSplineSet
Substitution2: "'c2sc' May+APoA-sculas a min+APoA-sculas en Latin b+APoA-squeda 32 subtabla" j.sc
Substitution2: "'aalt' Activar todas las variantes en Latin b+APoA-squeda 0 subtabla" j.sc
Position2: "'cpsp' Espaciado de may+APoA-sculas en Latin b+APoA-squeda 0 subtabla" dx=5 dy=0 dh=10 dv=0
EndChar

StartChar: uniA7B2
Encoding: 42930 42930 158
Width: 975
GlyphClass: 1
Flags: W
LayerCount: 2
Fore
SplineSet
468 -16 m 0,0,1
 349 -16 349 -16 251 30 c 128,-1,2
 153 76 153 76 95.5 166.5 c 128,-1,3
 38 257 38 257 38 389 c 2,4,-1
 38 564 l 2,5,6
 38 798 38 798 162 943 c 128,-1,7
 286 1088 286 1088 543 1106 c 1,8,-1
 543 1760 l 1,9,-1
 898 1760 l 1,10,-1
 898 1057 l 1,11,12
 918 1050 918 1050 940 1042.5 c 128,-1,13
 962 1035 962 1035 985 1026 c 1,14,-1
 985 721 l 1,15,16
 962 730 962 730 940 737.5 c 128,-1,17
 918 745 918 745 898 752 c 1,18,-1
 898 440 l 2,19,20
 898 300 898 300 843 197.5 c 128,-1,21
 788 95 788 95 691 39.5 c 128,-1,22
 594 -16 594 -16 468 -16 c 0,0,1
464 308 m 0,23,24
 543 308 543 308 543 405 c 2,25,-1
 543 798 l 1,26,27
 458 785 458 785 422 729 c 128,-1,28
 386 673 386 673 386 564 c 2,29,-1
 386 410 l 2,30,31
 386 364 386 364 404.5 336 c 128,-1,32
 423 308 423 308 464 308 c 0,23,24
EndSplineSet
Position2: "'cpsp' Espaciado de may+APoA-sculas en Latin b+APoA-squeda 0 subtabla" dx=5 dy=0 dh=10 dv=0
EndChar

StartChar: uni0248
Encoding: 584 584 159
Width: 975
GlyphClass: 2
Flags: W
AnchorPoint: "Anclaje-6" 721 1760 basechar 0
LayerCount: 2
Fore
SplineSet
468 -16 m 0,0,1
 349 -16 349 -16 251 30 c 128,-1,2
 153 76 153 76 95.5 166.5 c 128,-1,3
 38 257 38 257 38 389 c 2,4,-1
 38 830 l 1,5,-1
 386 830 l 1,6,-1
 386 410 l 2,7,8
 386 364 386 364 404.5 336 c 128,-1,9
 423 308 423 308 464 308 c 0,10,11
 543 308 543 308 543 405 c 2,12,-1
 543 1055 l 1,13,-1
 390 1055 l 1,14,-1
 390 1287 l 1,15,-1
 543 1287 l 1,16,-1
 543 1760 l 1,17,-1
 898 1760 l 1,18,-1
 898 1287 l 1,19,-1
 984 1287 l 1,20,-1
 984 1055 l 1,21,-1
 898 1055 l 1,22,-1
 898 440 l 2,23,24
 898 300 898 300 843 197.5 c 128,-1,25
 788 95 788 95 691 39.5 c 128,-1,26
 594 -16 594 -16 468 -16 c 0,0,1
EndSplineSet
Position2: "'cpsp' Espaciado de may+APoA-sculas en Latin b+APoA-squeda 0 subtabla" dx=5 dy=0 dh=10 dv=0
EndChar

StartChar: K
Encoding: 75 75 160
Width: 967
GlyphClass: 2
Flags: W
AnchorPoint: "Anclaje-7" 523 0 basechar 0
AnchorPoint: "Anclaje-6" 511 1760 basechar 0
LayerCount: 2
Fore
SplineSet
78 0 m 1,0,-1
 78 1760 l 1,1,-1
 426 1760 l 1,2,-1
 426 1055 l 1,3,-1
 590 1760 l 1,4,-1
 944 1760 l 1,5,-1
 747 954 l 1,6,-1
 985 0 l 1,7,-1
 620 0 l 1,8,-1
 428 852 l 1,9,-1
 428 0 l 1,10,-1
 78 0 l 1,0,-1
EndSplineSet
Substitution2: "'c2sc' May+APoA-sculas a min+APoA-sculas en Latin b+APoA-squeda 32 subtabla" k.sc
Substitution2: "'aalt' Activar todas las variantes en Latin b+APoA-squeda 0 subtabla" k.sc
Position2: "'cpsp' Espaciado de may+APoA-sculas en Latin b+APoA-squeda 0 subtabla" dx=5 dy=0 dh=10 dv=0
EndChar

StartChar: uniA740
Encoding: 42816 42816 167
Width: 982
GlyphClass: 2
Flags: W
AnchorPoint: "Anclaje-7" 538 0 basechar 0
AnchorPoint: "Anclaje-6" 526 1760 basechar 0
LayerCount: 2
Fore
SplineSet
93 0 m 1,0,-1
 93 1479 l 1,1,-1
 0 1479 l 1,2,-1
 0 1711 l 1,3,-1
 93 1711 l 1,4,-1
 93 1760 l 1,5,-1
 441 1760 l 1,6,-1
 441 1711 l 1,7,-1
 516 1711 l 1,8,-1
 516 1479 l 1,9,-1
 441 1479 l 1,10,-1
 441 1055 l 1,11,-1
 605 1760 l 1,12,-1
 959 1760 l 1,13,-1
 762 954 l 1,14,-1
 1000 0 l 1,15,-1
 635 0 l 1,16,-1
 443 852 l 1,17,-1
 443 0 l 1,18,-1
 93 0 l 1,0,-1
EndSplineSet
Position2: "'cpsp' Espaciado de may+APoA-sculas en Latin b+APoA-squeda 0 subtabla" dx=5 dy=0 dh=10 dv=0
EndChar

StartChar: L
Encoding: 76 76 168
Width: 814
GlyphClass: 2
Flags: W
AnchorPoint: "Anclaje-7" 433 0 basechar 0
AnchorPoint: "Anclaje-6" 254 1760 basechar 0
AnchorPoint: "Anclaje-2" 716 931 basechar 0
LayerCount: 2
Fore
SplineSet
78 0 m 1,0,-1
 78 1760 l 1,1,-1
 430 1760 l 1,2,-1
 430 300 l 1,3,-1
 792 300 l 1,4,-1
 792 0 l 1,5,-1
 78 0 l 1,0,-1
EndSplineSet
Substitution2: "'c2sc' May+APoA-sculas a min+APoA-sculas en Latin b+APoA-squeda 32 subtabla" l.sc
Substitution2: "'aalt' Activar todas las variantes en Latin b+APoA-squeda 0 subtabla" l.sc
Position2: "'cpsp' Espaciado de may+APoA-sculas en Latin b+APoA-squeda 0 subtabla" dx=5 dy=0 dh=10 dv=0
EndChar

StartChar: uniA7AD
Encoding: 42925 42925 172
Width: 1004
GlyphClass: 1
Flags: W
LayerCount: 2
Fore
SplineSet
268 0 m 1,0,-1
 268 725 l 1,1,2
 149 734 149 734 69.5 805.5 c 128,-1,3
 -10 877 -10 877 -10 994 c 0,4,5
 -10 1127 -10 1127 63 1201.5 c 128,-1,6
 136 1276 136 1276 268 1284 c 1,7,-1
 268 1761 l 1,8,-1
 620 1761 l 1,9,-1
 620 955 l 1,10,-1
 760 955 l 1,11,-1
 760 724 l 1,12,-1
 620 724 l 1,13,-1
 620 300 l 1,14,-1
 982 300 l 1,15,-1
 982 0 l 1,16,-1
 268 0 l 1,0,-1
184 1015 m 0,17,18
 184 955 184 955 268 955 c 1,19,-1
 268 1074 l 1,20,21
 184 1072 184 1072 184 1015 c 0,17,18
EndSplineSet
Position2: "'cpsp' Espaciado de may+APoA-sculas en Latin b+APoA-squeda 0 subtabla" dx=5 dy=0 dh=10 dv=0
EndChar

StartChar: Lslash
Encoding: 321 321 183
Width: 853
GlyphClass: 2
Flags: W
AnchorPoint: "Anclaje-7" 433 0 basechar 0
AnchorPoint: "Anclaje-6" 254 1760 basechar 0
AnchorPoint: "Anclaje-2" 716 931 basechar 0
LayerCount: 2
Fore
SplineSet
78 0 m 1,0,-1
 78 718 l 1,1,-1
 -11 679 l 1,2,-1
 -11 1001 l 1,3,-1
 78 1040 l 1,4,-1
 78 1760 l 1,5,-1
 430 1760 l 1,6,-1
 430 1193 l 1,7,-1
 636 1283 l 1,8,-1
 636 961 l 1,9,-1
 430 871 l 1,10,-1
 430 300 l 1,11,-1
 792 300 l 1,12,-1
 792 0 l 1,13,-1
 78 0 l 1,0,-1
EndSplineSet
Substitution2: "'c2sc' May+APoA-sculas a min+APoA-sculas en Latin b+APoA-squeda 32 subtabla" lslash.sc
Substitution2: "'aalt' Activar todas las variantes en Latin b+APoA-squeda 0 subtabla" lslash.sc
Position2: "'cpsp' Espaciado de may+APoA-sculas en Latin b+APoA-squeda 0 subtabla" dx=5 dy=0 dh=10 dv=0
EndChar

StartChar: M
Encoding: 77 77 184
Width: 1528
GlyphClass: 2
Flags: W
AnchorPoint: "Anclaje-7" 764 0 basechar 0
AnchorPoint: "Anclaje-6" 762 1760 basechar 0
LayerCount: 2
Fore
SplineSet
78 0 m 1,0,-1
 78 1760 l 1,1,-1
 614 1760 l 1,2,-1
 762 687 l 1,3,-1
 909 1760 l 1,4,-1
 1450 1760 l 1,5,-1
 1450 0 l 1,6,-1
 1128 0 l 1,7,-1
 1128 1268 l 1,8,-1
 926 0 l 1,9,-1
 610 0 l 1,10,-1
 396 1268 l 1,11,-1
 396 0 l 1,12,-1
 78 0 l 1,0,-1
EndSplineSet
Substitution2: "'c2sc' May+APoA-sculas a min+APoA-sculas en Latin b+APoA-squeda 32 subtabla" m.sc
Substitution2: "'aalt' Activar todas las variantes en Latin b+APoA-squeda 0 subtabla" m.sc
Position2: "'cpsp' Espaciado de may+APoA-sculas en Latin b+APoA-squeda 0 subtabla" dx=5 dy=0 dh=10 dv=0
EndChar

StartChar: uni019C
Encoding: 412 412 188
Width: 1551
GlyphClass: 1
Flags: W
LayerCount: 2
Fore
SplineSet
369 -16 m 0,0,1
 209 -16 209 -16 143.5 93.5 c 128,-1,2
 78 203 78 203 78 410 c 2,3,-1
 78 1760 l 1,4,-1
 423 1760 l 1,5,-1
 423 404 l 2,6,7
 423 256 423 256 509 256 c 0,8,9
 557 256 557 256 579.5 307.5 c 128,-1,10
 602 359 602 359 602 429 c 2,11,-1
 602 1760 l 1,12,-1
 947 1760 l 1,13,-1
 947 404 l 2,14,15
 947 340 947 340 966 300 c 128,-1,16
 985 260 985 260 1031 260 c 0,17,18
 1084 260 1084 260 1106 316 c 128,-1,19
 1128 372 1128 372 1128 448 c 2,20,-1
 1128 1760 l 1,21,-1
 1473 1760 l 1,22,-1
 1473 0 l 1,23,-1
 1130 0 l 1,24,-1
 1130 177 l 1,25,26
 1105 79 1105 79 1048 31.5 c 128,-1,27
 991 -16 991 -16 870 -16 c 0,28,29
 782 -16 782 -16 715.5 25 c 128,-1,30
 649 66 649 66 623 136 c 1,31,32
 578 57 578 57 522 20.5 c 128,-1,33
 466 -16 466 -16 369 -16 c 0,0,1
EndSplineSet
Position2: "'cpsp' Espaciado de may+APoA-sculas en Latin b+APoA-squeda 0 subtabla" dx=5 dy=0 dh=10 dv=0
EndChar

StartChar: N
Encoding: 78 78 189
Width: 1020
GlyphClass: 2
Flags: W
AnchorPoint: "Anclaje-7" 503 0 basechar 0
AnchorPoint: "Anclaje-6" 531 1760 basechar 0
LayerCount: 2
Fore
SplineSet
78 0 m 1,0,-1
 78 1760 l 1,1,-1
 440 1760 l 1,2,-1
 602 917 l 1,3,-1
 602 1760 l 1,4,-1
 942 1760 l 1,5,-1
 942 0 l 1,6,-1
 598 0 l 1,7,-1
 422 880 l 1,8,-1
 422 0 l 1,9,-1
 78 0 l 1,0,-1
EndSplineSet
Substitution2: "'c2sc' May+APoA-sculas a min+APoA-sculas en Latin b+APoA-squeda 32 subtabla" n.sc
Substitution2: "'aalt' Activar todas las variantes en Latin b+APoA-squeda 0 subtabla" n.sc
Position2: "'cpsp' Espaciado de may+APoA-sculas en Latin b+APoA-squeda 0 subtabla" dx=5 dy=0 dh=10 dv=0
EndChar

StartChar: uni019D
Encoding: 413 413 198
Width: 1020
GlyphClass: 1
Flags: W
LayerCount: 2
Fore
SplineSet
-52 -488 m 1,0,-1
 -52 -186 l 1,1,2
 78 -186 78 -186 78 -31 c 2,3,-1
 78 1760 l 1,4,-1
 440 1760 l 1,5,-1
 602 917 l 1,6,-1
 602 1760 l 1,7,-1
 942 1760 l 1,8,-1
 942 0 l 1,9,-1
 598 0 l 1,10,-1
 422 880 l 1,11,-1
 422 -8 l 2,12,13
 422 -246 422 -246 295 -367 c 128,-1,14
 168 -488 168 -488 -52 -488 c 1,0,-1
EndSplineSet
Position2: "'cpsp' Espaciado de may+APoA-sculas en Latin b+APoA-squeda 0 subtabla" dx=5 dy=0 dh=10 dv=0
EndChar

StartChar: uni0220
Encoding: 544 544 201
Width: 1020
GlyphClass: 1
Flags: W
LayerCount: 2
Fore
SplineSet
602 -186 m 1,0,-1
 602 1328 l 2,1,2
 602 1392 602 1392 582.5 1428.5 c 128,-1,3
 563 1465 563 1465 518 1465 c 0,4,5
 455 1465 455 1465 436.5 1422 c 128,-1,6
 418 1379 418 1379 418 1296 c 2,7,-1
 418 0 l 1,8,-1
 78 0 l 1,9,-1
 78 1760 l 1,10,-1
 416 1760 l 1,11,-1
 416 1574 l 1,12,13
 439 1664 439 1664 499.5 1720 c 128,-1,14
 560 1776 560 1776 651 1776 c 0,15,16
 800 1776 800 1776 871 1685 c 128,-1,17
 942 1594 942 1594 942 1425 c 2,18,-1
 942 -186 l 1,19,-1
 602 -186 l 1,0,-1
EndSplineSet
Position2: "'cpsp' Espaciado de may+APoA-sculas en Latin b+APoA-squeda 0 subtabla" dx=5 dy=0 dh=10 dv=0
EndChar

StartChar: O
Encoding: 79 79 203
Width: 996
GlyphClass: 2
Flags: W
AnchorPoint: "Anclaje-7" 498 0 basechar 0
AnchorPoint: "Anclaje-5" 498 1760 basechar 0
AnchorPoint: "Anclaje-3" 677 80 basechar 0
LayerCount: 2
Fore
SplineSet
498 -16 m 256,0,1
 287 -16 287 -16 175.5 111.5 c 128,-1,2
 64 239 64 239 64 480 c 2,3,-1
 64 1316 l 2,4,5
 64 1542 64 1542 174.5 1659 c 128,-1,6
 285 1776 285 1776 498 1776 c 256,7,8
 711 1776 711 1776 821.5 1659 c 128,-1,9
 932 1542 932 1542 932 1316 c 2,10,-1
 932 480 l 2,11,12
 932 239 932 239 820.5 111.5 c 128,-1,13
 709 -16 709 -16 498 -16 c 256,0,1
501 308 m 0,14,15
 581 308 581 308 581 463 c 2,16,-1
 581 1322 l 2,17,18
 581 1452 581 1452 503 1452 c 0,19,20
 415 1452 415 1452 415 1319 c 2,21,-1
 415 461 l 2,22,23
 415 379 415 379 435 343.5 c 128,-1,24
 455 308 455 308 501 308 c 0,14,15
EndSplineSet
Substitution2: "'c2sc' May+APoA-sculas a min+APoA-sculas en Latin b+APoA-squeda 32 subtabla" o.sc
Substitution2: "Single Substitution b+APoA-squeda 24 subtabla" ordmasculine
AlternateSubs2: "'aalt' Activar todas las variantes en Latin b+APoA-squeda 1 subtabla" o.sc ordmasculine
Position2: "'cpsp' Espaciado de may+APoA-sculas en Latin b+APoA-squeda 0 subtabla" dx=5 dy=0 dh=10 dv=0
EndChar

StartChar: OE
Encoding: 338 338 204
Width: 1330
GlyphClass: 1
Flags: W
LayerCount: 2
Fore
SplineSet
606 0 m 2,0,1
 50 0 50 0 50 430 c 2,2,-1
 50 1356 l 2,3,4
 50 1511 50 1511 119.5 1599 c 128,-1,5
 189 1687 189 1687 312.5 1723.5 c 128,-1,6
 436 1760 436 1760 598 1760 c 2,7,-1
 1268 1760 l 1,8,-1
 1268 1451 l 1,9,-1
 931 1451 l 1,10,-1
 931 1083 l 1,11,-1
 1254 1083 l 1,12,-1
 1254 784 l 1,13,-1
 931 784 l 1,14,-1
 931 311 l 1,15,-1
 1291 311 l 1,16,-1
 1291 0 l 1,17,-1
 606 0 l 2,0,1
513 311 m 2,18,-1
 574 311 l 1,19,-1
 574 1451 l 1,20,-1
 519 1451 l 2,21,22
 460 1451 460 1451 429 1414.5 c 128,-1,23
 398 1378 398 1378 398 1314 c 2,24,-1
 398 480 l 2,25,26
 398 410 398 410 425 360.5 c 128,-1,27
 452 311 452 311 513 311 c 2,18,-1
EndSplineSet
Substitution2: "'c2sc' May+APoA-sculas a min+APoA-sculas en Latin b+APoA-squeda 32 subtabla" oe.sc
Substitution2: "'aalt' Activar todas las variantes en Latin b+APoA-squeda 0 subtabla" oe.sc
Position2: "'cpsp' Espaciado de may+APoA-sculas en Latin b+APoA-squeda 0 subtabla" dx=5 dy=0 dh=10 dv=0
EndChar

StartChar: uni0222
Encoding: 546 546 205
Width: 996
GlyphClass: 1
Flags: W
LayerCount: 2
Fore
SplineSet
498 -16 m 256,0,1
 284 -16 284 -16 174 114 c 128,-1,2
 64 244 64 244 64 479 c 2,3,-1
 64 683 l 2,4,5
 64 782 64 782 87.5 857 c 128,-1,6
 111 932 111 932 154 986 c 1,7,8
 70 1101 70 1101 70 1303 c 2,9,-1
 70 1760 l 1,10,-1
 412 1760 l 1,11,-1
 412 1297 l 2,12,13
 412 1213 412 1213 428 1167 c 128,-1,14
 444 1121 444 1121 498 1121 c 256,15,16
 552 1121 552 1121 568 1166.5 c 128,-1,17
 584 1212 584 1212 584 1297 c 2,18,-1
 584 1760 l 1,19,-1
 926 1760 l 1,20,-1
 926 1303 l 2,21,22
 926 1101 926 1101 842 986 c 1,23,24
 885 932 885 932 908.5 857 c 128,-1,25
 932 782 932 782 932 683 c 2,26,-1
 932 479 l 2,27,28
 932 241 932 241 822 112.5 c 128,-1,29
 712 -16 712 -16 498 -16 c 256,0,1
498 308 m 0,30,31
 545 308 545 308 561.5 349 c 128,-1,32
 578 390 578 390 578 463 c 2,33,-1
 578 710 l 2,34,35
 578 766 578 766 563 802.5 c 128,-1,36
 548 839 548 839 500 839 c 0,37,38
 412 839 412 839 412 706 c 2,39,-1
 412 461 l 2,40,41
 412 386 412 386 430.5 347 c 128,-1,42
 449 308 449 308 498 308 c 0,30,31
EndSplineSet
Position2: "'cpsp' Espaciado de may+APoA-sculas en Latin b+APoA-squeda 0 subtabla" dx=5 dy=0 dh=10 dv=0
EndChar

StartChar: uni2126
Encoding: 8486 8486 223
Width: 992
GlyphClass: 1
Flags: W
LayerCount: 2
Fore
SplineSet
47 0 m 1,0,-1
 47 246 l 1,1,-1
 169 246 l 1,2,3
 72 394 72 394 72 710 c 2,4,-1
 72 1189 l 2,5,6
 72 1394 72 1394 180 1500.5 c 128,-1,7
 288 1607 288 1607 496 1607 c 0,8,9
 705 1607 705 1607 812.5 1500.5 c 128,-1,10
 920 1394 920 1394 920 1189 c 2,11,-1
 920 710 l 2,12,13
 920 394 920 394 823 246 c 1,14,-1
 945 246 l 1,15,-1
 945 0 l 1,16,-1
 529 0 l 1,17,-1
 529 247 l 1,18,19
 552 266 552 266 563 289 c 128,-1,20
 574 312 574 312 577.5 354 c 128,-1,21
 581 396 581 396 581 471 c 2,22,-1
 581 1211 l 2,23,24
 581 1264 581 1264 564.5 1299.5 c 128,-1,25
 548 1335 548 1335 496 1335 c 256,26,27
 444 1335 444 1335 427.5 1299.5 c 128,-1,28
 411 1264 411 1264 411 1211 c 2,29,-1
 411 471 l 2,30,31
 411 359 411 359 424.5 316 c 128,-1,32
 438 273 438 273 463 247 c 1,33,-1
 463 0 l 1,34,-1
 47 0 l 1,0,-1
EndSplineSet
EndChar

StartChar: Ohorn
Encoding: 416 416 225
Width: 999
GlyphClass: 2
Flags: W
AnchorPoint: "Anclaje-7" 498 0 basechar 0
AnchorPoint: "Anclaje-5" 500 1895 basechar 0
AnchorPoint: "Anclaje-3" 677 80 basechar 0
LayerCount: 2
Fore
SplineSet
498 -16 m 256,0,1
 282 -16 282 -16 173 114.5 c 128,-1,2
 64 245 64 245 64 480 c 2,3,-1
 64 1316 l 2,4,5
 64 1543 64 1543 176 1659.5 c 128,-1,6
 288 1776 288 1776 500 1776 c 2,7,-1
 576 1776 l 2,8,9
 691 1776 691 1776 691 1901 c 2,10,-1
 691 1924 l 1,11,-1
 969 1924 l 1,12,-1
 969 1909 l 2,13,14
 969 1804 969 1804 936.5 1734.5 c 128,-1,15
 904 1665 904 1665 849 1626 c 1,16,17
 932 1511 932 1511 932 1316 c 2,18,-1
 932 480 l 2,19,20
 932 245 932 245 823 114.5 c 128,-1,21
 714 -16 714 -16 498 -16 c 256,0,1
498 308 m 0,22,23
 548 308 548 308 563 353.5 c 128,-1,24
 578 399 578 399 578 463 c 2,25,-1
 578 1322 l 2,26,27
 578 1369 578 1369 565 1410.5 c 128,-1,28
 552 1452 552 1452 500 1452 c 0,29,30
 449 1452 449 1452 430.5 1413.5 c 128,-1,31
 412 1375 412 1375 412 1319 c 2,32,-1
 412 461 l 2,33,34
 412 392 412 392 428 350 c 128,-1,35
 444 308 444 308 498 308 c 0,22,23
EndSplineSet
Substitution2: "'c2sc' May+APoA-sculas a min+APoA-sculas en Latin b+APoA-squeda 32 subtabla" ohorn.sc
Substitution2: "'aalt' Activar todas las variantes en Latin b+APoA-squeda 0 subtabla" ohorn.sc
Position2: "'cpsp' Espaciado de may+APoA-sculas en Latin b+APoA-squeda 0 subtabla" dx=5 dy=0 dh=10 dv=0
EndChar

StartChar: uni03A9
Encoding: 937 937 236
Width: 992
GlyphClass: 1
Flags: W
LayerCount: 2
Fore
SplineSet
47 0 m 1,0,-1
 47 246 l 1,1,-1
 169 246 l 1,2,3
 72 394 72 394 72 710 c 2,4,-1
 72 1352 l 2,5,6
 72 1557 72 1557 180 1663.5 c 128,-1,7
 288 1770 288 1770 496 1770 c 0,8,9
 705 1770 705 1770 812.5 1663.5 c 128,-1,10
 920 1557 920 1557 920 1352 c 2,11,-1
 920 710 l 2,12,13
 920 394 920 394 823 246 c 1,14,-1
 945 246 l 1,15,-1
 945 0 l 1,16,-1
 529 0 l 1,17,-1
 529 247 l 1,18,19
 562 273 562 273 571.5 346 c 128,-1,20
 581 419 581 419 581 531 c 2,21,-1
 581 1374 l 2,22,23
 581 1427 581 1427 564.5 1462.5 c 128,-1,24
 548 1498 548 1498 496 1498 c 256,25,26
 444 1498 444 1498 427.5 1462.5 c 128,-1,27
 411 1427 411 1427 411 1374 c 2,28,-1
 411 531 l 2,29,30
 411 419 411 419 420.5 346 c 128,-1,31
 430 273 430 273 463 247 c 1,32,-1
 463 0 l 1,33,-1
 47 0 l 1,0,-1
EndSplineSet
Position2: "'cpsp' Espaciado de may+APoA-sculas en Latin b+APoA-squeda 0 subtabla" dx=5 dy=0 dh=10 dv=0
EndChar

StartChar: uniA7B6
Encoding: 42934 42934 237
Width: 1517
GlyphClass: 1
Flags: W
LayerCount: 2
Fore
SplineSet
452 -16 m 0,0,1
 253 -16 253 -16 158.5 110.5 c 128,-1,2
 64 237 64 237 64 474 c 2,3,-1
 64 1317 l 2,4,5
 64 1451 64 1451 111.5 1554.5 c 128,-1,6
 159 1658 159 1658 255.5 1717 c 128,-1,7
 352 1776 352 1776 497 1776 c 1,8,-1
 497 1473 l 1,9,10
 454 1473 454 1473 433.5 1451 c 128,-1,11
 413 1429 413 1429 413 1378 c 2,12,-1
 413 462 l 2,13,14
 413 386 413 386 431.5 347 c 128,-1,15
 450 308 450 308 499 308 c 0,16,17
 547 308 547 308 564 348.5 c 128,-1,18
 581 389 581 389 581 462 c 2,19,-1
 581 1179 l 1,20,-1
 936 1179 l 1,21,-1
 936 462 l 2,22,23
 936 386 936 386 953.5 347 c 128,-1,24
 971 308 971 308 1020 308 c 0,25,26
 1066 308 1066 308 1085 348.5 c 128,-1,27
 1104 389 1104 389 1104 462 c 2,28,-1
 1104 1378 l 2,29,30
 1104 1429 1104 1429 1083.5 1451 c 128,-1,31
 1063 1473 1063 1473 1020 1473 c 1,32,-1
 1020 1776 l 1,33,34
 1166 1776 1166 1776 1262 1717 c 128,-1,35
 1358 1658 1358 1658 1405.5 1554.5 c 128,-1,36
 1453 1451 1453 1451 1453 1317 c 2,37,-1
 1453 474 l 2,38,39
 1453 234 1453 234 1358.5 109 c 128,-1,40
 1264 -16 1264 -16 1067 -16 c 0,41,42
 976 -16 976 -16 896 19 c 128,-1,43
 816 54 816 54 760 146 c 1,44,45
 703 54 703 54 624.5 19 c 128,-1,46
 546 -16 546 -16 452 -16 c 0,0,1
EndSplineSet
Position2: "'cpsp' Espaciado de may+APoA-sculas en Latin b+APoA-squeda 0 subtabla" dx=5 dy=0 dh=10 dv=0
EndChar

StartChar: uni0186
Encoding: 390 390 240
Width: 971
GlyphClass: 1
Flags: W
LayerCount: 2
Fore
SplineSet
483 -16 m 0,0,1
 273 -16 273 -16 156 88.5 c 128,-1,2
 39 193 39 193 39 425 c 2,3,-1
 39 758 l 1,4,-1
 393 758 l 1,5,-1
 393 441 l 2,6,7
 393 382 393 382 411.5 345 c 128,-1,8
 430 308 430 308 475 308 c 0,9,10
 516 308 516 308 537 338 c 128,-1,11
 558 368 558 368 558 441 c 2,12,-1
 558 1322 l 2,13,14
 558 1381 558 1381 541 1416.5 c 128,-1,15
 524 1452 524 1452 475 1452 c 0,16,17
 433 1452 433 1452 413 1424.5 c 128,-1,18
 393 1397 393 1397 393 1318 c 2,19,-1
 393 1058 l 1,20,-1
 43 1058 l 1,21,-1
 43 1362 l 2,22,23
 43 1501 43 1501 99 1592.5 c 128,-1,24
 155 1684 155 1684 252.5 1730 c 128,-1,25
 350 1776 350 1776 475 1776 c 0,26,27
 704 1776 704 1776 805.5 1640 c 128,-1,28
 907 1504 907 1504 907 1248 c 2,29,-1
 907 436 l 2,30,31
 907 222 907 222 790.5 103 c 128,-1,32
 674 -16 674 -16 483 -16 c 0,0,1
EndSplineSet
Position2: "'cpsp' Espaciado de may+APoA-sculas en Latin b+APoA-squeda 0 subtabla" dx=5 dy=0 dh=10 dv=0
EndChar

StartChar: Oslash
Encoding: 216 216 241
Width: 996
GlyphClass: 2
Flags: W
AnchorPoint: "Anclaje-7" 498 0 basechar 0
AnchorPoint: "Anclaje-6" 494 1897 basechar 0
AnchorPoint: "Anclaje-5" 498 1760 basechar 0
AnchorPoint: "Anclaje-3" 677 80 basechar 0
LayerCount: 2
Fore
SplineSet
111 -186 m 1,0,-1
 185 101 l 1,1,2
 64 229 64 229 64 480 c 2,3,-1
 64 1316 l 2,4,5
 64 1543 64 1543 175.5 1659.5 c 128,-1,6
 287 1776 287 1776 498 1776 c 0,7,8
 585 1776 585 1776 656 1756 c 1,9,-1
 719 2000 l 1,10,-1
 859 2000 l 1,11,-1
 781 1695 l 1,12,13
 932 1581 932 1581 932 1316 c 2,14,-1
 932 480 l 2,15,16
 932 245 932 245 823 114.5 c 128,-1,17
 714 -16 714 -16 498 -16 c 0,18,19
 388 -16 388 -16 304 19 c 1,20,-1
 251 -186 l 1,21,-1
 111 -186 l 1,0,-1
501 308 m 0,22,23
 551 308 551 308 566 353.5 c 128,-1,24
 581 399 581 399 581 463 c 2,25,-1
 581 1322 l 2,26,27
 581 1369 581 1369 568 1410.5 c 128,-1,28
 555 1452 555 1452 503 1452 c 0,29,30
 452 1452 452 1452 433.5 1413.5 c 128,-1,31
 415 1375 415 1375 415 1319 c 2,32,-1
 415 461 l 2,33,34
 415 392 415 392 431 350 c 128,-1,35
 447 308 447 308 501 308 c 0,22,23
EndSplineSet
Substitution2: "'c2sc' May+APoA-sculas a min+APoA-sculas en Latin b+APoA-squeda 32 subtabla" oslash.sc
Substitution2: "'aalt' Activar todas las variantes en Latin b+APoA-squeda 0 subtabla" oslash.sc
Position2: "'cpsp' Espaciado de may+APoA-sculas en Latin b+APoA-squeda 0 subtabla" dx=5 dy=0 dh=10 dv=0
EndChar

StartChar: P
Encoding: 80 80 247
Width: 967
GlyphClass: 2
Flags: W
AnchorPoint: "Anclaje-6" 483 1760 basechar 0
LayerCount: 2
Fore
SplineSet
78 0 m 1,0,-1
 78 1760 l 1,1,-1
 543 1760 l 2,2,3
 689 1760 689 1760 774.5 1695 c 128,-1,4
 860 1630 860 1630 897 1510 c 128,-1,5
 934 1390 934 1390 934 1224 c 0,6,7
 934 1064 934 1064 903 945.5 c 128,-1,8
 872 827 872 827 792.5 762 c 128,-1,9
 713 697 713 697 567 697 c 2,10,-1
 424 697 l 1,11,-1
 424 0 l 1,12,-1
 78 0 l 1,0,-1
424 1013 m 1,13,-1
 444 1013 l 2,14,15
 542 1013 542 1013 564 1068 c 128,-1,16
 586 1123 586 1123 586 1230 c 0,17,18
 586 1330 586 1330 564.5 1384.5 c 128,-1,19
 543 1439 543 1439 463 1439 c 2,20,-1
 424 1439 l 1,21,-1
 424 1013 l 1,13,-1
EndSplineSet
Substitution2: "'c2sc' May+APoA-sculas a min+APoA-sculas en Latin b+APoA-squeda 32 subtabla" p.sc
Substitution2: "'aalt' Activar todas las variantes en Latin b+APoA-squeda 0 subtabla" p.sc
Position2: "'cpsp' Espaciado de may+APoA-sculas en Latin b+APoA-squeda 0 subtabla" dx=5 dy=0 dh=10 dv=0
EndChar

StartChar: uni01A4
Encoding: 420 420 250
Width: 1316
GlyphClass: 1
Flags: W
LayerCount: 2
Fore
SplineSet
427 0 m 1,0,-1
 427 1464 l 1,1,2
 368 1464 368 1464 340 1428 c 128,-1,3
 312 1392 312 1392 312 1312 c 2,4,-1
 312 1252 l 1,5,-1
 5 1252 l 1,6,-1
 5 1312 l 2,7,8
 5 1509 5 1509 110 1634.5 c 128,-1,9
 215 1760 215 1760 427 1760 c 2,10,-1
 892 1760 l 2,11,12
 1038 1760 1038 1760 1123.5 1695 c 128,-1,13
 1209 1630 1209 1630 1246 1510 c 128,-1,14
 1283 1390 1283 1390 1283 1224 c 0,15,16
 1283 1064 1283 1064 1252 945.5 c 128,-1,17
 1221 827 1221 827 1141.5 762 c 128,-1,18
 1062 697 1062 697 916 697 c 2,19,-1
 773 697 l 1,20,-1
 773 0 l 1,21,-1
 427 0 l 1,0,-1
773 1013 m 1,22,-1
 793 1013 l 2,23,24
 891 1013 891 1013 913 1068 c 128,-1,25
 935 1123 935 1123 935 1230 c 0,26,27
 935 1330 935 1330 913.5 1384.5 c 128,-1,28
 892 1439 892 1439 812 1439 c 2,29,-1
 773 1439 l 1,30,-1
 773 1013 l 1,22,-1
EndSplineSet
Position2: "'cpsp' Espaciado de may+APoA-sculas en Latin b+APoA-squeda 0 subtabla" dx=5 dy=0 dh=10 dv=0
EndChar

StartChar: uni2C63
Encoding: 11363 11363 251
Width: 967
GlyphClass: 2
Flags: W
AnchorPoint: "Anclaje-6" 483 1760 basechar 0
LayerCount: 2
Fore
SplineSet
78 0 m 1,0,-1
 78 1115 l 1,1,-1
 0 1115 l 1,2,-1
 0 1347 l 1,3,-1
 78 1347 l 1,4,-1
 78 1760 l 1,5,-1
 543 1760 l 2,6,7
 689 1760 689 1760 774.5 1695 c 128,-1,8
 860 1630 860 1630 897 1510 c 128,-1,9
 934 1390 934 1390 934 1224 c 0,10,11
 934 1064 934 1064 903 945.5 c 128,-1,12
 872 827 872 827 792.5 762 c 128,-1,13
 713 697 713 697 567 697 c 2,14,-1
 424 697 l 1,15,-1
 424 0 l 1,16,-1
 78 0 l 1,0,-1
424 1013 m 1,17,-1
 444 1013 l 2,18,19
 542 1013 542 1013 564 1068 c 128,-1,20
 586 1123 586 1123 586 1230 c 0,21,22
 586 1330 586 1330 564.5 1384.5 c 128,-1,23
 543 1439 543 1439 463 1439 c 2,24,-1
 424 1439 l 1,25,-1
 424 1347 l 1,26,-1
 516 1347 l 1,27,-1
 516 1115 l 1,28,-1
 424 1115 l 1,29,-1
 424 1013 l 1,17,-1
EndSplineSet
Position2: "'cpsp' Espaciado de may+APoA-sculas en Latin b+APoA-squeda 0 subtabla" dx=5 dy=0 dh=10 dv=0
EndChar

StartChar: Q
Encoding: 81 81 252
Width: 1011
GlyphClass: 1
Flags: W
LayerCount: 2
Fore
SplineSet
856 -187 m 1,0,-1
 576 -3 l 1,1,2
 528 -16 528 -16 477 -16 c 0,3,4
 271 -16 271 -16 162.5 106 c 128,-1,5
 54 228 54 228 54 462 c 2,6,-1
 54 1313 l 2,7,8
 54 1540 54 1540 165.5 1658 c 128,-1,9
 277 1776 277 1776 488 1776 c 256,10,11
 699 1776 699 1776 810.5 1658 c 128,-1,12
 922 1540 922 1540 922 1313 c 2,13,-1
 922 462 l 2,14,15
 922 244 922 244 824 119 c 1,16,-1
 975 23 l 1,17,-1
 856 -187 l 1,0,-1
488 308 m 0,18,19
 526 308 526 308 542.5 336 c 128,-1,20
 559 364 559 364 563.5 405 c 128,-1,21
 568 446 568 446 568 484 c 2,22,-1
 568 1307 l 2,23,24
 568 1363 568 1363 552.5 1407.5 c 128,-1,25
 537 1452 537 1452 486 1452 c 0,26,27
 434 1452 434 1452 418 1408.5 c 128,-1,28
 402 1365 402 1365 402 1308 c 2,29,-1
 402 477 l 2,30,31
 402 442 402 442 406.5 402.5 c 128,-1,32
 411 363 411 363 429 335.5 c 128,-1,33
 447 308 447 308 488 308 c 0,18,19
EndSplineSet
Substitution2: "'c2sc' May+APoA-sculas a min+APoA-sculas en Latin b+APoA-squeda 32 subtabla" q.sc
Substitution2: "'aalt' Activar todas las variantes en Latin b+APoA-squeda 0 subtabla" q.sc
Position2: "'cpsp' Espaciado de may+APoA-sculas en Latin b+APoA-squeda 0 subtabla" dx=5 dy=0 dh=10 dv=0
EndChar

StartChar: uni024A
Encoding: 586 586 253
Width: 1049
GlyphClass: 1
Flags: W
LayerCount: 2
Fore
SplineSet
1059 -196 m 1,0,1
 932 -196 932 -196 833 -164 c 128,-1,2
 734 -132 734 -132 677.5 -60.5 c 128,-1,3
 621 11 621 11 621 130 c 2,4,-1
 621 133 l 1,5,6
 582 51 582 51 514.5 17.5 c 128,-1,7
 447 -16 447 -16 363 -16 c 0,8,9
 234 -16 234 -16 170 45.5 c 128,-1,10
 106 107 106 107 85 216 c 128,-1,11
 64 325 64 325 64 467 c 2,12,-1
 64 1294 l 2,13,14
 64 1436 64 1436 85 1544.5 c 128,-1,15
 106 1653 106 1653 170 1714.5 c 128,-1,16
 234 1776 234 1776 363 1776 c 0,17,18
 449 1776 449 1776 500 1733 c 128,-1,19
 551 1690 551 1690 581 1604 c 1,20,-1
 581 1760 l 1,21,-1
 931 1760 l 1,22,-1
 931 253 l 2,23,24
 931 182 931 182 961.5 151 c 128,-1,25
 992 120 992 120 1059 120 c 1,26,-1
 1059 -196 l 1,0,1
499 278 m 0,27,28
 546 278 546 278 563.5 322 c 128,-1,29
 581 366 581 366 581 431 c 2,30,-1
 581 1330 l 2,31,32
 581 1395 581 1395 563.5 1438.5 c 128,-1,33
 546 1482 546 1482 499 1482 c 0,34,35
 448 1482 448 1482 431 1441.5 c 128,-1,36
 414 1401 414 1401 414 1330 c 2,37,-1
 414 431 l 2,38,39
 414 360 414 360 431 319 c 128,-1,40
 448 278 448 278 499 278 c 0,27,28
EndSplineSet
Position2: "'cpsp' Espaciado de may+APoA-sculas en Latin b+APoA-squeda 0 subtabla" dx=5 dy=0 dh=10 dv=0
EndChar

StartChar: R
Encoding: 82 82 254
Width: 976
GlyphClass: 2
Flags: W
AnchorPoint: "Anclaje-7" 515 0 basechar 0
AnchorPoint: "Anclaje-6" 479 1760 basechar 0
LayerCount: 2
Fore
SplineSet
78 0 m 1,0,-1
 78 1760 l 1,1,-1
 618 1760 l 2,2,3
 753 1760 753 1760 822 1698.5 c 128,-1,4
 891 1637 891 1637 914.5 1526.5 c 128,-1,5
 938 1416 938 1416 938 1267 c 0,6,7
 938 1123 938 1123 901.5 1037 c 128,-1,8
 865 951 865 951 764 918 c 1,9,10
 847 901 847 901 880.5 835.5 c 128,-1,11
 914 770 914 770 914 666 c 2,12,-1
 914 0 l 1,13,-1
 567 0 l 1,14,-1
 567 689 l 2,15,16
 567 766 567 766 535.5 784.5 c 128,-1,17
 504 803 504 803 434 803 c 1,18,-1
 434 0 l 1,19,-1
 78 0 l 1,0,-1
436 1108 m 1,20,-1
 521 1108 l 2,21,22
 594 1108 594 1108 594 1267 c 0,23,24
 594 1370 594 1370 578 1402 c 128,-1,25
 562 1434 562 1434 518 1434 c 2,26,-1
 436 1434 l 1,27,-1
 436 1108 l 1,20,-1
EndSplineSet
Substitution2: "'c2sc' May+APoA-sculas a min+APoA-sculas en Latin b+APoA-squeda 32 subtabla" r.sc
Substitution2: "'aalt' Activar todas las variantes en Latin b+APoA-squeda 0 subtabla" r.sc
Position2: "'cpsp' Espaciado de may+APoA-sculas en Latin b+APoA-squeda 0 subtabla" dx=5 dy=0 dh=10 dv=0
EndChar

StartChar: uni024C
Encoding: 588 588 264
Width: 976
GlyphClass: 2
Flags: W
AnchorPoint: "Anclaje-7" 515 0 basechar 0
AnchorPoint: "Anclaje-6" 479 1760 basechar 0
LayerCount: 2
Fore
SplineSet
78 0 m 1,0,-1
 78 843 l 1,1,-1
 0 843 l 1,2,-1
 0 1075 l 1,3,-1
 78 1075 l 1,4,-1
 78 1760 l 1,5,-1
 618 1760 l 2,6,7
 753 1760 753 1760 822 1698.5 c 128,-1,8
 891 1637 891 1637 914.5 1526.5 c 128,-1,9
 938 1416 938 1416 938 1267 c 0,10,11
 938 1123 938 1123 901.5 1037 c 128,-1,12
 865 951 865 951 764 918 c 1,13,14
 847 901 847 901 880.5 835.5 c 128,-1,15
 914 770 914 770 914 666 c 2,16,-1
 914 0 l 1,17,-1
 567 0 l 1,18,-1
 567 689 l 2,19,20
 567 766 567 766 535.5 784.5 c 128,-1,21
 504 803 504 803 434 803 c 1,22,-1
 434 0 l 1,23,-1
 78 0 l 1,0,-1
436 1108 m 1,24,-1
 521 1108 l 2,25,26
 594 1108 594 1108 594 1267 c 0,27,28
 594 1370 594 1370 578 1402 c 128,-1,29
 562 1434 562 1434 518 1434 c 2,30,-1
 436 1434 l 1,31,-1
 436 1108 l 1,24,-1
EndSplineSet
Position2: "'cpsp' Espaciado de may+APoA-sculas en Latin b+APoA-squeda 0 subtabla" dx=5 dy=0 dh=10 dv=0
EndChar

StartChar: uni2C64
Encoding: 11364 11364 265
Width: 976
GlyphClass: 1
Flags: W
LayerCount: 2
Fore
SplineSet
504 -196 m 1,0,1
 382 -196 382 -196 285.5 -147.5 c 128,-1,2
 189 -99 189 -99 133.5 -4 c 128,-1,3
 78 91 78 91 78 232 c 2,4,-1
 78 1760 l 1,5,-1
 618 1760 l 2,6,7
 753 1760 753 1760 822 1698.5 c 128,-1,8
 891 1637 891 1637 914.5 1526.5 c 128,-1,9
 938 1416 938 1416 938 1267 c 0,10,11
 938 1123 938 1123 901.5 1037 c 128,-1,12
 865 951 865 951 764 918 c 1,13,14
 847 901 847 901 880.5 835.5 c 128,-1,15
 914 770 914 770 914 666 c 2,16,-1
 914 0 l 1,17,-1
 567 0 l 1,18,-1
 567 689 l 2,19,20
 567 766 567 766 535.5 784.5 c 128,-1,21
 504 803 504 803 434 803 c 1,22,-1
 434 252 l 2,23,24
 434 167 434 167 454 143.5 c 128,-1,25
 474 120 474 120 504 120 c 1,26,-1
 504 -196 l 1,0,1
436 1108 m 1,27,-1
 521 1108 l 2,28,29
 594 1108 594 1108 594 1267 c 0,30,31
 594 1370 594 1370 578 1402 c 128,-1,32
 562 1434 562 1434 518 1434 c 2,33,-1
 436 1434 l 1,34,-1
 436 1108 l 1,27,-1
EndSplineSet
Position2: "'cpsp' Espaciado de may+APoA-sculas en Latin b+APoA-squeda 0 subtabla" dx=5 dy=0 dh=10 dv=0
EndChar

StartChar: S
Encoding: 83 83 266
Width: 945
GlyphClass: 2
Flags: W
AnchorPoint: "Anclaje-7" 476 0 basechar 0
AnchorPoint: "Anclaje-6" 468 1760 basechar 0
LayerCount: 2
Fore
SplineSet
496 -16 m 0,0,1
 255 -16 255 -16 148.5 104 c 128,-1,2
 42 224 42 224 42 486 c 2,3,-1
 42 658 l 1,4,-1
 390 658 l 1,5,-1
 390 438 l 2,6,7
 390 377 390 377 408.5 342.5 c 128,-1,8
 427 308 427 308 473 308 c 0,9,10
 521 308 521 308 539.5 336 c 128,-1,11
 558 364 558 364 558 428 c 0,12,13
 558 509 558 509 542 563.5 c 128,-1,14
 526 618 526 618 486.5 667.5 c 128,-1,15
 447 717 447 717 377 783 c 2,16,-1
 219 933 l 2,17,18
 42 1100 42 1100 42 1315 c 0,19,20
 42 1540 42 1540 146.5 1658 c 128,-1,21
 251 1776 251 1776 449 1776 c 0,22,23
 691 1776 691 1776 792.5 1647 c 128,-1,24
 894 1518 894 1518 894 1255 c 1,25,-1
 536 1255 l 1,26,-1
 536 1376 l 2,27,28
 536 1412 536 1412 515.5 1432 c 128,-1,29
 495 1452 495 1452 460 1452 c 0,30,31
 418 1452 418 1452 398.5 1428.5 c 128,-1,32
 379 1405 379 1405 379 1368 c 256,33,34
 379 1331 379 1331 399 1288 c 128,-1,35
 419 1245 419 1245 478 1189 c 2,36,-1
 681 994 l 2,37,38
 742 936 742 936 793 871.5 c 128,-1,39
 844 807 844 807 875 721.5 c 128,-1,40
 906 636 906 636 906 513 c 0,41,42
 906 265 906 265 814.5 124.5 c 128,-1,43
 723 -16 723 -16 496 -16 c 0,0,1
EndSplineSet
Substitution2: "'c2sc' May+APoA-sculas a min+APoA-sculas en Latin b+APoA-squeda 32 subtabla" s.sc
Substitution2: "'aalt' Activar todas las variantes en Latin b+APoA-squeda 0 subtabla" s.sc
Position2: "'cpsp' Espaciado de may+APoA-sculas en Latin b+APoA-squeda 0 subtabla" dx=5 dy=0 dh=10 dv=0
EndChar

StartChar: uniA78B
Encoding: 42891 42891 269
Width: 469
GlyphClass: 1
Flags: W
LayerCount: 2
Fore
SplineSet
125 479 m 1,0,-1
 55 1760 l 1,1,-1
 413 1760 l 1,2,-1
 343 479 l 1,3,-1
 125 479 l 1,0,-1
EndSplineSet
Position2: "'cpsp' Espaciado de may+APoA-sculas en Latin b+APoA-squeda 0 subtabla" dx=5 dy=0 dh=10 dv=0
EndChar

StartChar: uni1E66
Encoding: 7782 7782 271
Width: 945
GlyphClass: 2
Flags: W
AnchorPoint: "Anclaje-7" 476 0 basechar 0
AnchorPoint: "Anclaje-6" 468 1760 basechar 0
LayerCount: 2
Fore
SplineSet
291 2125 m 1,0,-1
 291 2383 l 1,1,-1
 649 2383 l 1,2,-1
 649 2125 l 1,3,-1
 291 2125 l 1,0,-1
324 1837 m 1,4,-1
 87 2092 l 1,5,-1
 372 2092 l 1,6,-1
 471 1956 l 1,7,-1
 570 2092 l 1,8,-1
 855 2092 l 1,9,-1
 618 1837 l 1,10,-1
 324 1837 l 1,4,-1
496 -16 m 0,11,12
 255 -16 255 -16 148.5 104 c 128,-1,13
 42 224 42 224 42 486 c 2,14,-1
 42 658 l 1,15,-1
 390 658 l 1,16,-1
 390 438 l 2,17,18
 390 377 390 377 408.5 342.5 c 128,-1,19
 427 308 427 308 473 308 c 0,20,21
 521 308 521 308 539.5 336 c 128,-1,22
 558 364 558 364 558 428 c 0,23,24
 558 509 558 509 542 563.5 c 128,-1,25
 526 618 526 618 486.5 667.5 c 128,-1,26
 447 717 447 717 377 783 c 2,27,-1
 219 933 l 2,28,29
 42 1100 42 1100 42 1315 c 0,30,31
 42 1540 42 1540 146.5 1658 c 128,-1,32
 251 1776 251 1776 449 1776 c 0,33,34
 691 1776 691 1776 792.5 1647 c 128,-1,35
 894 1518 894 1518 894 1255 c 1,36,-1
 536 1255 l 1,37,-1
 536 1376 l 2,38,39
 536 1412 536 1412 515.5 1432 c 128,-1,40
 495 1452 495 1452 460 1452 c 0,41,42
 418 1452 418 1452 398.5 1428.5 c 128,-1,43
 379 1405 379 1405 379 1368 c 256,44,45
 379 1331 379 1331 399 1288 c 128,-1,46
 419 1245 419 1245 478 1189 c 2,47,-1
 681 994 l 2,48,49
 742 936 742 936 793 871.5 c 128,-1,50
 844 807 844 807 875 721.5 c 128,-1,51
 906 636 906 636 906 513 c 0,52,53
 906 265 906 265 814.5 124.5 c 128,-1,54
 723 -16 723 -16 496 -16 c 0,11,12
EndSplineSet
Substitution2: "'c2sc' May+APoA-sculas a min+APoA-sculas en Latin b+APoA-squeda 32 subtabla" uni1E67.sc
Substitution2: "'aalt' Activar todas las variantes en Latin b+APoA-squeda 0 subtabla" uni1E67.sc
Position2: "'cpsp' Espaciado de may+APoA-sculas en Latin b+APoA-squeda 0 subtabla" dx=5 dy=0 dh=10 dv=0
EndChar

StartChar: uni018F
Encoding: 399 399 273
Width: 1000
GlyphClass: 1
Flags: W
LayerCount: 2
Fore
SplineSet
500 -16 m 0,0,1
 375 -16 375 -16 277.5 30 c 128,-1,2
 180 76 180 76 124 168 c 128,-1,3
 68 260 68 260 68 398 c 2,4,-1
 68 890 l 1,5,-1
 583 890 l 1,6,-1
 583 1319 l 2,7,8
 583 1392 583 1392 562 1422 c 128,-1,9
 541 1452 541 1452 500 1452 c 0,10,11
 455 1452 455 1452 436.5 1415 c 128,-1,12
 418 1378 418 1378 418 1319 c 2,13,-1
 418 1087 l 1,14,-1
 64 1087 l 1,15,-1
 64 1335 l 2,16,17
 64 1567 64 1567 181 1671.5 c 128,-1,18
 298 1776 298 1776 508 1776 c 0,19,20
 699 1776 699 1776 815.5 1657 c 128,-1,21
 932 1538 932 1538 932 1324 c 2,22,-1
 932 512 l 2,23,24
 932 256 932 256 830.5 120 c 128,-1,25
 729 -16 729 -16 500 -16 c 0,0,1
500 308 m 0,26,27
 549 308 549 308 566 344 c 128,-1,28
 583 380 583 380 583 438 c 2,29,-1
 583 620 l 1,30,-1
 418 620 l 1,31,-1
 418 442 l 2,32,33
 418 363 418 363 438 335.5 c 128,-1,34
 458 308 458 308 500 308 c 0,26,27
EndSplineSet
Substitution2: "'c2sc' May+APoA-sculas a min+APoA-sculas en Latin b+APoA-squeda 32 subtabla" uni0259.sc
Substitution2: "'aalt' Activar todas las variantes en Latin b+APoA-squeda 0 subtabla" uni0259.sc
Position2: "'cpsp' Espaciado de may+APoA-sculas en Latin b+APoA-squeda 0 subtabla" dx=5 dy=0 dh=10 dv=0
EndChar

StartChar: Sigma
Encoding: 931 931 279
Width: 836
GlyphClass: 1
Flags: W
LayerCount: 2
Fore
SplineSet
62 -119 m 1,0,-1
 62 149 l 1,1,-1
 399 822 l 1,2,-1
 62 1455 l 1,3,-1
 62 1760 l 1,4,-1
 779 1760 l 1,5,-1
 779 1444 l 1,6,-1
 387 1444 l 1,7,-1
 692 866 l 1,8,-1
 692 790 l 1,9,-1
 387 176 l 1,10,-1
 795 176 l 1,11,-1
 795 -119 l 1,12,-1
 62 -119 l 1,0,-1
EndSplineSet
Position2: "'cpsp' Espaciado de may+APoA-sculas en Latin b+APoA-squeda 0 subtabla" dx=5 dy=0 dh=10 dv=0
EndChar

StartChar: uniA7A8
Encoding: 42920 42920 280
Width: 945
GlyphClass: 2
Flags: W
AnchorPoint: "Anclaje-7" 476 0 basechar 0
AnchorPoint: "Anclaje-6" 468 1760 basechar 0
LayerCount: 2
Fore
SplineSet
496 -16 m 0,0,1
 255 -16 255 -16 148.5 104 c 128,-1,2
 42 224 42 224 42 486 c 2,3,-1
 42 658 l 1,4,-1
 390 658 l 1,5,-1
 390 438 l 2,6,7
 390 377 390 377 408.5 342.5 c 128,-1,8
 427 308 427 308 473 308 c 0,9,10
 521 308 521 308 539.5 336 c 128,-1,11
 558 364 558 364 558 428 c 0,12,13
 558 509 558 509 542 563.5 c 128,-1,14
 526 618 526 618 486.5 667.5 c 128,-1,15
 447 717 447 717 377 783 c 2,16,-1
 353 805 l 1,17,-1
 63 736 l 1,18,-1
 63 982 l 1,19,-1
 154 1004 l 1,20,21
 42 1143 42 1143 42 1315 c 0,22,23
 42 1540 42 1540 146.5 1658 c 128,-1,24
 251 1776 251 1776 449 1776 c 0,25,26
 691 1776 691 1776 792.5 1647 c 128,-1,27
 894 1518 894 1518 894 1255 c 1,28,-1
 536 1255 l 1,29,-1
 536 1376 l 2,30,31
 536 1412 536 1412 515.5 1432 c 128,-1,32
 495 1452 495 1452 460 1452 c 0,33,34
 418 1452 418 1452 398.5 1428.5 c 128,-1,35
 379 1405 379 1405 379 1368 c 256,36,37
 379 1331 379 1331 399 1288 c 128,-1,38
 419 1245 419 1245 478 1189 c 2,39,-1
 568 1103 l 1,40,-1
 875 1176 l 1,41,-1
 875 930 l 1,42,-1
 767 904 l 1,43,44
 827 833 827 833 866.5 742 c 128,-1,45
 906 651 906 651 906 513 c 0,46,47
 906 265 906 265 814.5 124.5 c 128,-1,48
 723 -16 723 -16 496 -16 c 0,0,1
EndSplineSet
Position2: "'cpsp' Espaciado de may+APoA-sculas en Latin b+APoA-squeda 0 subtabla" dx=5 dy=0 dh=10 dv=0
EndChar

StartChar: T
Encoding: 84 84 281
Width: 810
GlyphClass: 2
Flags: W
AnchorPoint: "Anclaje-7" 405 0 basechar 0
AnchorPoint: "Anclaje-6" 405 1760 basechar 0
AnchorPoint: "Anclaje-2" 405 883 basechar 0
LayerCount: 2
Fore
SplineSet
229 0 m 1,0,-1
 229 1422 l 1,1,-1
 20 1422 l 1,2,-1
 20 1760 l 1,3,-1
 790 1760 l 1,4,-1
 790 1422 l 1,5,-1
 581 1422 l 1,6,-1
 581 0 l 1,7,-1
 229 0 l 1,0,-1
EndSplineSet
Substitution2: "'c2sc' May+APoA-sculas a min+APoA-sculas en Latin b+APoA-squeda 32 subtabla" t.sc
Substitution2: "'aalt' Activar todas las variantes en Latin b+APoA-squeda 0 subtabla" t.sc
Position2: "'cpsp' Espaciado de may+APoA-sculas en Latin b+APoA-squeda 0 subtabla" dx=5 dy=0 dh=10 dv=0
EndChar

StartChar: Tbar
Encoding: 358 358 283
Width: 810
GlyphClass: 1
Flags: W
LayerCount: 2
Fore
SplineSet
790 1760 m 1,0,-1
 790 1422 l 1,1,-1
 581 1422 l 1,2,-1
 581 985 l 1,3,-1
 727 985 l 1,4,-1
 727 752 l 1,5,-1
 581 752 l 1,6,-1
 581 0 l 1,7,-1
 229 0 l 1,8,-1
 229 752 l 1,9,-1
 77 752 l 1,10,-1
 77 985 l 1,11,-1
 229 985 l 1,12,-1
 229 1422 l 1,13,-1
 20 1422 l 1,14,-1
 20 1760 l 1,15,-1
 790 1760 l 1,0,-1
EndSplineSet
Substitution2: "'c2sc' May+APoA-sculas a min+APoA-sculas en Latin b+APoA-squeda 32 subtabla" tbar.sc
Substitution2: "'aalt' Activar todas las variantes en Latin b+APoA-squeda 0 subtabla" tbar.sc
Position2: "'cpsp' Espaciado de may+APoA-sculas en Latin b+APoA-squeda 0 subtabla" dx=5 dy=0 dh=10 dv=0
EndChar

StartChar: uni023E
Encoding: 574 574 288
Width: 810
GlyphClass: 2
Flags: W
AnchorPoint: "Anclaje-7" 405 0 basechar 0
AnchorPoint: "Anclaje-6" 405 1760 basechar 0
AnchorPoint: "Anclaje-2" 405 883 basechar 0
LayerCount: 2
Fore
SplineSet
6 -186 m 1,0,-1
 226 666 l 1,1,-1
 229 666 l 1,2,-1
 229 1422 l 1,3,-1
 20 1422 l 1,4,-1
 20 1760 l 1,5,-1
 557 1760 l 1,6,-1
 619 2000 l 1,7,-1
 759 2000 l 1,8,-1
 697 1760 l 1,9,-1
 790 1760 l 1,10,-1
 790 1422 l 1,11,-1
 581 1422 l 1,12,-1
 581 0 l 1,13,-1
 229 0 l 1,14,-1
 229 135 l 1,15,-1
 146 -186 l 1,16,-1
 6 -186 l 1,0,-1
EndSplineSet
Position2: "'cpsp' Espaciado de may+APoA-sculas en Latin b+APoA-squeda 0 subtabla" dx=5 dy=0 dh=10 dv=0
EndChar

StartChar: uni01AC
Encoding: 428 428 291
Width: 1000
GlyphClass: 1
Flags: W
LayerCount: 2
Fore
SplineSet
419 0 m 1,0,-1
 419 1422 l 1,1,-1
 418 1422 l 2,2,3
 358 1422 358 1422 330 1386 c 128,-1,4
 302 1350 302 1350 302 1270 c 2,5,-1
 302 1252 l 1,6,-1
 -5 1252 l 1,7,-1
 -5 1312 l 2,8,9
 -5 1443 -5 1443 41.5 1544 c 128,-1,10
 88 1645 88 1645 181.5 1702.5 c 128,-1,11
 275 1760 275 1760 416 1760 c 2,12,-1
 980 1760 l 1,13,-1
 980 1422 l 1,14,-1
 771 1422 l 1,15,-1
 771 0 l 1,16,-1
 419 0 l 1,0,-1
EndSplineSet
Position2: "'cpsp' Espaciado de may+APoA-sculas en Latin b+APoA-squeda 0 subtabla" dx=5 dy=0 dh=10 dv=0
EndChar

StartChar: Thorn
Encoding: 222 222 292
Width: 947
GlyphClass: 1
Flags: W
LayerCount: 2
Fore
SplineSet
62 0 m 1,0,-1
 62 1760 l 1,1,-1
 407 1760 l 1,2,-1
 407 1516 l 1,3,-1
 527 1516 l 2,4,5
 681 1516 681 1516 766 1446.5 c 128,-1,6
 851 1377 851 1377 884.5 1254.5 c 128,-1,7
 918 1132 918 1132 918 973 c 0,8,9
 918 820 918 820 890 698 c 128,-1,10
 862 576 862 576 783 505 c 128,-1,11
 704 434 704 434 551 434 c 2,12,-1
 408 434 l 1,13,-1
 408 0 l 1,14,-1
 62 0 l 1,0,-1
408 721 m 1,15,-1
 428 721 l 2,16,17
 510 721 510 721 540 770 c 128,-1,18
 570 819 570 819 570 967 c 0,19,20
 570 1044 570 1044 563 1102.5 c 128,-1,21
 556 1161 556 1161 530.5 1193.5 c 128,-1,22
 505 1226 505 1226 447 1226 c 2,23,-1
 408 1226 l 1,24,-1
 408 721 l 1,15,-1
EndSplineSet
Substitution2: "'c2sc' May+APoA-sculas a min+APoA-sculas en Latin b+APoA-squeda 32 subtabla" thorn.sc
Substitution2: "'aalt' Activar todas las variantes en Latin b+APoA-squeda 0 subtabla" thorn.sc
Position2: "'cpsp' Espaciado de may+APoA-sculas en Latin b+APoA-squeda 0 subtabla" dx=5 dy=0 dh=10 dv=0
EndChar

StartChar: uni01AE
Encoding: 430 430 294
Width: 810
GlyphClass: 1
Flags: W
LayerCount: 2
Fore
SplineSet
651 -196 m 1,0,1
 467 -196 467 -196 348 -87.5 c 128,-1,2
 229 21 229 21 229 232 c 2,3,-1
 229 1422 l 1,4,-1
 20 1422 l 1,5,-1
 20 1760 l 1,6,-1
 790 1760 l 1,7,-1
 790 1422 l 1,8,-1
 581 1422 l 1,9,-1
 581 252 l 2,10,11
 581 167 581 167 601 143.5 c 128,-1,12
 621 120 621 120 651 120 c 1,13,-1
 651 -196 l 1,0,1
EndSplineSet
Position2: "'cpsp' Espaciado de may+APoA-sculas en Latin b+APoA-squeda 0 subtabla" dx=5 dy=0 dh=10 dv=0
EndChar

StartChar: U
Encoding: 85 85 295
Width: 970
GlyphClass: 2
Flags: W
AnchorPoint: "Anclaje-7" 485 0 basechar 0
AnchorPoint: "Anclaje-6" 485 1760 basechar 0
AnchorPoint: "Anclaje-5" 485 1760 basechar 0
AnchorPoint: "Anclaje-3" 507 0 basechar 0
LayerCount: 2
Fore
SplineSet
485 -16 m 256,0,1
 265 -16 265 -16 161 107.5 c 128,-1,2
 57 231 57 231 57 471 c 2,3,-1
 57 1760 l 1,4,-1
 399 1760 l 1,5,-1
 399 485 l 2,6,7
 399 441 399 441 404 400.5 c 128,-1,8
 409 360 409 360 427 334 c 128,-1,9
 445 308 445 308 485 308 c 0,10,11
 526 308 526 308 544 333.5 c 128,-1,12
 562 359 562 359 566.5 400 c 128,-1,13
 571 441 571 441 571 485 c 2,14,-1
 571 1760 l 1,15,-1
 913 1760 l 1,16,-1
 913 471 l 2,17,18
 913 231 913 231 809 107.5 c 128,-1,19
 705 -16 705 -16 485 -16 c 256,0,1
EndSplineSet
Substitution2: "'c2sc' May+APoA-sculas a min+APoA-sculas en Latin b+APoA-squeda 32 subtabla" u.sc
Substitution2: "'aalt' Activar todas las variantes en Latin b+APoA-squeda 0 subtabla" u.sc
Position2: "'cpsp' Espaciado de may+APoA-sculas en Latin b+APoA-squeda 0 subtabla" dx=5 dy=0 dh=10 dv=0
EndChar

StartChar: uni0244
Encoding: 580 580 297
Width: 1040
GlyphClass: 2
Flags: W
AnchorPoint: "Anclaje-7" 520 0 basechar 0
AnchorPoint: "Anclaje-6" 520 1760 basechar 0
AnchorPoint: "Anclaje-5" 520 1760 basechar 0
AnchorPoint: "Anclaje-3" 542 0 basechar 0
LayerCount: 2
Fore
SplineSet
520 -16 m 256,0,1
 300 -16 300 -16 196 107.5 c 128,-1,2
 92 231 92 231 92 471 c 2,3,-1
 92 912 l 1,4,-1
 -10 912 l 1,5,-1
 -10 1132 l 1,6,-1
 92 1132 l 1,7,-1
 92 1760 l 1,8,-1
 434 1760 l 1,9,-1
 434 1132 l 1,10,-1
 606 1132 l 1,11,-1
 606 1760 l 1,12,-1
 948 1760 l 1,13,-1
 948 1132 l 1,14,-1
 1050 1132 l 1,15,-1
 1050 912 l 1,16,-1
 948 912 l 1,17,-1
 948 471 l 2,18,19
 948 231 948 231 844 107.5 c 128,-1,20
 740 -16 740 -16 520 -16 c 256,0,1
434 485 m 2,21,22
 434 441 434 441 439 400.5 c 128,-1,23
 444 360 444 360 462 334 c 128,-1,24
 480 308 480 308 520 308 c 0,25,26
 561 308 561 308 579 333.5 c 128,-1,27
 597 359 597 359 601.5 400 c 128,-1,28
 606 441 606 441 606 485 c 2,29,-1
 606 912 l 1,30,-1
 434 912 l 1,31,-1
 434 485 l 2,21,22
EndSplineSet
Position2: "'cpsp' Espaciado de may+APoA-sculas en Latin b+APoA-squeda 0 subtabla" dx=5 dy=0 dh=10 dv=0
EndChar

StartChar: uni01D9
Encoding: 473 473 306
Width: 970
GlyphClass: 2
Flags: W
AnchorPoint: "Anclaje-7" 485 0 basechar 0
AnchorPoint: "Anclaje-6" 485 1760 basechar 0
AnchorPoint: "Anclaje-5" 485 2155 basechar 0
AnchorPoint: "Anclaje-3" 507 0 basechar 0
LayerCount: 2
Fore
SplineSet
338 2204 m 1,0,-1
 101 2459 l 1,1,-1
 386 2459 l 1,2,-1
 485 2323 l 1,3,-1
 584 2459 l 1,4,-1
 869 2459 l 1,5,-1
 632 2204 l 1,6,-1
 338 2204 l 1,0,-1
548 1857 m 1,7,-1
 548 2105 l 1,8,-1
 906 2105 l 1,9,-1
 906 1857 l 1,10,-1
 548 1857 l 1,7,-1
64 1857 m 1,11,-1
 64 2105 l 1,12,-1
 422 2105 l 1,13,-1
 422 1857 l 1,14,-1
 64 1857 l 1,11,-1
485 -16 m 256,15,16
 265 -16 265 -16 161 107.5 c 128,-1,17
 57 231 57 231 57 471 c 2,18,-1
 57 1760 l 1,19,-1
 399 1760 l 1,20,-1
 399 485 l 2,21,22
 399 441 399 441 404 400.5 c 128,-1,23
 409 360 409 360 427 334 c 128,-1,24
 445 308 445 308 485 308 c 0,25,26
 526 308 526 308 544 333.5 c 128,-1,27
 562 359 562 359 566.5 400 c 128,-1,28
 571 441 571 441 571 485 c 2,29,-1
 571 1760 l 1,30,-1
 913 1760 l 1,31,-1
 913 471 l 2,32,33
 913 231 913 231 809 107.5 c 128,-1,34
 705 -16 705 -16 485 -16 c 256,15,16
EndSplineSet
Position2: "'cpsp' Espaciado de may+APoA-sculas en Latin b+APoA-squeda 0 subtabla" dx=5 dy=0 dh=10 dv=0
EndChar

StartChar: Uhorn
Encoding: 431 431 312
Width: 1083
GlyphClass: 2
Flags: W
AnchorPoint: "Anclaje-7" 485 0 basechar 0
AnchorPoint: "Anclaje-5" 485 1760 basechar 0
AnchorPoint: "Anclaje-3" 507 0 basechar 0
LayerCount: 2
Fore
SplineSet
485 -16 m 256,0,1
 265 -16 265 -16 161 107.5 c 128,-1,2
 57 231 57 231 57 471 c 2,3,-1
 57 1760 l 1,4,-1
 399 1760 l 1,5,-1
 399 485 l 2,6,7
 399 441 399 441 404 400.5 c 128,-1,8
 409 360 409 360 427 334 c 128,-1,9
 445 308 445 308 485 308 c 0,10,11
 526 308 526 308 544 333.5 c 128,-1,12
 562 359 562 359 566.5 400 c 128,-1,13
 571 441 571 441 571 485 c 2,14,-1
 571 1760 l 1,15,-1
 700 1760 l 2,16,17
 815 1760 815 1760 815 1885 c 2,18,-1
 815 1908 l 1,19,-1
 1093 1908 l 1,20,-1
 1093 1893 l 2,21,22
 1093 1762 1093 1762 1043 1686 c 128,-1,23
 993 1610 993 1610 913 1577 c 1,24,-1
 913 471 l 2,25,26
 913 231 913 231 809 107.5 c 128,-1,27
 705 -16 705 -16 485 -16 c 256,0,1
EndSplineSet
Substitution2: "'c2sc' May+APoA-sculas a min+APoA-sculas en Latin b+APoA-squeda 32 subtabla" uhorn.sc
Substitution2: "'aalt' Activar todas las variantes en Latin b+APoA-squeda 0 subtabla" uhorn.sc
Position2: "'cpsp' Espaciado de may+APoA-sculas en Latin b+APoA-squeda 0 subtabla" dx=5 dy=0 dh=10 dv=0
EndChar

StartChar: uni1EEE
Encoding: 7918 7918 317
Width: 1083
GlyphClass: 2
Flags: W
AnchorPoint: "Anclaje-7" 485 0 basechar 0
AnchorPoint: "Anclaje-5" 485 1760 basechar 0
AnchorPoint: "Anclaje-3" 507 0 basechar 0
LayerCount: 2
Fore
SplineSet
600 1841 m 0,0,1
 526 1841 526 1841 477 1864 c 128,-1,2
 428 1887 428 1887 390.5 1909.5 c 128,-1,3
 353 1932 353 1932 312 1932 c 0,4,5
 286 1932 286 1932 263 1917 c 128,-1,6
 240 1902 240 1902 220 1864 c 1,7,-1
 72 1942 l 1,8,9
 97 1997 97 1997 126.5 2043 c 128,-1,10
 156 2089 156 2089 201.5 2117 c 128,-1,11
 247 2145 247 2145 319 2145 c 0,12,13
 390 2145 390 2145 435.5 2124 c 128,-1,14
 481 2103 481 2103 516 2082 c 128,-1,15
 551 2061 551 2061 589 2061 c 0,16,17
 616 2061 616 2061 639 2078 c 128,-1,18
 662 2095 662 2095 682 2136 c 1,19,-1
 848 2082 l 1,20,21
 824 2020 824 2020 795 1964.5 c 128,-1,22
 766 1909 766 1909 720.5 1875 c 128,-1,23
 675 1841 675 1841 600 1841 c 0,0,1
485 -16 m 256,24,25
 265 -16 265 -16 161 107.5 c 128,-1,26
 57 231 57 231 57 471 c 2,27,-1
 57 1760 l 1,28,-1
 399 1760 l 1,29,-1
 399 485 l 2,30,31
 399 441 399 441 404 400.5 c 128,-1,32
 409 360 409 360 427 334 c 128,-1,33
 445 308 445 308 485 308 c 0,34,35
 526 308 526 308 544 333.5 c 128,-1,36
 562 359 562 359 566.5 400 c 128,-1,37
 571 441 571 441 571 485 c 2,38,-1
 571 1760 l 1,39,-1
 700 1760 l 2,40,41
 815 1760 815 1760 815 1885 c 2,42,-1
 815 1908 l 1,43,-1
 1093 1908 l 1,44,-1
 1093 1893 l 2,45,46
 1093 1762 1093 1762 1043 1686 c 128,-1,47
 993 1610 993 1610 913 1577 c 1,48,-1
 913 471 l 2,49,50
 913 231 913 231 809 107.5 c 128,-1,51
 705 -16 705 -16 485 -16 c 256,24,25
EndSplineSet
Substitution2: "'c2sc' May+APoA-sculas a min+APoA-sculas en Latin b+APoA-squeda 32 subtabla" uni1EEF.sc
Substitution2: "'aalt' Activar todas las variantes en Latin b+APoA-squeda 0 subtabla" uni1EEF.sc
Position2: "'cpsp' Espaciado de may+APoA-sculas en Latin b+APoA-squeda 0 subtabla" dx=5 dy=0 dh=10 dv=0
EndChar

StartChar: uni01B1
Encoding: 433 433 323
Width: 992
GlyphClass: 1
Flags: W
LayerCount: 2
Fore
SplineSet
496 -16 m 0,0,1
 288 -16 288 -16 180 90.5 c 128,-1,2
 72 197 72 197 72 402 c 2,3,-1
 72 958 l 2,4,5
 72 1274 72 1274 169 1422 c 1,6,-1
 47 1422 l 1,7,-1
 47 1760 l 1,8,-1
 463 1760 l 1,9,-1
 463 1421 l 1,10,11
 441 1404 441 1404 430 1376 c 128,-1,12
 419 1348 419 1348 415 1282.5 c 128,-1,13
 411 1217 411 1217 411 1087 c 2,14,-1
 411 380 l 2,15,16
 411 328 411 328 427.5 292 c 128,-1,17
 444 256 444 256 496 256 c 256,18,19
 548 256 548 256 564.5 292 c 128,-1,20
 581 328 581 328 581 380 c 2,21,-1
 581 1087 l 2,22,23
 581 1217 581 1217 577 1282.5 c 128,-1,24
 573 1348 573 1348 562 1376 c 128,-1,25
 551 1404 551 1404 529 1421 c 1,26,-1
 529 1760 l 1,27,-1
 945 1760 l 1,28,-1
 945 1422 l 1,29,-1
 823 1422 l 1,30,31
 920 1274 920 1274 920 958 c 2,32,-1
 920 402 l 2,33,34
 920 197 920 197 812.5 90.5 c 128,-1,35
 705 -16 705 -16 496 -16 c 0,0,1
EndSplineSet
Position2: "'cpsp' Espaciado de may+APoA-sculas en Latin b+APoA-squeda 0 subtabla" dx=5 dy=0 dh=10 dv=0
EndChar

StartChar: V
Encoding: 86 86 328
Width: 961
GlyphClass: 2
Flags: W
AnchorPoint: "Anclaje-7" 481 0 basechar 0
AnchorPoint: "Anclaje-6" 481 1760 basechar 0
LayerCount: 2
Fore
SplineSet
240 0 m 1,0,-1
 23 1761 l 1,1,-1
 358 1761 l 1,2,-1
 487 563 l 1,3,-1
 602 1761 l 1,4,-1
 937 1761 l 1,5,-1
 720 0 l 1,6,-1
 240 0 l 1,0,-1
EndSplineSet
Substitution2: "'c2sc' May+APoA-sculas a min+APoA-sculas en Latin b+APoA-squeda 32 subtabla" v.sc
Substitution2: "'aalt' Activar todas las variantes en Latin b+APoA-squeda 0 subtabla" v.sc
Position2: "'cpsp' Espaciado de may+APoA-sculas en Latin b+APoA-squeda 0 subtabla" dx=5 dy=0 dh=10 dv=0
EndChar

StartChar: uni01B2
Encoding: 434 434 330
Width: 911
GlyphClass: 1
Flags: W
LayerCount: 2
Fore
SplineSet
239 0 m 1,0,-1
 23 1749 l 1,1,-1
 357 1749 l 1,2,-1
 485 560 l 1,3,-1
 564 1367 l 2,4,5
 565 1373 565 1373 565 1379 c 128,-1,6
 565 1385 565 1385 565 1390 c 0,7,8
 565 1461 565 1461 501 1461 c 1,9,-1
 501 1762 l 1,10,11
 697 1762 697 1762 792 1682.5 c 128,-1,12
 887 1603 887 1603 887 1421 c 0,13,14
 887 1372 887 1372 879 1306 c 2,15,-1
 717 0 l 1,16,-1
 239 0 l 1,0,-1
EndSplineSet
Position2: "'cpsp' Espaciado de may+APoA-sculas en Latin b+APoA-squeda 0 subtabla" dx=5 dy=0 dh=10 dv=0
EndChar

StartChar: uni0245
Encoding: 581 581 332
Width: 961
GlyphClass: 1
Flags: W
LayerCount: 2
Fore
SplineSet
721 1760 m 1,0,-1
 938 -1 l 1,1,-1
 603 -1 l 1,2,-1
 474 1197 l 1,3,-1
 359 -1 l 1,4,-1
 24 -1 l 1,5,-1
 241 1760 l 1,6,-1
 721 1760 l 1,0,-1
EndSplineSet
Position2: "'cpsp' Espaciado de may+APoA-sculas en Latin b+APoA-squeda 0 subtabla" dx=5 dy=0 dh=10 dv=0
EndChar

StartChar: W
Encoding: 87 87 333
Width: 1458
GlyphClass: 2
Flags: W
AnchorPoint: "Anclaje-7" 729 0 basechar 0
AnchorPoint: "Anclaje-6" 743 1760 basechar 0
LayerCount: 2
Fore
SplineSet
216 0 m 1,0,-1
 27 1760 l 1,1,-1
 371 1760 l 1,2,-1
 468 649 l 1,3,-1
 567 1760 l 1,4,-1
 895 1760 l 1,5,-1
 989 649 l 1,6,-1
 1083 1760 l 1,7,-1
 1431 1760 l 1,8,-1
 1239 0 l 1,9,-1
 817 0 l 1,10,-1
 729 847 l 1,11,-1
 645 0 l 1,12,-1
 216 0 l 1,0,-1
EndSplineSet
Substitution2: "'c2sc' May+APoA-sculas a min+APoA-sculas en Latin b+APoA-squeda 32 subtabla" w.sc
Substitution2: "'aalt' Activar todas las variantes en Latin b+APoA-squeda 0 subtabla" w.sc
Position2: "'cpsp' Espaciado de may+APoA-sculas en Latin b+APoA-squeda 0 subtabla" dx=5 dy=0 dh=10 dv=0
EndChar

StartChar: uni2C72
Encoding: 11378 11378 340
Width: 1495
GlyphClass: 1
Flags: W
LayerCount: 2
Fore
SplineSet
215 0 m 1,0,-1
 26 1760 l 1,1,-1
 371 1760 l 1,2,-1
 469 647 l 1,3,-1
 568 1760 l 1,4,-1
 897 1760 l 1,5,-1
 992 647 l 1,6,-1
 1056 1417 l 2,7,8
 1072 1604 1072 1604 1175.5 1689.5 c 128,-1,9
 1279 1775 1279 1775 1505 1775 c 1,10,-1
 1505 1471 l 1,11,12
 1435 1471 1435 1471 1414.5 1433.5 c 128,-1,13
 1394 1396 1394 1396 1385 1315 c 2,14,-1
 1242 0 l 1,15,-1
 819 0 l 1,16,-1
 730 846 l 1,17,-1
 646 0 l 1,18,-1
 215 0 l 1,0,-1
EndSplineSet
Position2: "'cpsp' Espaciado de may+APoA-sculas en Latin b+APoA-squeda 0 subtabla" dx=5 dy=0 dh=10 dv=0
EndChar

StartChar: X
Encoding: 88 88 341
Width: 991
GlyphClass: 2
Flags: W
AnchorPoint: "Anclaje-7" 496 0 basechar 0
AnchorPoint: "Anclaje-6" 496 1760 basechar 0
LayerCount: 2
Fore
SplineSet
27 0 m 1,0,-1
 216 933 l 1,1,-1
 66 1761 l 1,2,-1
 410 1761 l 1,3,-1
 501 1156 l 1,4,-1
 582 1761 l 1,5,-1
 927 1761 l 1,6,-1
 777 933 l 1,7,-1
 965 0 l 1,8,-1
 609 0 l 1,9,-1
 498 688 l 1,10,-1
 384 0 l 1,11,-1
 27 0 l 1,0,-1
EndSplineSet
Substitution2: "'c2sc' May+APoA-sculas a min+APoA-sculas en Latin b+APoA-squeda 32 subtabla" x.sc
Substitution2: "'aalt' Activar todas las variantes en Latin b+APoA-squeda 0 subtabla" x.sc
Position2: "'cpsp' Espaciado de may+APoA-sculas en Latin b+APoA-squeda 0 subtabla" dx=5 dy=0 dh=10 dv=0
EndChar

StartChar: Y
Encoding: 89 89 344
Width: 914
GlyphClass: 2
Flags: W
AnchorPoint: "Anclaje-7" 457 0 basechar 0
AnchorPoint: "Anclaje-5" 456 1760 basechar 0
LayerCount: 2
Fore
SplineSet
291 0 m 1,0,-1
 291 579 l 1,1,-1
 10 1760 l 1,2,-1
 359 1760 l 1,3,-1
 457 1164 l 1,4,-1
 555 1760 l 1,5,-1
 903 1760 l 1,6,-1
 623 579 l 1,7,-1
 623 0 l 1,8,-1
 291 0 l 1,0,-1
EndSplineSet
Substitution2: "'c2sc' May+APoA-sculas a min+APoA-sculas en Latin b+APoA-squeda 32 subtabla" y.sc
Substitution2: "'aalt' Activar todas las variantes en Latin b+APoA-squeda 0 subtabla" y.sc
Position2: "'cpsp' Espaciado de may+APoA-sculas en Latin b+APoA-squeda 0 subtabla" dx=5 dy=0 dh=10 dv=0
EndChar

StartChar: uni01B3
Encoding: 435 435 351
Width: 934
GlyphClass: 1
Flags: W
LayerCount: 2
Fore
SplineSet
289 0 m 1,0,-1
 289 589 l 1,1,-1
 10 1760 l 1,2,-1
 359 1760 l 1,3,-1
 457 1165 l 1,4,-1
 499 1420 l 2,5,6
 520 1543 520 1543 567 1621.5 c 128,-1,7
 614 1700 614 1700 704.5 1737 c 128,-1,8
 795 1774 795 1774 944 1774 c 1,9,-1
 944 1473 l 1,10,11
 875 1473 875 1473 846.5 1436 c 128,-1,12
 818 1399 818 1399 798 1319 c 2,13,-1
 623 589 l 1,14,-1
 623 0 l 1,15,-1
 289 0 l 1,0,-1
EndSplineSet
Position2: "'cpsp' Espaciado de may+APoA-sculas en Latin b+APoA-squeda 0 subtabla" dx=5 dy=0 dh=10 dv=0
EndChar

StartChar: uni024E
Encoding: 590 590 354
Width: 913
GlyphClass: 2
Flags: W
AnchorPoint: "Anclaje-7" 457 0 basechar 0
AnchorPoint: "Anclaje-5" 456 1760 basechar 0
LayerCount: 2
Fore
SplineSet
291 0 m 1,0,-1
 291 579 l 1,1,-1
 170 1086 l 1,2,-1
 16 1086 l 1,3,-1
 16 1306 l 1,4,-1
 118 1306 l 1,5,-1
 10 1760 l 1,6,-1
 359 1760 l 1,7,-1
 457 1164 l 1,8,-1
 555 1760 l 1,9,-1
 903 1760 l 1,10,-1
 795 1306 l 1,11,-1
 897 1306 l 1,12,-1
 897 1086 l 1,13,-1
 743 1086 l 1,14,-1
 623 579 l 1,15,-1
 623 0 l 1,16,-1
 291 0 l 1,0,-1
EndSplineSet
Position2: "'cpsp' Espaciado de may+APoA-sculas en Latin b+APoA-squeda 0 subtabla" dx=5 dy=0 dh=10 dv=0
EndChar

StartChar: Z
Encoding: 90 90 356
Width: 840
GlyphClass: 2
Flags: W
AnchorPoint: "Anclaje-7" 420 0 basechar 0
AnchorPoint: "Anclaje-6" 439 1760 basechar 0
LayerCount: 2
Fore
SplineSet
32 0 m 1,0,-1
 32 320 l 1,1,-1
 435 1436 l 1,2,-1
 71 1436 l 1,3,-1
 71 1760 l 1,4,-1
 806 1760 l 1,5,-1
 806 1452 l 1,6,-1
 396 324 l 1,7,-1
 789 324 l 1,8,-1
 789 0 l 1,9,-1
 32 0 l 1,0,-1
EndSplineSet
Substitution2: "'c2sc' May+APoA-sculas a min+APoA-sculas en Latin b+APoA-squeda 32 subtabla" z.sc
Substitution2: "'aalt' Activar todas las variantes en Latin b+APoA-squeda 0 subtabla" z.sc
Position2: "'cpsp' Espaciado de may+APoA-sculas en Latin b+APoA-squeda 0 subtabla" dx=5 dy=0 dh=10 dv=0
EndChar

StartChar: uni01B5
Encoding: 437 437 363
Width: 840
GlyphClass: 2
Flags: W
AnchorPoint: "Anclaje-7" 420 0 basechar 0
AnchorPoint: "Anclaje-6" 439 1760 basechar 0
LayerCount: 2
Fore
SplineSet
32 0 m 1,0,-1
 32 320 l 1,1,-1
 199 782 l 1,2,-1
 95 782 l 1,3,-1
 95 1014 l 1,4,-1
 283 1014 l 1,5,-1
 435 1436 l 1,6,-1
 71 1436 l 1,7,-1
 71 1760 l 1,8,-1
 806 1760 l 1,9,-1
 806 1452 l 1,10,-1
 647 1014 l 1,11,-1
 755 1014 l 1,12,-1
 755 782 l 1,13,-1
 562 782 l 1,14,-1
 396 324 l 1,15,-1
 789 324 l 1,16,-1
 789 0 l 1,17,-1
 32 0 l 1,0,-1
EndSplineSet
Position2: "'cpsp' Espaciado de may+APoA-sculas en Latin b+APoA-squeda 0 subtabla" dx=5 dy=0 dh=10 dv=0
EndChar

StartChar: a
Encoding: 97 97 364
Width: 990
GlyphClass: 2
Flags: W
AnchorPoint: "Anclaje-7" 494 0 basechar 0
AnchorPoint: "Anclaje-6" 503 1516 basechar 0
AnchorPoint: "Anclaje-5" 503 1500 basechar 0
AnchorPoint: "Anclaje-3" 755 0 basechar 0
LayerCount: 2
Fore
SplineSet
345 -16 m 0,0,1
 220 -16 220 -16 154.5 42 c 128,-1,2
 89 100 89 100 65 201 c 128,-1,3
 41 302 41 302 41 430 c 0,4,5
 41 567 41 567 68 654.5 c 128,-1,6
 95 742 95 742 160.5 798 c 128,-1,7
 226 854 226 854 341 893 c 2,8,-1
 563 969 l 1,9,-1
 563 1123 l 2,10,11
 563 1244 563 1244 484 1244 c 0,12,13
 412 1244 412 1244 412 1146 c 2,14,-1
 412 1056 l 1,15,-1
 64 1056 l 1,16,17
 63 1064 63 1064 63 1076.5 c 128,-1,18
 63 1089 63 1089 63 1105 c 0,19,20
 63 1329 63 1329 168.5 1422.5 c 128,-1,21
 274 1516 274 1516 503 1516 c 0,22,23
 623 1516 623 1516 718 1473.5 c 128,-1,24
 813 1431 813 1431 868.5 1348 c 128,-1,25
 924 1265 924 1265 924 1143 c 2,26,-1
 924 0 l 1,27,-1
 568 0 l 1,28,-1
 568 178 l 1,29,30
 542 84 542 84 482 34 c 128,-1,31
 422 -16 422 -16 345 -16 c 0,0,1
486 262 m 0,32,33
 530 262 530 262 546 299 c 128,-1,34
 562 336 562 336 562 379 c 2,35,-1
 562 797 l 1,36,37
 488 767 488 767 447 721.5 c 128,-1,38
 406 676 406 676 406 588 c 2,39,-1
 406 395 l 2,40,41
 406 262 406 262 486 262 c 0,32,33
EndSplineSet
Substitution2: "'smcp' Min+APoA-sculas a may+APoA-sculas peque+APEA-as en Latin b+APoA-squeda 33 subtabla" a.sc
Substitution2: "Single Substitution b+APoA-squeda 24 subtabla" ordfeminine
AlternateSubs2: "'aalt' Activar todas las variantes en Latin b+APoA-squeda 1 subtabla" a.sc ordfeminine
EndChar

StartChar: a.sc
Encoding: 65539 -1 365
Width: 994
GlyphClass: 2
Flags: W
AnchorPoint: "Anclaje-7" 497 0 basechar 0
AnchorPoint: "Anclaje-5" 497 1590 basechar 0
AnchorPoint: "Anclaje-3" 790 0 basechar 0
LayerCount: 2
Fore
SplineSet
30 0 m 1,0,-1
 200 1560 l 1,1,-1
 797 1560 l 1,2,-1
 964 0 l 1,3,-1
 631 0 l 1,4,-1
 608 284 l 1,5,-1
 392 284 l 1,6,-1
 372 0 l 1,7,-1
 30 0 l 1,0,-1
486 1280 m 1,8,-1
 421 565 l 1,9,-1
 575 565 l 1,10,-1
 502 1280 l 1,11,-1
 486 1280 l 1,8,-1
EndSplineSet
EndChar

StartChar: acute
Encoding: 180 180 394
Width: 650
GlyphClass: 1
Flags: W
LayerCount: 2
Fore
SplineSet
91 1553 m 1,0,-1
 91 1776 l 1,1,-1
 566 1994 l 1,2,-1
 566 1647 l 1,3,-1
 91 1553 l 1,0,-1
EndSplineSet
Substitution2: "'smcp' Min+APoA-sculas a may+APoA-sculas peque+APEA-as en Latin b+APoA-squeda 33 subtabla" acute.sc
Substitution2: "'c2sc' May+APoA-sculas a min+APoA-sculas en Latin b+APoA-squeda 32 subtabla" acute.sc
Substitution2: "'aalt' Activar todas las variantes en Latin b+APoA-squeda 0 subtabla" acute.sc
EndChar

StartChar: acute.sc
Encoding: 65554 -1 395
Width: 0
GlyphClass: 2
Flags: W
AnchorPoint: "Anclaje-5" -1 1963 basechar 0
LayerCount: 2
Fore
SplineSet
-238 1553 m 1,0,-1
 -238 1776 l 1,1,-1
 237 1994 l 1,2,-1
 237 1647 l 1,3,-1
 -238 1553 l 1,0,-1
EndSplineSet
EndChar

StartChar: acutecomb
Encoding: 769 769 396
Width: 0
GlyphClass: 4
Flags: W
AnchorPoint: "Anclaje-14" -1 1963 basemark 0
AnchorPoint: "Anclaje-13" -1 1500 mark 0
AnchorPoint: "Anclaje-8" -1 1500 mark 0
AnchorPoint: "Anclaje-6" -1 1500 mark 0
LayerCount: 2
Fore
SplineSet
-238 1553 m 1,0,-1
 -238 1776 l 1,1,-1
 237 1994 l 1,2,-1
 237 1647 l 1,3,-1
 -238 1553 l 1,0,-1
EndSplineSet
Substitution2: "'case' Formas sensible a may+APoA-sculas en Latin b+APoA-squeda 26 subtabla" acutecomb.case
Substitution2: "Single Substitution b+APoA-squeda 7 subtabla" acutecomb.case
Substitution2: "Single Substitution b+APoA-squeda 6 subtabla" acutecomb.case
Substitution2: "Single Substitution b+APoA-squeda 4 subtabla" acutecomb.case
Substitution2: "Single Substitution b+APoA-squeda 3 subtabla" acutecomb.case
Substitution2: "'aalt' Activar todas las variantes en Latin b+APoA-squeda 0 subtabla" acutecomb.case
EndChar

StartChar: acutecomb.case
Encoding: 65555 -1 397
Width: 0
GlyphClass: 4
Flags: W
AnchorPoint: "Anclaje-14" -1 1873 basemark 0
AnchorPoint: "Anclaje-14" -1 1500 mark 0
AnchorPoint: "Anclaje-5" -1 1500 mark 0
LayerCount: 2
Fore
SplineSet
-238 1537 m 1,0,-1
 -238 1730 l 1,1,-1
 237 1898 l 1,2,-1
 237 1611 l 1,3,-1
 -238 1537 l 1,0,-1
EndSplineSet
EndChar

StartChar: uni03010304
Encoding: 65556 -1 398
Width: 0
GlyphClass: 4
Flags: W
AnchorPoint: "Anclaje-13" -1 2175 basemark 0
AnchorPoint: "Anclaje-13" -1 1500 mark 0
AnchorPoint: "Anclaje-8" -1 1500 mark 0
AnchorPoint: "Anclaje-6" -1 1500 mark 0
LayerCount: 2
Fore
SplineSet
-326 2022 m 1,0,-1
 -326 2175 l 1,1,-1
 324 2175 l 1,2,-1
 324 2022 l 1,3,-1
 -326 2022 l 1,0,-1
-238 1553 m 1,4,-1
 -238 1776 l 1,5,-1
 237 1994 l 1,6,-1
 237 1647 l 1,7,-1
 -238 1553 l 1,4,-1
EndSplineSet
Ligature2: "'ccmp' Composici+APMA-n/descomposici+APMA-n de glifos en Latin b+APoA-squeda 8 subtabla" acutecomb uni0304
EndChar

StartChar: uni1DC7
Encoding: 7623 7623 399
Width: 0
GlyphClass: 4
Flags: W
AnchorPoint: "Anclaje-13" -1 2175 basemark 0
AnchorPoint: "Anclaje-13" -1 1500 mark 0
AnchorPoint: "Anclaje-8" -1 1500 mark 0
AnchorPoint: "Anclaje-6" -1 1500 mark 0
LayerCount: 2
Fore
SplineSet
-326 2022 m 1,0,-1
 -326 2175 l 1,1,-1
 324 2175 l 1,2,-1
 324 2022 l 1,3,-1
 -326 2022 l 1,0,-1
-238 1553 m 1,4,-1
 -238 1776 l 1,5,-1
 237 1994 l 1,6,-1
 237 1647 l 1,7,-1
 -238 1553 l 1,4,-1
EndSplineSet
EndChar

StartChar: ae
Encoding: 230 230 409
Width: 1497
GlyphClass: 2
Flags: W
AnchorPoint: "Anclaje-6" 748 1500 basechar 0
LayerCount: 2
Fore
SplineSet
449 -18 m 0,0,1
 249 -18 249 -18 143.5 102.5 c 128,-1,2
 38 223 38 223 38 430 c 0,3,4
 38 595 38 595 77 687.5 c 128,-1,5
 116 780 116 780 192.5 830.5 c 128,-1,6
 269 881 269 881 380 919 c 2,7,-1
 560 980 l 1,8,-1
 560 1083 l 2,9,10
 560 1165 560 1165 542 1202 c 128,-1,11
 524 1239 524 1239 483 1239 c 0,12,13
 409 1239 409 1239 409 1157 c 2,14,-1
 409 1056 l 1,15,-1
 61 1056 l 1,16,17
 60 1064 60 1064 60 1076.5 c 128,-1,18
 60 1089 60 1089 60 1105 c 0,19,20
 60 1329 60 1329 158.5 1423.5 c 128,-1,21
 257 1518 257 1518 441 1518 c 0,22,23
 568 1518 568 1518 637 1487.5 c 128,-1,24
 706 1457 706 1457 747 1396 c 1,25,26
 787 1457 787 1457 857.5 1487.5 c 128,-1,27
 928 1518 928 1518 1044 1518 c 0,28,29
 1238 1518 1238 1518 1342 1411.5 c 128,-1,30
 1446 1305 1446 1305 1446 1092 c 2,31,-1
 1446 983 l 2,32,33
 1446 882 1446 882 1445 812 c 128,-1,34
 1444 742 1444 742 1442 704 c 1,35,-1
 921 704 l 1,36,-1
 921 494 l 2,37,38
 921 370 921 370 942 315 c 128,-1,39
 963 260 963 260 1012 260 c 0,40,41
 1056 260 1056 260 1073 301 c 128,-1,42
 1090 342 1090 342 1090 453 c 2,43,-1
 1090 579 l 1,44,-1
 1446 579 l 1,45,-1
 1446 494 l 2,46,47
 1446 333 1446 333 1410.5 218.5 c 128,-1,48
 1375 104 1375 104 1286 43 c 128,-1,49
 1197 -18 1197 -18 1036 -18 c 0,50,51
 931 -18 931 -18 855 29.5 c 128,-1,52
 779 77 779 77 748 148 c 1,53,54
 714 75 714 75 637.5 28.5 c 128,-1,55
 561 -18 561 -18 449 -18 c 0,0,1
921 931 m 1,56,-1
 1090 931 l 1,57,-1
 1090 1087 l 2,58,59
 1090 1249 1090 1249 1010 1249 c 0,60,61
 943 1249 943 1249 932 1193.5 c 128,-1,62
 921 1138 921 1138 921 1052 c 2,63,-1
 921 931 l 1,56,-1
483 262 m 0,64,65
 527 262 527 262 543 299 c 128,-1,66
 559 336 559 336 559 379 c 2,67,-1
 559 774 l 1,68,69
 485 744 485 744 444 701 c 128,-1,70
 403 658 403 658 403 570 c 2,71,-1
 403 395 l 2,72,73
 403 262 403 262 483 262 c 0,64,65
EndSplineSet
Substitution2: "'smcp' Min+APoA-sculas a may+APoA-sculas peque+APEA-as en Latin b+APoA-squeda 33 subtabla" ae.sc
Substitution2: "'aalt' Activar todas las variantes en Latin b+APoA-squeda 0 subtabla" ae.sc
EndChar

StartChar: ae.sc
Encoding: 65560 -1 410
Width: 1311
GlyphClass: 2
Flags: W
AnchorPoint: "Anclaje-7" 656 0 basechar 0
AnchorPoint: "Anclaje-5" 726 1590 basechar 0
LayerCount: 2
Fore
SplineSet
-44 0 m 1,0,-1
 277 1560 l 1,1,-1
 1249 1560 l 1,2,-1
 1249 1251 l 1,3,-1
 963 1251 l 1,4,-1
 963 954 l 1,5,-1
 1235 954 l 1,6,-1
 1235 655 l 1,7,-1
 963 655 l 1,8,-1
 963 312 l 1,9,-1
 1272 312 l 1,10,-1
 1272 0 l 1,11,-1
 623 0 l 1,12,-1
 623 404 l 1,13,-1
 416 404 l 1,14,-1
 337 0 l 1,15,-1
 -44 0 l 1,0,-1
462 694 m 1,16,-1
 623 694 l 1,17,-1
 623 1261 l 1,18,-1
 571 1261 l 1,19,-1
 462 694 l 1,16,-1
EndSplineSet
EndChar

StartChar: uni0251
Encoding: 593 593 420
Width: 1028
GlyphClass: 1
Flags: W
LayerCount: 2
Fore
SplineSet
367 -16 m 0,0,1
 263 -16 263 -16 201.5 22 c 128,-1,2
 140 60 140 60 109.5 127 c 128,-1,3
 79 194 79 194 69.5 284 c 128,-1,4
 60 374 60 374 60 477 c 2,5,-1
 60 1023 l 2,6,7
 60 1127 60 1127 69.5 1216.5 c 128,-1,8
 79 1306 79 1306 109.5 1373 c 128,-1,9
 140 1440 140 1440 201.5 1478 c 128,-1,10
 263 1516 263 1516 367 1516 c 0,11,12
 461 1516 461 1516 510.5 1469 c 128,-1,13
 560 1422 560 1422 590 1341 c 1,14,-1
 590 1500 l 1,15,-1
 948 1500 l 1,16,-1
 948 432 l 2,17,18
 948 347 948 347 969.5 323.5 c 128,-1,19
 991 300 991 300 1028 300 c 1,20,-1
 1028 -16 l 1,21,22
 738 -16 738 -16 618 144 c 1,23,24
 586 79 586 79 529 31.5 c 128,-1,25
 472 -16 472 -16 367 -16 c 0,0,1
504 264 m 0,26,27
 551 264 551 264 570.5 311 c 128,-1,28
 590 358 590 358 590 452 c 2,29,-1
 590 1060 l 2,30,31
 590 1152 590 1152 569 1194 c 128,-1,32
 548 1236 548 1236 504 1236 c 0,33,34
 461 1236 461 1236 439.5 1194 c 128,-1,35
 418 1152 418 1152 418 1058 c 2,36,-1
 418 452 l 2,37,38
 418 264 418 264 504 264 c 0,26,27
EndSplineSet
EndChar

StartChar: ampersand
Encoding: 38 38 423
Width: 1065
GlyphClass: 1
Flags: W
LayerCount: 2
Fore
SplineSet
386 -21 m 0,0,1
 222 -21 222 -21 128.5 106 c 128,-1,2
 35 233 35 233 35 456 c 0,3,4
 35 615 35 615 63.5 720 c 128,-1,5
 92 825 92 825 143 895 c 128,-1,6
 194 965 194 965 260 1017 c 1,7,-1
 252 1037 l 2,8,9
 210 1141 210 1141 178.5 1235.5 c 128,-1,10
 147 1330 147 1330 147 1430 c 0,11,12
 147 1531 147 1531 190 1609 c 128,-1,13
 233 1687 233 1687 309.5 1731.5 c 128,-1,14
 386 1776 386 1776 485 1776 c 0,15,16
 583 1776 583 1776 663.5 1733.5 c 128,-1,17
 744 1691 744 1691 792 1606 c 128,-1,18
 840 1521 840 1521 840 1391 c 0,19,20
 840 1250 840 1250 787.5 1155 c 128,-1,21
 735 1060 735 1060 630 972 c 1,22,-1
 726 730 l 1,23,24
 785 879 785 879 896 961 c 1,25,-1
 1035 744 l 1,26,27
 919 651 919 651 841 441 c 1,28,-1
 1017 0 l 1,29,-1
 677 0 l 1,30,-1
 638 95 l 1,31,32
 599 47 599 47 533.5 13 c 128,-1,33
 468 -21 468 -21 386 -21 c 0,0,1
461 1461 m 256,34,35
 461 1435 461 1435 474 1384.5 c 128,-1,36
 487 1334 487 1334 535 1210 c 1,37,38
 554 1230 554 1230 569 1273 c 128,-1,39
 584 1316 584 1316 584 1391 c 0,40,41
 584 1468 584 1468 565.5 1499 c 128,-1,42
 547 1530 547 1530 517 1530 c 0,43,44
 488 1530 488 1530 474.5 1508.5 c 128,-1,45
 461 1487 461 1487 461 1461 c 256,34,35
341 413 m 2,46,47
 341 235 341 235 442 235 c 0,48,49
 483 235 483 235 508 265.5 c 128,-1,50
 533 296 533 296 542 329 c 1,51,-1
 374 738 l 1,52,53
 341 668 341 668 341 493 c 2,54,-1
 341 413 l 2,46,47
EndSplineSet
Substitution2: "'smcp' Min+APoA-sculas a may+APoA-sculas peque+APEA-as en Latin b+APoA-squeda 33 subtabla" ampersand.sc
Substitution2: "'c2sc' May+APoA-sculas a min+APoA-sculas en Latin b+APoA-squeda 32 subtabla" ampersand.sc
Substitution2: "'aalt' Activar todas las variantes en Latin b+APoA-squeda 0 subtabla" ampersand.sc
EndChar

StartChar: ampersand.sc
Encoding: 65566 -1 424
Width: 1035
GlyphClass: 1
Flags: W
LayerCount: 2
Fore
SplineSet
356 -21 m 0,0,1
 247 -21 247 -21 175.5 33.5 c 128,-1,2
 104 88 104 88 69.5 180 c 128,-1,3
 35 272 35 272 35 386 c 0,4,5
 35 592 35 592 94.5 712.5 c 128,-1,6
 154 833 154 833 273 921 c 1,7,8
 239 988 239 988 206 1080.5 c 128,-1,9
 173 1173 173 1173 173 1262 c 0,10,11
 173 1414 173 1414 272.5 1498 c 128,-1,12
 372 1582 372 1582 521 1582 c 0,13,14
 668 1582 668 1582 767 1502 c 128,-1,15
 866 1422 866 1422 866 1273 c 0,16,17
 866 1062 866 1062 631 875 c 1,18,-1
 694 726 l 1,19,20
 753 878 753 878 866 961 c 1,21,-1
 1005 744 l 1,22,23
 887 650 887 650 808 432 c 1,24,-1
 987 0 l 1,25,-1
 647 0 l 1,26,-1
 610 97 l 1,27,28
 571 48 571 48 505 13.5 c 128,-1,29
 439 -21 439 -21 356 -21 c 0,0,1
540 1110 m 1,30,-1
 557 1128 l 2,31,32
 576 1148 576 1148 593 1190.5 c 128,-1,33
 610 1233 610 1233 610 1273 c 0,34,35
 610 1336 610 1336 551 1336 c 0,36,37
 526 1336 526 1336 511.5 1317.5 c 128,-1,38
 497 1299 497 1299 497 1273 c 0,39,40
 497 1218 497 1218 540 1110 c 1,30,-1
412 235 m 0,41,42
 455 235 455 235 480 267.5 c 128,-1,43
 505 300 505 300 513 334 c 1,44,-1
 391 625 l 1,45,46
 341 551 341 551 341 423 c 2,47,-1
 341 413 l 2,48,49
 341 377 341 377 344 335.5 c 128,-1,50
 347 294 347 294 362 264.5 c 128,-1,51
 377 235 377 235 412 235 c 0,41,42
EndSplineSet
EndChar

StartChar: uni02BC
Encoding: 700 700 427
Width: 600
GlyphClass: 1
Flags: W
LayerCount: 2
Fore
SplineSet
183 966 m 1,0,-1
 249 1202 l 1,1,-1
 122 1202 l 1,2,-1
 122 1500 l 1,3,-1
 496 1500 l 1,4,-1
 496 1211 l 1,5,-1
 394 966 l 1,6,-1
 183 966 l 1,0,-1
EndSplineSet
EndChar

StartChar: approxequal
Encoding: 8776 8776 428
Width: 1009
GlyphClass: 1
Flags: W
LayerCount: 2
Fore
SplineSet
732 810 m 0,0,1
 662 810 662 810 603.5 824 c 128,-1,2
 545 838 545 838 483 862 c 0,3,4
 422 886 422 886 381.5 898 c 128,-1,5
 341 910 341 910 313 910 c 0,6,7
 284 910 284 910 259 893.5 c 128,-1,8
 234 877 234 877 212 835 c 1,9,-1
 50 921 l 1,10,11
 77 987 77 987 110 1042.5 c 128,-1,12
 143 1098 143 1098 192.5 1131 c 128,-1,13
 242 1164 242 1164 320 1164 c 0,14,15
 400 1164 400 1164 453.5 1151.5 c 128,-1,16
 507 1139 507 1139 574 1113 c 0,17,18
 633 1091 633 1091 664.5 1082 c 128,-1,19
 696 1073 696 1073 720 1073 c 0,20,21
 750 1073 750 1073 775 1091 c 128,-1,22
 800 1109 800 1109 822 1155 c 1,23,-1
 1004 1095 l 1,24,25
 977 1022 977 1022 945.5 956.5 c 128,-1,26
 914 891 914 891 864.5 850.5 c 128,-1,27
 815 810 815 810 732 810 c 0,0,1
732 340 m 0,28,29
 662 340 662 340 603.5 354 c 128,-1,30
 545 368 545 368 483 392 c 0,31,32
 422 416 422 416 381.5 428 c 128,-1,33
 341 440 341 440 313 440 c 0,34,35
 284 440 284 440 259 423.5 c 128,-1,36
 234 407 234 407 212 365 c 1,37,-1
 50 451 l 1,38,39
 77 517 77 517 110 572.5 c 128,-1,40
 143 628 143 628 192.5 661 c 128,-1,41
 242 694 242 694 320 694 c 0,42,43
 400 694 400 694 453.5 681.5 c 128,-1,44
 507 669 507 669 574 643 c 0,45,46
 633 621 633 621 664.5 612 c 128,-1,47
 696 603 696 603 720 603 c 0,48,49
 750 603 750 603 775 621 c 128,-1,50
 800 639 800 639 822 685 c 1,51,-1
 1004 625 l 1,52,53
 977 552 977 552 945.5 486.5 c 128,-1,54
 914 421 914 421 864.5 380.5 c 128,-1,55
 815 340 815 340 732 340 c 0,28,29
EndSplineSet
EndChar

StartChar: asciicircum
Encoding: 94 94 434
Width: 970
GlyphClass: 1
Flags: W
LayerCount: 2
Fore
SplineSet
40 432 m 1,0,-1
 281 1355 l 1,1,-1
 689 1355 l 1,2,-1
 930 432 l 1,3,-1
 571 432 l 1,4,-1
 485 1027 l 1,5,-1
 399 432 l 1,6,-1
 40 432 l 1,0,-1
EndSplineSet
EndChar

StartChar: asciitilde
Encoding: 126 126 435
Width: 1009
GlyphClass: 1
Flags: W
LayerCount: 2
Fore
SplineSet
732 810 m 0,0,1
 662 810 662 810 603.5 824 c 128,-1,2
 545 838 545 838 483 862 c 0,3,4
 422 886 422 886 381.5 898 c 128,-1,5
 341 910 341 910 313 910 c 0,6,7
 284 910 284 910 259 893.5 c 128,-1,8
 234 877 234 877 212 835 c 1,9,-1
 50 921 l 1,10,11
 77 987 77 987 110 1042.5 c 128,-1,12
 143 1098 143 1098 192.5 1131 c 128,-1,13
 242 1164 242 1164 320 1164 c 0,14,15
 400 1164 400 1164 453.5 1151.5 c 128,-1,16
 507 1139 507 1139 574 1113 c 0,17,18
 633 1091 633 1091 664.5 1082 c 128,-1,19
 696 1073 696 1073 720 1073 c 0,20,21
 750 1073 750 1073 775 1091 c 128,-1,22
 800 1109 800 1109 822 1155 c 1,23,-1
 1004 1095 l 1,24,25
 977 1022 977 1022 945.5 956.5 c 128,-1,26
 914 891 914 891 864.5 850.5 c 128,-1,27
 815 810 815 810 732 810 c 0,0,1
EndSplineSet
EndChar

StartChar: asterisk
Encoding: 42 42 436
Width: 926
GlyphClass: 1
Flags: W
LayerCount: 2
Fore
SplineSet
347 741 m 1,0,-1
 391 1043 l 1,1,-1
 152 854 l 1,2,-1
 36 1054 l 1,3,-1
 310 1171 l 1,4,-1
 36 1280 l 1,5,-1
 152 1480 l 1,6,-1
 390 1301 l 1,7,-1
 347 1593 l 1,8,-1
 579 1593 l 1,9,-1
 544 1307 l 1,10,-1
 774 1480 l 1,11,-1
 890 1280 l 1,12,-1
 615 1171 l 1,13,-1
 890 1054 l 1,14,-1
 774 854 l 1,15,-1
 543 1036 l 1,16,-1
 579 741 l 1,17,-1
 347 741 l 1,0,-1
EndSplineSet
EndChar

StartChar: uni2C65
Encoding: 11365 11365 437
Width: 990
GlyphClass: 2
Flags: W
AnchorPoint: "Anclaje-7" 494 0 basechar 0
AnchorPoint: "Anclaje-6" 503 1516 basechar 0
AnchorPoint: "Anclaje-5" 503 1500 basechar 0
AnchorPoint: "Anclaje-3" 755 0 basechar 0
LayerCount: 2
Fore
SplineSet
101 -186 m 1,0,-1
 159 39 l 1,1,2
 89 95 89 95 65 197.5 c 128,-1,3
 41 300 41 300 41 430 c 0,4,5
 41 567 41 567 68 654.5 c 128,-1,6
 95 742 95 742 160.5 798 c 128,-1,7
 226 854 226 854 341 893 c 2,8,-1
 563 969 l 1,9,-1
 563 1123 l 2,10,11
 563 1244 563 1244 484 1244 c 0,12,13
 412 1244 412 1244 412 1146 c 2,14,-1
 412 1056 l 1,15,-1
 64 1056 l 1,16,17
 63 1064 63 1064 63 1076.5 c 128,-1,18
 63 1089 63 1089 63 1105 c 0,19,20
 63 1329 63 1329 168.5 1422.5 c 128,-1,21
 274 1516 274 1516 503 1516 c 0,22,23
 524 1516 524 1516 544 1515 c 1,24,-1
 606 1760 l 1,25,-1
 746 1760 l 1,26,-1
 678 1490 l 1,27,28
 789 1453 789 1453 856.5 1365.5 c 128,-1,29
 924 1278 924 1278 924 1143 c 2,30,-1
 924 0 l 1,31,-1
 568 0 l 1,32,-1
 568 178 l 1,33,34
 542 84 542 84 482 34 c 128,-1,35
 422 -16 422 -16 345 -16 c 0,36,37
 314 -16 314 -16 286 -12 c 1,38,-1
 241 -186 l 1,39,-1
 101 -186 l 1,0,-1
486 262 m 0,40,41
 530 262 530 262 546 299 c 128,-1,42
 562 336 562 336 562 379 c 2,43,-1
 562 797 l 1,44,45
 488 767 488 767 447 721.5 c 128,-1,46
 406 676 406 676 406 588 c 2,47,-1
 406 395 l 2,48,49
 406 262 406 262 486 262 c 0,40,41
EndSplineSet
EndChar

StartChar: at
Encoding: 64 64 438
Width: 1770
GlyphClass: 1
Flags: W
LayerCount: 2
Fore
SplineSet
919 -158 m 0,0,1
 742 -158 742 -158 587.5 -106.5 c 128,-1,2
 433 -55 433 -55 315 56.5 c 128,-1,3
 197 168 197 168 130.5 346 c 128,-1,4
 64 524 64 524 64 777 c 0,5,6
 64 1091 64 1091 167 1314.5 c 128,-1,7
 270 1538 270 1538 463.5 1657 c 128,-1,8
 657 1776 657 1776 928 1776 c 0,9,10
 1186 1776 1186 1776 1360.5 1669 c 128,-1,11
 1535 1562 1535 1562 1623.5 1361.5 c 128,-1,12
 1712 1161 1712 1161 1712 882 c 0,13,14
 1712 590 1712 590 1623 433.5 c 128,-1,15
 1534 277 1534 277 1329 277 c 0,16,17
 1182 277 1182 277 1112 337.5 c 128,-1,18
 1042 398 1042 398 1007 491 c 1,19,20
 989 400 989 400 940.5 342.5 c 128,-1,21
 892 285 892 285 810 285 c 0,22,23
 711 285 711 285 644 353.5 c 128,-1,24
 577 422 577 422 543.5 533.5 c 128,-1,25
 510 645 510 645 510 774 c 0,26,27
 510 918 510 918 536.5 1037.5 c 128,-1,28
 563 1157 563 1157 626 1228 c 128,-1,29
 689 1299 689 1299 798 1299 c 0,30,31
 870 1299 870 1299 917.5 1260.5 c 128,-1,32
 965 1222 965 1222 1002 1159 c 1,33,-1
 1041 1290 l 1,34,-1
 1267 1290 l 1,35,-1
 1267 650 l 2,36,37
 1267 572 1267 572 1291 538.5 c 128,-1,38
 1315 505 1315 505 1356 505 c 0,39,40
 1422 505 1422 505 1444 600 c 128,-1,41
 1466 695 1466 695 1466 877 c 0,42,43
 1466 1082 1466 1082 1417 1229.5 c 128,-1,44
 1368 1377 1368 1377 1255.5 1456.5 c 128,-1,45
 1143 1536 1143 1536 950 1536 c 0,46,47
 655 1536 655 1536 502.5 1339 c 128,-1,48
 350 1142 350 1142 350 774 c 0,49,50
 350 427 350 427 509.5 252.5 c 128,-1,51
 669 78 669 78 934 78 c 0,52,53
 1041 78 1041 78 1200 99 c 1,54,-1
 1231 -127 l 1,55,56
 1054 -158 1054 -158 919 -158 c 0,0,1
903 532 m 0,57,58
 949 532 949 532 965.5 579.5 c 128,-1,59
 982 627 982 627 982 682 c 2,60,-1
 982 1074 l 1,61,62
 920 1074 920 1074 884.5 1049 c 128,-1,63
 849 1024 849 1024 834.5 961 c 128,-1,64
 820 898 820 898 820 783 c 0,65,66
 820 724 820 724 827 666 c 128,-1,67
 834 608 834 608 852.5 570 c 128,-1,68
 871 532 871 532 903 532 c 0,57,58
EndSplineSet
Substitution2: "'case' Formas sensible a may+APoA-sculas en Latin b+APoA-squeda 26 subtabla" at.case
Substitution2: "'aalt' Activar todas las variantes en Latin b+APoA-squeda 0 subtabla" at.case
EndChar

StartChar: b
Encoding: 98 98 442
Width: 1027
GlyphClass: 2
Flags: W
AnchorPoint: "Anclaje-7" 514 0 basechar 0
AnchorPoint: "Anclaje-6" 256 1760 basechar 0
LayerCount: 2
Fore
SplineSet
671 -16 m 0,0,1
 583 -16 583 -16 528 27.5 c 128,-1,2
 473 71 473 71 440 160 c 1,3,-1
 440 0 l 1,4,-1
 76 0 l 1,5,-1
 76 1760 l 1,6,-1
 440 1760 l 1,7,-1
 440 1340 l 1,8,9
 473 1423 473 1423 531.5 1469.5 c 128,-1,10
 590 1516 590 1516 699 1516 c 0,11,12
 846 1516 846 1516 906.5 1409 c 128,-1,13
 967 1302 967 1302 967 1129 c 2,14,-1
 967 391 l 2,15,16
 967 276 967 276 935.5 183.5 c 128,-1,17
 904 91 904 91 838.5 37.5 c 128,-1,18
 773 -16 773 -16 671 -16 c 0,0,1
523 263 m 256,19,20
 580 263 580 263 592 319 c 128,-1,21
 604 375 604 375 604 457 c 2,22,-1
 604 1043 l 2,23,24
 604 1126 604 1126 592 1181.5 c 128,-1,25
 580 1237 580 1237 524 1237 c 0,26,27
 466 1237 466 1237 453 1180.5 c 128,-1,28
 440 1124 440 1124 440 1043 c 2,29,-1
 440 457 l 2,30,31
 440 376 440 376 453 319.5 c 128,-1,32
 466 263 466 263 523 263 c 256,19,20
EndSplineSet
Substitution2: "'smcp' Min+APoA-sculas a may+APoA-sculas peque+APEA-as en Latin b+APoA-squeda 33 subtabla" b.sc
Substitution2: "'aalt' Activar todas las variantes en Latin b+APoA-squeda 0 subtabla" b.sc
EndChar

StartChar: b.sc
Encoding: 65572 -1 443
Width: 980
GlyphClass: 1
Flags: W
LayerCount: 2
Fore
SplineSet
78 0 m 1,0,-1
 78 1560 l 1,1,-1
 555 1560 l 2,2,3
 747 1560 747 1560 834.5 1466.5 c 128,-1,4
 922 1373 922 1373 922 1158 c 2,5,-1
 922 1124 l 2,6,7
 922 1000 922 1000 877.5 923 c 128,-1,8
 833 846 833 846 742 822 c 1,9,10
 821 802 821 802 864.5 746.5 c 128,-1,11
 908 691 908 691 925 611 c 128,-1,12
 942 531 942 531 942 437 c 0,13,14
 942 358 942 358 924.5 280.5 c 128,-1,15
 907 203 907 203 864.5 139.5 c 128,-1,16
 822 76 822 76 746.5 38 c 128,-1,17
 671 0 671 0 555 0 c 2,18,-1
 78 0 l 1,0,-1
422 947 m 1,19,-1
 494 947 l 2,20,21
 543 947 543 947 557 985 c 128,-1,22
 571 1023 571 1023 571 1076 c 2,23,-1
 571 1183 l 2,24,25
 571 1268 571 1268 496 1268 c 2,26,-1
 422 1268 l 1,27,-1
 422 947 l 1,19,-1
457 290 m 0,28,29
 594 290 594 290 594 420 c 2,30,-1
 594 510 l 2,31,32
 594 585 594 585 571.5 628.5 c 128,-1,33
 549 672 549 672 487 672 c 2,34,-1
 422 672 l 1,35,-1
 422 292 l 1,36,37
 430 291 430 291 439.5 290.5 c 128,-1,38
 449 290 449 290 457 290 c 0,28,29
EndSplineSet
EndChar

StartChar: backslash
Encoding: 92 92 444
Width: 830
GlyphClass: 1
Flags: W
LayerCount: 2
Fore
SplineSet
438 0 m 1,0,-1
 27 1767 l 1,1,-1
 391 1767 l 1,2,-1
 801 0 l 1,3,-1
 438 0 l 1,0,-1
EndSplineSet
Substitution2: "'case' Formas sensible a may+APoA-sculas en Latin b+APoA-squeda 26 subtabla" backslash.case
Substitution2: "'aalt' Activar todas las variantes en Latin b+APoA-squeda 0 subtabla" backslash.case
EndChar

StartChar: backslash.case
Encoding: 65573 -1 445
Width: 830
GlyphClass: 1
Flags: W
LayerCount: 2
Fore
SplineSet
438 0 m 1,0,-1
 27 1760 l 1,1,-1
 391 1760 l 1,2,-1
 801 0 l 1,3,-1
 438 0 l 1,0,-1
EndSplineSet
EndChar

StartChar: bar
Encoding: 124 124 446
Width: 443
GlyphClass: 1
Flags: W
LayerCount: 2
Fore
SplineSet
62 -84 m 1,0,-1
 62 1953 l 1,1,-1
 381 1953 l 1,2,-1
 381 -84 l 1,3,-1
 62 -84 l 1,0,-1
EndSplineSet
EndChar

StartChar: uniA7B5
Encoding: 42933 42933 449
Width: 1007
GlyphClass: 1
Flags: W
LayerCount: 2
Fore
SplineSet
58 -250 m 1,0,-1
 58 1412 l 2,1,2
 58 1776 58 1776 483 1776 c 0,3,4
 677 1776 677 1776 793 1692 c 128,-1,5
 909 1608 909 1608 909 1412 c 2,6,-1
 909 1295 l 2,7,8
 909 1190 909 1190 874.5 1118 c 128,-1,9
 840 1046 840 1046 759 1020 c 1,10,11
 886 990 886 990 927.5 871.5 c 128,-1,12
 969 753 969 753 969 559 c 0,13,14
 969 257 969 257 862 123.5 c 128,-1,15
 755 -10 755 -10 563 -10 c 0,16,17
 470 -10 470 -10 408 15 c 1,18,-1
 408 -250 l 1,19,-1
 58 -250 l 1,0,-1
408 314 m 2,20,21
 408 277 408 277 437 257 c 128,-1,22
 466 237 466 237 513 237 c 256,23,24
 560 237 560 237 590.5 261.5 c 128,-1,25
 621 286 621 286 621 336 c 2,26,-1
 621 731 l 2,27,28
 621 812 621 812 588.5 845 c 128,-1,29
 556 878 556 878 474 878 c 1,30,-1
 474 1126 l 1,31,32
 527 1126 527 1126 542.5 1160 c 128,-1,33
 558 1194 558 1194 558 1245 c 2,34,-1
 558 1453 l 2,35,36
 558 1529 558 1529 483 1529 c 256,37,38
 408 1529 408 1529 408 1453 c 2,39,-1
 408 314 l 2,20,21
EndSplineSet
EndChar

StartChar: uni0253
Encoding: 595 595 450
Width: 1027
GlyphClass: 1
Flags: W
LayerCount: 2
Fore
SplineSet
671 -16 m 0,0,1
 583 -16 583 -16 528 27.5 c 128,-1,2
 473 71 473 71 440 160 c 1,3,-1
 440 0 l 1,4,-1
 72 0 l 1,5,-1
 72 1328 l 2,6,7
 72 1459 72 1459 120.5 1560 c 128,-1,8
 169 1661 169 1661 273 1718.5 c 128,-1,9
 377 1776 377 1776 544 1776 c 1,10,-1
 544 1500 l 1,11,12
 488 1500 488 1500 464 1466.5 c 128,-1,13
 440 1433 440 1433 440 1368 c 2,14,-1
 440 1242 l 1,15,16
 473 1325 473 1325 531.5 1371.5 c 128,-1,17
 590 1418 590 1418 699 1418 c 0,18,19
 846 1418 846 1418 906.5 1311 c 128,-1,20
 967 1204 967 1204 967 1031 c 2,21,-1
 967 391 l 2,22,23
 967 276 967 276 935.5 183.5 c 128,-1,24
 904 91 904 91 838.5 37.5 c 128,-1,25
 773 -16 773 -16 671 -16 c 0,0,1
523 263 m 256,26,27
 580 263 580 263 592 319 c 128,-1,28
 604 375 604 375 604 457 c 2,29,-1
 604 945 l 2,30,31
 604 1028 604 1028 592 1083.5 c 128,-1,32
 580 1139 580 1139 524 1139 c 0,33,34
 466 1139 466 1139 453 1082.5 c 128,-1,35
 440 1026 440 1026 440 945 c 2,36,-1
 440 457 l 2,37,38
 440 376 440 376 453 319.5 c 128,-1,39
 466 263 466 263 523 263 c 256,26,27
EndSplineSet
EndChar

StartChar: uni0298
Encoding: 664 664 451
Width: 1017
GlyphClass: 1
Flags: W
LayerCount: 2
Fore
SplineSet
508 -16 m 0,0,1
 60 -16 60 -16 60 449 c 2,2,-1
 60 1051 l 2,3,4
 60 1263 60 1263 179 1389.5 c 128,-1,5
 298 1516 298 1516 508 1516 c 0,6,7
 719 1516 719 1516 838 1389.5 c 128,-1,8
 957 1263 957 1263 957 1051 c 2,9,-1
 957 449 l 2,10,11
 957 -16 957 -16 508 -16 c 0,0,1
508 260 m 256,12,13
 553 260 553 260 572.5 292.5 c 128,-1,14
 592 325 592 325 592 375 c 2,15,-1
 592 1108 l 2,16,17
 592 1239 592 1239 508 1239 c 256,18,19
 424 1239 424 1239 424 1108 c 2,20,-1
 424 375 l 2,21,22
 424 325 424 325 443.5 292.5 c 128,-1,23
 463 260 463 260 508 260 c 256,12,13
453 630 m 1,24,-1
 453 894 l 1,25,-1
 563 894 l 1,26,-1
 563 630 l 1,27,-1
 453 630 l 1,24,-1
EndSplineSet
EndChar

StartChar: uni25C6
Encoding: 9670 9670 452
Width: 1484
GlyphClass: 1
Flags: W
LayerCount: 2
Fore
SplineSet
742 52 m 1,0,-1
 40 756 l 1,1,-1
 742 1460 l 1,2,-1
 1444 756 l 1,3,-1
 742 52 l 1,0,-1
EndSplineSet
EndChar

StartChar: filledbox
Encoding: 9632 9632 453
Width: 1652
GlyphClass: 1
Flags: W
LayerCount: 2
Fore
SplineSet
78 0 m 1,0,-1
 78 1500 l 1,1,-1
 1574 1500 l 1,2,-1
 1574 0 l 1,3,-1
 78 0 l 1,0,-1
EndSplineSet
EndChar

StartChar: braceleft
Encoding: 123 123 455
Width: 696
GlyphClass: 1
Flags: W
LayerCount: 2
Fore
SplineSet
661 -188 m 1,0,1
 471 -184 471 -184 364 -150.5 c 128,-1,2
 257 -117 257 -117 213.5 -38 c 128,-1,3
 170 41 170 41 170 180 c 2,4,-1
 170 515 l 2,5,6
 170 615 170 615 146.5 662 c 128,-1,7
 123 709 123 709 31 719 c 1,8,-1
 31 916 l 1,9,10
 123 927 123 927 146.5 973.5 c 128,-1,11
 170 1020 170 1020 170 1120 c 2,12,-1
 170 1455 l 2,13,14
 170 1595 170 1595 213.5 1673.5 c 128,-1,15
 257 1752 257 1752 364 1785.5 c 128,-1,16
 471 1819 471 1819 661 1823 c 1,17,-1
 661 1556 l 1,18,19
 607 1552 607 1552 564.5 1538.5 c 128,-1,20
 522 1525 522 1525 522 1472 c 2,21,-1
 522 1097 l 2,22,23
 522 1001 522 1001 491.5 944.5 c 128,-1,24
 461 888 461 888 411 859.5 c 128,-1,25
 361 831 361 831 304 818 c 1,26,27
 361 805 361 805 411 776.5 c 128,-1,28
 461 748 461 748 491.5 691.5 c 128,-1,29
 522 635 522 635 522 538 c 2,30,-1
 522 163 l 2,31,32
 522 110 522 110 564.5 96.5 c 128,-1,33
 607 83 607 83 661 79 c 1,34,-1
 661 -188 l 1,0,1
EndSplineSet
Substitution2: "'case' Formas sensible a may+APoA-sculas en Latin b+APoA-squeda 26 subtabla" braceleft.case
Substitution2: "'aalt' Activar todas las variantes en Latin b+APoA-squeda 0 subtabla" braceleft.case
EndChar

StartChar: braceleft.case
Encoding: 65574 -1 456
Width: 696
GlyphClass: 1
Flags: W
LayerCount: 2
Fore
SplineSet
661 -10 m 1,0,1
 471 -6 471 -6 364 27.5 c 128,-1,2
 257 61 257 61 213.5 140 c 128,-1,3
 170 219 170 219 170 358 c 2,4,-1
 170 583 l 2,5,6
 170 683 170 683 146.5 730 c 128,-1,7
 123 777 123 777 31 787 c 1,8,-1
 31 984 l 1,9,10
 123 995 123 995 146.5 1041.5 c 128,-1,11
 170 1088 170 1088 170 1188 c 2,12,-1
 170 1402 l 2,13,14
 170 1542 170 1542 213.5 1620.5 c 128,-1,15
 257 1699 257 1699 364 1732.5 c 128,-1,16
 471 1766 471 1766 661 1770 c 1,17,-1
 661 1503 l 1,18,19
 607 1499 607 1499 564.5 1485.5 c 128,-1,20
 522 1472 522 1472 522 1419 c 2,21,-1
 522 1165 l 2,22,23
 522 1068 522 1068 491.5 1012 c 128,-1,24
 461 956 461 956 411 927.5 c 128,-1,25
 361 899 361 899 304 886 c 1,26,27
 361 873 361 873 411 844.5 c 128,-1,28
 461 816 461 816 491.5 759.5 c 128,-1,29
 522 703 522 703 522 606 c 2,30,-1
 522 341 l 2,31,32
 522 288 522 288 564.5 274.5 c 128,-1,33
 607 261 607 261 661 257 c 1,34,-1
 661 -10 l 1,0,1
EndSplineSet
EndChar

StartChar: braceright
Encoding: 125 125 457
Width: 697
GlyphClass: 1
Flags: W
LayerCount: 2
Fore
SplineSet
40 -188 m 1,0,-1
 40 79 l 1,1,2
 94 83 94 83 136.5 96.5 c 128,-1,3
 179 110 179 110 179 163 c 2,4,-1
 179 538 l 2,5,6
 179 635 179 635 209.5 691.5 c 128,-1,7
 240 748 240 748 290 776.5 c 128,-1,8
 340 805 340 805 397 818 c 1,9,10
 340 831 340 831 290 859.5 c 128,-1,11
 240 888 240 888 209.5 944 c 128,-1,12
 179 1000 179 1000 179 1097 c 2,13,-1
 179 1472 l 2,14,15
 179 1525 179 1525 136.5 1538.5 c 128,-1,16
 94 1552 94 1552 40 1556 c 1,17,-1
 40 1823 l 1,18,19
 230 1819 230 1819 337 1785.5 c 128,-1,20
 444 1752 444 1752 487.5 1673.5 c 128,-1,21
 531 1595 531 1595 531 1455 c 2,22,-1
 531 1120 l 2,23,24
 531 1020 531 1020 555 973.5 c 128,-1,25
 579 927 579 927 670 916 c 1,26,-1
 670 719 l 1,27,28
 579 709 579 709 555 662 c 128,-1,29
 531 615 531 615 531 515 c 2,30,-1
 531 180 l 2,31,32
 531 41 531 41 487.5 -38 c 128,-1,33
 444 -117 444 -117 337 -150.5 c 128,-1,34
 230 -184 230 -184 40 -188 c 1,0,-1
EndSplineSet
Substitution2: "'case' Formas sensible a may+APoA-sculas en Latin b+APoA-squeda 26 subtabla" braceright.case
Substitution2: "'aalt' Activar todas las variantes en Latin b+APoA-squeda 0 subtabla" braceright.case
EndChar

StartChar: braceright.case
Encoding: 65575 -1 458
Width: 696
GlyphClass: 1
Flags: W
LayerCount: 2
Fore
SplineSet
35 -10 m 1,0,-1
 35 257 l 1,1,2
 89 261 89 261 131.5 274.5 c 128,-1,3
 174 288 174 288 174 341 c 2,4,-1
 174 606 l 2,5,6
 174 703 174 703 204.5 759.5 c 128,-1,7
 235 816 235 816 285 844.5 c 128,-1,8
 335 873 335 873 392 886 c 1,9,10
 335 899 335 899 285 927.5 c 128,-1,11
 235 956 235 956 204.5 1012 c 128,-1,12
 174 1068 174 1068 174 1165 c 2,13,-1
 174 1419 l 2,14,15
 174 1472 174 1472 131.5 1485.5 c 128,-1,16
 89 1499 89 1499 35 1503 c 1,17,-1
 35 1770 l 1,18,19
 225 1766 225 1766 332 1732.5 c 128,-1,20
 439 1699 439 1699 482.5 1620.5 c 128,-1,21
 526 1542 526 1542 526 1402 c 2,22,-1
 526 1188 l 2,23,24
 526 1088 526 1088 550 1041.5 c 128,-1,25
 574 995 574 995 665 984 c 1,26,-1
 665 787 l 1,27,28
 574 777 574 777 550 730 c 128,-1,29
 526 683 526 683 526 583 c 2,30,-1
 526 358 l 2,31,32
 526 219 526 219 482.5 140 c 128,-1,33
 439 61 439 61 332 27.5 c 128,-1,34
 225 -6 225 -6 35 -10 c 1,0,-1
EndSplineSet
EndChar

StartChar: bracketleft
Encoding: 91 91 459
Width: 651
GlyphClass: 1
Flags: W
LayerCount: 2
Fore
SplineSet
62 -188 m 1,0,-1
 62 1823 l 1,1,-1
 616 1823 l 1,2,-1
 616 1542 l 1,3,-1
 414 1542 l 1,4,-1
 414 93 l 1,5,-1
 616 93 l 1,6,-1
 616 -188 l 1,7,-1
 62 -188 l 1,0,-1
EndSplineSet
Substitution2: "'case' Formas sensible a may+APoA-sculas en Latin b+APoA-squeda 26 subtabla" bracketleft.case
Substitution2: "'aalt' Activar todas las variantes en Latin b+APoA-squeda 0 subtabla" bracketleft.case
EndChar

StartChar: bracketleft.case
Encoding: 65576 -1 460
Width: 651
GlyphClass: 1
Flags: W
LayerCount: 2
Fore
SplineSet
62 0 m 1,0,-1
 62 1760 l 1,1,-1
 616 1760 l 1,2,-1
 616 1479 l 1,3,-1
 414 1479 l 1,4,-1
 414 281 l 1,5,-1
 616 281 l 1,6,-1
 616 0 l 1,7,-1
 62 0 l 1,0,-1
EndSplineSet
EndChar

StartChar: bracketright
Encoding: 93 93 461
Width: 651
GlyphClass: 1
Flags: W
LayerCount: 2
Fore
SplineSet
35 -188 m 1,0,-1
 35 93 l 1,1,-1
 237 93 l 1,2,-1
 237 1542 l 1,3,-1
 35 1542 l 1,4,-1
 35 1823 l 1,5,-1
 589 1823 l 1,6,-1
 589 -188 l 1,7,-1
 35 -188 l 1,0,-1
EndSplineSet
Substitution2: "'case' Formas sensible a may+APoA-sculas en Latin b+APoA-squeda 26 subtabla" bracketright.case
Substitution2: "'aalt' Activar todas las variantes en Latin b+APoA-squeda 0 subtabla" bracketright.case
EndChar

StartChar: bracketright.case
Encoding: 65577 -1 462
Width: 651
GlyphClass: 1
Flags: W
LayerCount: 2
Fore
SplineSet
589 0 m 1,0,-1
 35 0 l 1,1,-1
 35 281 l 1,2,-1
 237 281 l 1,3,-1
 237 1479 l 1,4,-1
 35 1479 l 1,5,-1
 35 1760 l 1,6,-1
 589 1760 l 1,7,-1
 589 0 l 1,0,-1
EndSplineSet
EndChar

StartChar: breve
Encoding: 728 728 463
Width: 1015
GlyphClass: 1
Flags: W
LayerCount: 2
Fore
SplineSet
501 1592 m 0,0,1
 326 1592 326 1592 217.5 1666 c 128,-1,2
 109 1740 109 1740 109 1903 c 0,3,4
 109 1924 109 1924 112 1945 c 1,5,-1
 368 1945 l 1,6,7
 368 1888 368 1888 397 1858.5 c 128,-1,8
 426 1829 426 1829 503 1829 c 256,9,10
 580 1829 580 1829 609 1858.5 c 128,-1,11
 638 1888 638 1888 638 1945 c 1,12,-1
 894 1945 l 1,13,14
 895 1935 895 1935 895.5 1925 c 128,-1,15
 896 1915 896 1915 896 1910 c 0,16,17
 896 1743 896 1743 788.5 1667.5 c 128,-1,18
 681 1592 681 1592 501 1592 c 0,0,1
EndSplineSet
EndChar

StartChar: uni032E
Encoding: 814 814 464
Width: 0
GlyphClass: 4
Flags: W
AnchorPoint: "Anclaje-11" 1 -416 basemark 0
AnchorPoint: "Anclaje-11" 1 0 mark 0
AnchorPoint: "Anclaje-9" 1 0 mark 0
AnchorPoint: "Anclaje-7" 1 0 mark 0
LayerCount: 2
Fore
SplineSet
-1 -416 m 0,0,1
 -176 -416 -176 -416 -284.5 -342 c 128,-1,2
 -393 -268 -393 -268 -393 -105 c 0,3,4
 -393 -83 -393 -83 -390 -64 c 1,5,-1
 -134 -64 l 1,6,7
 -134 -120 -134 -120 -105 -149.5 c 128,-1,8
 -76 -179 -76 -179 1 -179 c 256,9,10
 78 -179 78 -179 107 -149.5 c 128,-1,11
 136 -120 136 -120 136 -64 c 1,12,-1
 392 -64 l 1,13,14
 394 -88 394 -88 394 -98 c 0,15,16
 394 -265 394 -265 286.5 -340.5 c 128,-1,17
 179 -416 179 -416 -1 -416 c 0,0,1
EndSplineSet
Substitution2: "'case' Formas sensible a may+APoA-sculas en Latin b+APoA-squeda 26 subtabla" uni032E.case
Substitution2: "Single Substitution b+APoA-squeda 7 subtabla" uni032E.case
Substitution2: "Single Substitution b+APoA-squeda 6 subtabla" uni032E.case
Substitution2: "Single Substitution b+APoA-squeda 4 subtabla" uni032E.case
Substitution2: "Single Substitution b+APoA-squeda 3 subtabla" uni032E.case
Substitution2: "'aalt' Activar todas las variantes en Latin b+APoA-squeda 0 subtabla" uni032E.case
EndChar

StartChar: uni032E.case
Encoding: 65578 -1 465
Width: 0
GlyphClass: 4
Flags: W
AnchorPoint: "Anclaje-11" 1 -516 basemark 0
AnchorPoint: "Anclaje-11" 1 0 mark 0
AnchorPoint: "Anclaje-9" 1 0 mark 0
AnchorPoint: "Anclaje-7" 1 0 mark 0
LayerCount: 2
Fore
SplineSet
-1 -516 m 0,0,1
 -176 -516 -176 -516 -284.5 -442 c 128,-1,2
 -393 -368 -393 -368 -393 -205 c 0,3,4
 -393 -184 -393 -184 -390 -163 c 1,5,-1
 -134 -163 l 1,6,7
 -134 -220 -134 -220 -105 -249.5 c 128,-1,8
 -76 -279 -76 -279 1 -279 c 256,9,10
 78 -279 78 -279 107 -249.5 c 128,-1,11
 136 -220 136 -220 136 -163 c 1,12,-1
 392 -163 l 1,13,14
 394 -187 394 -187 394 -198 c 0,15,16
 394 -365 394 -365 286.5 -440.5 c 128,-1,17
 179 -516 179 -516 -1 -516 c 0,0,1
EndSplineSet
EndChar

StartChar: uni0306
Encoding: 774 774 466
Width: 0
GlyphClass: 4
Flags: W
AnchorPoint: "Anclaje-13" 1 1945 basemark 0
AnchorPoint: "Anclaje-13" -4 1500 mark 0
AnchorPoint: "Anclaje-8" -4 1500 mark 0
AnchorPoint: "Anclaje-6" -4 1500 mark 0
LayerCount: 2
Fore
SplineSet
-1 1592 m 0,0,1
 -176 1592 -176 1592 -284.5 1666 c 128,-1,2
 -393 1740 -393 1740 -393 1903 c 0,3,4
 -393 1924 -393 1924 -390 1945 c 1,5,-1
 -134 1945 l 1,6,7
 -134 1888 -134 1888 -105 1858.5 c 128,-1,8
 -76 1829 -76 1829 1 1829 c 256,9,10
 78 1829 78 1829 107 1858.5 c 128,-1,11
 136 1888 136 1888 136 1945 c 1,12,-1
 392 1945 l 1,13,14
 393 1935 393 1935 393.5 1925 c 128,-1,15
 394 1915 394 1915 394 1910 c 0,16,17
 394 1743 394 1743 286.5 1667.5 c 128,-1,18
 179 1592 179 1592 -1 1592 c 0,0,1
EndSplineSet
Substitution2: "'case' Formas sensible a may+APoA-sculas en Latin b+APoA-squeda 26 subtabla" uni0306.case
Substitution2: "Single Substitution b+APoA-squeda 7 subtabla" uni0306.case
Substitution2: "Single Substitution b+APoA-squeda 6 subtabla" uni0306.case
Substitution2: "Single Substitution b+APoA-squeda 4 subtabla" uni0306.case
Substitution2: "Single Substitution b+APoA-squeda 3 subtabla" uni0306.case
Substitution2: "'aalt' Activar todas las variantes en Latin b+APoA-squeda 0 subtabla" uni0306.case
EndChar

StartChar: uni0306.case
Encoding: 65579 -1 467
Width: 0
GlyphClass: 4
Flags: W
AnchorPoint: "Anclaje-14" 1 1914 basemark 0
AnchorPoint: "Anclaje-14" 0 1500 mark 0
AnchorPoint: "Anclaje-5" 0 1500 mark 0
LayerCount: 2
Fore
SplineSet
-1 1592 m 0,0,1
 -176 1592 -176 1592 -284.5 1659 c 128,-1,2
 -393 1726 -393 1726 -393 1873 c 0,3,4
 -393 1894 -393 1894 -390 1915 c 1,5,-1
 -134 1915 l 1,6,7
 -134 1853 -134 1853 -105 1821 c 128,-1,8
 -76 1789 -76 1789 1 1789 c 256,9,10
 78 1789 78 1789 107 1821 c 128,-1,11
 136 1853 136 1853 136 1915 c 1,12,-1
 392 1915 l 1,13,14
 394 1891 394 1891 394 1880 c 0,15,16
 394 1729 394 1729 286.5 1660.5 c 128,-1,17
 179 1592 179 1592 -1 1592 c 0,0,1
EndSplineSet
EndChar

StartChar: uni03060301
Encoding: 65580 -1 468
Width: 0
GlyphClass: 4
Flags: W
AnchorPoint: "Anclaje-14" 0 1500 mark 0
AnchorPoint: "Anclaje-5" 0 1500 mark 0
LayerCount: 2
Fore
SplineSet
-238 1963 m 1,0,-1
 -238 2126 l 1,1,-1
 237 2314 l 1,2,-1
 237 2027 l 1,3,-1
 -238 1963 l 1,0,-1
0 1582 m 0,4,5
 -176 1582 -176 1582 -284.5 1649 c 128,-1,6
 -393 1716 -393 1716 -393 1863 c 0,7,8
 -393 1884 -393 1884 -390 1905 c 1,9,-1
 -134 1905 l 1,10,11
 -134 1843 -134 1843 -105 1811 c 128,-1,12
 -76 1779 -76 1779 0 1779 c 0,13,14
 77 1779 77 1779 105.5 1811 c 128,-1,15
 134 1843 134 1843 134 1905 c 1,16,-1
 390 1905 l 1,17,18
 391 1895 391 1895 391.5 1885 c 128,-1,19
 392 1875 392 1875 392 1870 c 0,20,21
 392 1719 392 1719 285.5 1650.5 c 128,-1,22
 179 1582 179 1582 0 1582 c 0,4,5
EndSplineSet
Substitution2: "'case' Formas sensible a may+APoA-sculas en Latin b+APoA-squeda 26 subtabla" uni03060301.case
Ligature2: "'ccmp' Composici+APMA-n/descomposici+APMA-n de glifos en Latin b+APoA-squeda 10 subtabla" uni0306 acutecomb
Substitution2: "Single Substitution b+APoA-squeda 7 subtabla" uni03060301.case
Substitution2: "Single Substitution b+APoA-squeda 6 subtabla" uni03060301.case
Substitution2: "Single Substitution b+APoA-squeda 4 subtabla" uni03060301.case
Substitution2: "Single Substitution b+APoA-squeda 3 subtabla" uni03060301.case
Substitution2: "'aalt' Activar todas las variantes en Latin b+APoA-squeda 0 subtabla" uni03060301.case
EndChar

StartChar: uni03060301.case
Encoding: 65581 -1 469
Width: 0
GlyphClass: 4
Flags: W
AnchorPoint: "Anclaje-14" 0 1760 mark 0
AnchorPoint: "Anclaje-13" 0 2454 basemark 0
AnchorPoint: "Anclaje-5" 0 1760 mark 0
LayerCount: 2
Fore
SplineSet
-165 2161 m 1,0,-1
 -165 2266 l 1,1,-1
 209 2454 l 1,2,-1
 209 2225 l 1,3,-1
 -165 2161 l 1,0,-1
-5 1830 m 0,4,5
 -103 1830 -103 1830 -177 1865 c 128,-1,6
 -251 1900 -251 1900 -291.5 1955 c 128,-1,7
 -332 2010 -332 2010 -332 2069 c 0,8,9
 -332 2090 -332 2090 -329 2111 c 1,10,-1
 -139 2111 l 1,11,12
 -139 2049 -139 2049 -110 2017 c 128,-1,13
 -81 1985 -81 1985 -5 1985 c 0,14,15
 72 1985 72 1985 100.5 2017 c 128,-1,16
 129 2049 129 2049 129 2111 c 1,17,-1
 330 2111 l 1,18,19
 332 2087 332 2087 332 2076 c 0,20,21
 332 2014 332 2014 291.5 1957.5 c 128,-1,22
 251 1901 251 1901 175.5 1865.5 c 128,-1,23
 100 1830 100 1830 -5 1830 c 0,4,5
EndSplineSet
Ligature2: "'ccmp' Composici+APMA-n/descomposici+APMA-n de glifos en Latin b+APoA-squeda 10 subtabla" uni0306.case acutecomb.case
EndChar

StartChar: uni03060300
Encoding: 65582 -1 470
Width: 0
GlyphClass: 4
Flags: W
AnchorPoint: "Anclaje-14" 0 1500 mark 0
AnchorPoint: "Anclaje-13" -1 2314 basemark 0
AnchorPoint: "Anclaje-13" -1 1500 mark 0
AnchorPoint: "Anclaje-8" -1 1500 mark 0
AnchorPoint: "Anclaje-6" -1 1500 mark 0
AnchorPoint: "Anclaje-5" 0 1500 mark 0
LayerCount: 2
Fore
SplineSet
237 1963 m 1,0,-1
 -238 2027 l 1,1,-1
 -238 2314 l 1,2,-1
 237 2126 l 1,3,-1
 237 1963 l 1,0,-1
0 1582 m 0,4,5
 -176 1582 -176 1582 -284.5 1649 c 128,-1,6
 -393 1716 -393 1716 -393 1863 c 0,7,8
 -393 1884 -393 1884 -390 1905 c 1,9,-1
 -134 1905 l 1,10,11
 -134 1843 -134 1843 -105 1811 c 128,-1,12
 -76 1779 -76 1779 0 1779 c 0,13,14
 77 1779 77 1779 105.5 1811 c 128,-1,15
 134 1843 134 1843 134 1905 c 1,16,-1
 390 1905 l 1,17,18
 391 1895 391 1895 391.5 1885 c 128,-1,19
 392 1875 392 1875 392 1870 c 0,20,21
 392 1719 392 1719 285.5 1650.5 c 128,-1,22
 179 1582 179 1582 0 1582 c 0,4,5
EndSplineSet
Substitution2: "'case' Formas sensible a may+APoA-sculas en Latin b+APoA-squeda 26 subtabla" uni03060300.case
Ligature2: "'ccmp' Composici+APMA-n/descomposici+APMA-n de glifos en Latin b+APoA-squeda 10 subtabla" uni0306 gravecomb
Substitution2: "Single Substitution b+APoA-squeda 7 subtabla" uni03060300.case
Substitution2: "Single Substitution b+APoA-squeda 6 subtabla" uni03060300.case
Substitution2: "Single Substitution b+APoA-squeda 4 subtabla" uni03060300.case
Substitution2: "Single Substitution b+APoA-squeda 3 subtabla" uni03060300.case
Substitution2: "'aalt' Activar todas las variantes en Latin b+APoA-squeda 0 subtabla" uni03060300.case
EndChar

StartChar: uni03060300.case
Encoding: 65583 -1 471
Width: 0
GlyphClass: 4
Flags: W
AnchorPoint: "Anclaje-14" 0 1760 mark 0
AnchorPoint: "Anclaje-13" 0 2454 basemark 0
AnchorPoint: "Anclaje-5" 0 1760 mark 0
LayerCount: 2
Fore
SplineSet
209 2161 m 1,0,-1
 -165 2225 l 1,1,-1
 -165 2454 l 1,2,-1
 209 2266 l 1,3,-1
 209 2161 l 1,0,-1
-5 1830 m 0,4,5
 -103 1830 -103 1830 -177 1865 c 128,-1,6
 -251 1900 -251 1900 -291.5 1955 c 128,-1,7
 -332 2010 -332 2010 -332 2069 c 0,8,9
 -332 2090 -332 2090 -329 2111 c 1,10,-1
 -139 2111 l 1,11,12
 -139 2049 -139 2049 -110 2017 c 128,-1,13
 -81 1985 -81 1985 -5 1985 c 0,14,15
 72 1985 72 1985 100.5 2017 c 128,-1,16
 129 2049 129 2049 129 2111 c 1,17,-1
 330 2111 l 1,18,19
 332 2089 332 2089 332 2076 c 0,20,21
 332 2014 332 2014 291.5 1957.5 c 128,-1,22
 251 1901 251 1901 175.5 1865.5 c 128,-1,23
 100 1830 100 1830 -5 1830 c 0,4,5
EndSplineSet
Ligature2: "'ccmp' Composici+APMA-n/descomposici+APMA-n de glifos en Latin b+APoA-squeda 10 subtabla" uni0306.case gravecomb.case
EndChar

StartChar: uni03060309
Encoding: 65584 -1 472
Width: 0
GlyphClass: 4
Flags: W
AnchorPoint: "Anclaje-14" 0 1500 mark 0
AnchorPoint: "Anclaje-13" -1 2459 basemark 0
AnchorPoint: "Anclaje-13" -1 1500 mark 0
AnchorPoint: "Anclaje-8" -1 1500 mark 0
AnchorPoint: "Anclaje-6" -1 1500 mark 0
AnchorPoint: "Anclaje-5" 0 1500 mark 0
LayerCount: 2
Fore
SplineSet
-31 1913 m 1,0,-1
 -137 2037 l 1,1,2
 -83 2057 -83 2057 -50 2087 c 128,-1,3
 -17 2117 -17 2117 -17 2167 c 0,4,5
 -17 2262 -17 2262 -118 2262 c 0,6,7
 -165 2262 -165 2262 -208 2246 c 1,8,-1
 -208 2426 l 1,9,10
 -120 2459 -120 2459 -25 2459 c 0,11,12
 100 2459 100 2459 170.5 2396.5 c 128,-1,13
 241 2334 241 2334 241 2221 c 0,14,15
 241 2094 241 2094 163 2021.5 c 128,-1,16
 85 1949 85 1949 -31 1913 c 1,0,-1
0 1582 m 0,17,18
 -176 1582 -176 1582 -284.5 1649 c 128,-1,19
 -393 1716 -393 1716 -393 1863 c 0,20,21
 -393 1884 -393 1884 -390 1905 c 1,22,-1
 -134 1905 l 1,23,24
 -134 1843 -134 1843 -105 1811 c 128,-1,25
 -76 1779 -76 1779 0 1779 c 0,26,27
 77 1779 77 1779 105.5 1811 c 128,-1,28
 134 1843 134 1843 134 1905 c 1,29,-1
 390 1905 l 1,30,31
 391 1895 391 1895 391.5 1885 c 128,-1,32
 392 1875 392 1875 392 1870 c 0,33,34
 392 1719 392 1719 285.5 1650.5 c 128,-1,35
 179 1582 179 1582 0 1582 c 0,17,18
EndSplineSet
Substitution2: "'case' Formas sensible a may+APoA-sculas en Latin b+APoA-squeda 26 subtabla" uni03060309.case
Ligature2: "'ccmp' Composici+APMA-n/descomposici+APMA-n de glifos en Latin b+APoA-squeda 10 subtabla" uni0306 hookabovecomb
Substitution2: "Single Substitution b+APoA-squeda 7 subtabla" uni03060309.case
Substitution2: "Single Substitution b+APoA-squeda 6 subtabla" uni03060309.case
Substitution2: "Single Substitution b+APoA-squeda 4 subtabla" uni03060309.case
Substitution2: "Single Substitution b+APoA-squeda 3 subtabla" uni03060309.case
Substitution2: "'aalt' Activar todas las variantes en Latin b+APoA-squeda 0 subtabla" uni03060309.case
EndChar

StartChar: uni03060309.case
Encoding: 65585 -1 473
Width: 0
GlyphClass: 4
Flags: W
AnchorPoint: "Anclaje-14" 0 1760 mark 0
AnchorPoint: "Anclaje-13" 0 2469 basemark 0
AnchorPoint: "Anclaje-5" 0 1760 mark 0
LayerCount: 2
Fore
SplineSet
6 2129 m 1,0,-1
 -60 2206 l 1,1,2
 -26 2219 -26 2219 -5.5 2237.5 c 128,-1,3
 15 2256 15 2256 15 2287 c 0,4,5
 15 2346 15 2346 -48 2346 c 0,6,7
 -76 2346 -76 2346 -104 2336 c 1,8,-1
 -104 2448 l 1,9,10
 -47 2469 -47 2469 10 2469 c 0,11,12
 87 2469 87 2469 131 2430 c 128,-1,13
 175 2391 175 2391 175 2321 c 0,14,15
 175 2242 175 2242 126.5 2197 c 128,-1,16
 78 2152 78 2152 6 2129 c 1,0,-1
-5 1830 m 0,17,18
 -103 1830 -103 1830 -177 1865 c 128,-1,19
 -251 1900 -251 1900 -291.5 1955 c 128,-1,20
 -332 2010 -332 2010 -332 2069 c 0,21,22
 -332 2090 -332 2090 -329 2111 c 1,23,-1
 -139 2111 l 1,24,25
 -139 2049 -139 2049 -110 2017 c 128,-1,26
 -81 1985 -81 1985 -5 1985 c 0,27,28
 72 1985 72 1985 100.5 2017 c 128,-1,29
 129 2049 129 2049 129 2111 c 1,30,-1
 330 2111 l 1,31,32
 331 2101 331 2101 331.5 2091 c 128,-1,33
 332 2081 332 2081 332 2076 c 0,34,35
 332 2014 332 2014 291.5 1957.5 c 128,-1,36
 251 1901 251 1901 175.5 1865.5 c 128,-1,37
 100 1830 100 1830 -5 1830 c 0,17,18
EndSplineSet
Ligature2: "'ccmp' Composici+APMA-n/descomposici+APMA-n de glifos en Latin b+APoA-squeda 10 subtabla" uni0306.case hookabovecomb.case
EndChar

StartChar: uni03060303
Encoding: 65586 -1 474
Width: 0
GlyphClass: 4
Flags: W
AnchorPoint: "Anclaje-14" 0 1500 mark 0
AnchorPoint: "Anclaje-13" 0 2280 basemark 0
AnchorPoint: "Anclaje-13" 0 1500 mark 0
AnchorPoint: "Anclaje-8" 0 1500 mark 0
AnchorPoint: "Anclaje-6" 0 1500 mark 0
AnchorPoint: "Anclaje-5" 0 1500 mark 0
LayerCount: 2
Fore
SplineSet
165 1969 m 0,0,1
 105 1969 105 1969 52.5 1992 c 128,-1,2
 0 2015 0 2015 -50 2037.5 c 128,-1,3
 -100 2060 -100 2060 -153 2060 c 0,4,5
 -185 2060 -185 2060 -213 2045 c 128,-1,6
 -241 2030 -241 2030 -265 1992 c 1,7,-1
 -413 2070 l 1,8,9
 -378 2156 -378 2156 -330.5 2218 c 128,-1,10
 -283 2280 -283 2280 -183 2280 c 0,11,12
 -121 2280 -121 2280 -68.5 2257.5 c 128,-1,13
 -16 2235 -16 2235 33 2212 c 128,-1,14
 82 2189 82 2189 135 2189 c 0,15,16
 173 2189 173 2189 197.5 2206 c 128,-1,17
 222 2223 222 2223 247 2264 c 1,18,-1
 413 2210 l 1,19,20
 389 2148 389 2148 360 2092.5 c 128,-1,21
 331 2037 331 2037 285.5 2003 c 128,-1,22
 240 1969 240 1969 165 1969 c 0,0,1
0 1582 m 0,23,24
 -176 1582 -176 1582 -284.5 1649 c 128,-1,25
 -393 1716 -393 1716 -393 1863 c 0,26,27
 -393 1884 -393 1884 -390 1905 c 1,28,-1
 -134 1905 l 1,29,30
 -134 1843 -134 1843 -105 1811 c 128,-1,31
 -76 1779 -76 1779 0 1779 c 0,32,33
 77 1779 77 1779 105.5 1811 c 128,-1,34
 134 1843 134 1843 134 1905 c 1,35,-1
 390 1905 l 1,36,37
 391 1895 391 1895 391.5 1885 c 128,-1,38
 392 1875 392 1875 392 1870 c 0,39,40
 392 1719 392 1719 285.5 1650.5 c 128,-1,41
 179 1582 179 1582 0 1582 c 0,23,24
EndSplineSet
Substitution2: "'case' Formas sensible a may+APoA-sculas en Latin b+APoA-squeda 26 subtabla" uni03060303.case
Ligature2: "'ccmp' Composici+APMA-n/descomposici+APMA-n de glifos en Latin b+APoA-squeda 10 subtabla" uni0306 tildecomb
Substitution2: "Single Substitution b+APoA-squeda 7 subtabla" uni03060303.case
Substitution2: "Single Substitution b+APoA-squeda 6 subtabla" uni03060303.case
Substitution2: "Single Substitution b+APoA-squeda 4 subtabla" uni03060303.case
Substitution2: "Single Substitution b+APoA-squeda 3 subtabla" uni03060303.case
Substitution2: "'aalt' Activar todas las variantes en Latin b+APoA-squeda 0 subtabla" uni03060303.case
EndChar

StartChar: uni03060303.case
Encoding: 65587 -1 475
Width: 0
GlyphClass: 4
Flags: W
AnchorPoint: "Anclaje-14" 0 1760 mark 0
AnchorPoint: "Anclaje-13" 0 2407 basemark 0
AnchorPoint: "Anclaje-5" 0 1760 mark 0
LayerCount: 2
Fore
SplineSet
138 2174 m 0,0,1
 93 2174 93 2174 53.5 2191 c 128,-1,2
 14 2208 14 2208 -24 2225 c 128,-1,3
 -62 2242 -62 2242 -101 2242 c 0,4,5
 -125 2242 -125 2242 -146 2231 c 128,-1,6
 -167 2220 -167 2220 -185 2191 c 1,7,-1
 -296 2249 l 1,8,9
 -270 2314 -270 2314 -234 2360.5 c 128,-1,10
 -198 2407 -198 2407 -123 2407 c 0,11,12
 -76 2407 -76 2407 -37 2390 c 128,-1,13
 2 2373 2 2373 39 2356 c 128,-1,14
 76 2339 76 2339 116 2339 c 0,15,16
 166 2339 166 2339 200 2395 c 1,17,-1
 325 2355 l 1,18,19
 297 2285 297 2285 260 2229.5 c 128,-1,20
 223 2174 223 2174 138 2174 c 0,0,1
-5 1830 m 0,21,22
 -103 1830 -103 1830 -177 1865 c 128,-1,23
 -251 1900 -251 1900 -291.5 1955 c 128,-1,24
 -332 2010 -332 2010 -332 2069 c 0,25,26
 -332 2090 -332 2090 -329 2111 c 1,27,-1
 -139 2111 l 1,28,29
 -139 2049 -139 2049 -110 2017 c 128,-1,30
 -81 1985 -81 1985 -5 1985 c 0,31,32
 72 1985 72 1985 100.5 2017 c 128,-1,33
 129 2049 129 2049 129 2111 c 1,34,-1
 330 2111 l 1,35,36
 331 2101 331 2101 331.5 2091 c 128,-1,37
 332 2081 332 2081 332 2076 c 0,38,39
 332 2014 332 2014 291.5 1957.5 c 128,-1,40
 251 1901 251 1901 175.5 1865.5 c 128,-1,41
 100 1830 100 1830 -5 1830 c 0,21,22
EndSplineSet
Ligature2: "'ccmp' Composici+APMA-n/descomposici+APMA-n de glifos en Latin b+APoA-squeda 10 subtabla" uni0306.case tildecomb.case
EndChar

StartChar: uni032F
Encoding: 815 815 476
Width: 0
GlyphClass: 4
Flags: W
AnchorPoint: "Anclaje-11" -1 -513 basemark 0
AnchorPoint: "Anclaje-11" -1 0 mark 0
AnchorPoint: "Anclaje-9" -1 0 mark 0
AnchorPoint: "Anclaje-7" -1 0 mark 0
LayerCount: 2
Fore
SplineSet
-371 -513 m 1,0,1
 -374 -492 -374 -492 -374 -471 c 0,2,3
 -374 -308 -374 -308 -275.5 -234 c 128,-1,4
 -177 -160 -177 -160 -2 -160 c 0,5,6
 178 -160 178 -160 275.5 -235.5 c 128,-1,7
 373 -311 373 -311 373 -478 c 0,8,9
 373 -483 373 -483 372.5 -492.5 c 128,-1,10
 372 -502 372 -502 371 -513 c 1,11,-1
 135 -513 l 1,12,13
 135 -445 135 -445 97 -411.5 c 128,-1,14
 59 -378 59 -378 0 -378 c 0,15,16
 -58 -378 -58 -378 -96.5 -411.5 c 128,-1,17
 -135 -445 -135 -445 -135 -513 c 1,18,-1
 -371 -513 l 1,0,1
EndSplineSet
EndChar

StartChar: uni0311
Encoding: 785 785 477
Width: 0
GlyphClass: 4
Flags: W
AnchorPoint: "Anclaje-13" -1 1960 basemark 0
AnchorPoint: "Anclaje-13" 0 1500 mark 0
AnchorPoint: "Anclaje-8" 0 1500 mark 0
AnchorPoint: "Anclaje-6" 0 1500 mark 0
LayerCount: 2
Fore
SplineSet
-371 1608 m 1,0,1
 -374 1628 -374 1628 -374 1649 c 0,2,3
 -374 1812 -374 1812 -275.5 1886 c 128,-1,4
 -177 1960 -177 1960 -2 1960 c 0,5,6
 178 1960 178 1960 275.5 1884.5 c 128,-1,7
 373 1809 373 1809 373 1642 c 0,8,9
 373 1637 373 1637 372.5 1627.5 c 128,-1,10
 372 1618 372 1618 371 1608 c 1,11,-1
 135 1608 l 1,12,13
 135 1676 135 1676 97 1709 c 128,-1,14
 59 1742 59 1742 0 1742 c 0,15,16
 -58 1742 -58 1742 -96.5 1709 c 128,-1,17
 -135 1676 -135 1676 -135 1608 c 1,18,-1
 -371 1608 l 1,0,1
EndSplineSet
Substitution2: "'case' Formas sensible a may+APoA-sculas en Latin b+APoA-squeda 26 subtabla" uni0311.case
Substitution2: "Single Substitution b+APoA-squeda 7 subtabla" uni0311.case
Substitution2: "Single Substitution b+APoA-squeda 6 subtabla" uni0311.case
Substitution2: "Single Substitution b+APoA-squeda 4 subtabla" uni0311.case
Substitution2: "Single Substitution b+APoA-squeda 3 subtabla" uni0311.case
Substitution2: "'aalt' Activar todas las variantes en Latin b+APoA-squeda 0 subtabla" uni0311.case
EndChar

StartChar: uni0311.case
Encoding: 65588 -1 478
Width: 0
GlyphClass: 4
Flags: W
AnchorPoint: "Anclaje-14" -1 1610 mark 0
AnchorPoint: "Anclaje-13" -1 2062 basemark 0
AnchorPoint: "Anclaje-5" -1 1610 mark 0
LayerCount: 2
Fore
SplineSet
-371 1709 m 1,0,1
 -374 1730 -374 1730 -374 1751 c 0,2,3
 -374 1914 -374 1914 -275.5 1988 c 128,-1,4
 -177 2062 -177 2062 -2 2062 c 0,5,6
 178 2062 178 2062 275.5 1986.5 c 128,-1,7
 373 1911 373 1911 373 1744 c 0,8,9
 373 1739 373 1739 372.5 1729.5 c 128,-1,10
 372 1720 372 1720 371 1709 c 1,11,-1
 135 1709 l 1,12,13
 135 1777 135 1777 97 1810.5 c 128,-1,14
 59 1844 59 1844 0 1844 c 0,15,16
 -58 1844 -58 1844 -96.5 1810.5 c 128,-1,17
 -135 1777 -135 1777 -135 1709 c 1,18,-1
 -371 1709 l 1,0,1
EndSplineSet
EndChar

StartChar: brokenbar
Encoding: 166 166 479
Width: 455
GlyphClass: 1
Flags: W
LayerCount: 2
Fore
SplineSet
68 1043 m 1,0,-1
 68 1953 l 1,1,-1
 387 1953 l 1,2,-1
 387 1043 l 1,3,-1
 68 1043 l 1,0,-1
68 -84 m 1,4,-1
 68 796 l 1,5,-1
 387 796 l 1,6,-1
 387 -84 l 1,7,-1
 68 -84 l 1,4,-1
EndSplineSet
EndChar

StartChar: uni0180
Encoding: 384 384 480
Width: 1027
GlyphClass: 2
Flags: W
AnchorPoint: "Anclaje-7" 514 0 basechar 0
AnchorPoint: "Anclaje-6" 256 1760 basechar 0
LayerCount: 2
Fore
SplineSet
671 -16 m 0,0,1
 583 -16 583 -16 528 27.5 c 128,-1,2
 473 71 473 71 440 160 c 1,3,-1
 440 0 l 1,4,-1
 76 0 l 1,5,-1
 76 1512 l 1,6,-1
 -78 1512 l 1,7,-1
 -78 1665 l 1,8,-1
 76 1665 l 1,9,-1
 76 1760 l 1,10,-1
 440 1760 l 1,11,-1
 440 1665 l 1,12,-1
 572 1665 l 1,13,-1
 572 1512 l 1,14,-1
 440 1512 l 1,15,-1
 440 1340 l 1,16,17
 473 1423 473 1423 531.5 1469.5 c 128,-1,18
 590 1516 590 1516 699 1516 c 0,19,20
 846 1516 846 1516 906.5 1409 c 128,-1,21
 967 1302 967 1302 967 1129 c 2,22,-1
 967 391 l 2,23,24
 967 276 967 276 935.5 183.5 c 128,-1,25
 904 91 904 91 838.5 37.5 c 128,-1,26
 773 -16 773 -16 671 -16 c 0,0,1
523 263 m 256,27,28
 580 263 580 263 592 319 c 128,-1,29
 604 375 604 375 604 457 c 2,30,-1
 604 1043 l 2,31,32
 604 1126 604 1126 592 1181.5 c 128,-1,33
 580 1237 580 1237 524 1237 c 0,34,35
 466 1237 466 1237 453 1180.5 c 128,-1,36
 440 1124 440 1124 440 1043 c 2,37,-1
 440 457 l 2,38,39
 440 376 440 376 453 319.5 c 128,-1,40
 466 263 466 263 523 263 c 256,27,28
EndSplineSet
EndChar

StartChar: bullet
Encoding: 8226 8226 481
Width: 721
GlyphClass: 1
Flags: W
LayerCount: 2
Fore
SplineSet
360 403 m 256,0,1
 211 403 211 403 129 496.5 c 128,-1,2
 47 590 47 590 47 741 c 0,3,4
 47 893 47 893 129 986 c 128,-1,5
 211 1079 211 1079 360 1079 c 256,6,7
 509 1079 509 1079 591.5 986 c 128,-1,8
 674 893 674 893 674 741 c 0,9,10
 674 590 674 590 591.5 496.5 c 128,-1,11
 509 403 509 403 360 403 c 256,0,1
EndSplineSet
Substitution2: "'case' Formas sensible a may+APoA-sculas en Latin b+APoA-squeda 26 subtabla" bullet.case
Substitution2: "'aalt' Activar todas las variantes en Latin b+APoA-squeda 0 subtabla" bullet.case
EndChar

StartChar: uni2219
Encoding: 8729 8729 483
Width: 600
GlyphClass: 1
Flags: W
LayerCount: 2
Fore
SplineSet
151 723 m 1,0,-1
 151 1021 l 1,1,-1
 469 1021 l 1,2,-1
 469 723 l 1,3,-1
 151 723 l 1,0,-1
EndSplineSet
EndChar

StartChar: c
Encoding: 99 99 484
Width: 1006
GlyphClass: 2
Flags: W
AnchorPoint: "Anclaje-6" 515 1500 basechar 0
AnchorPoint: "Anclaje-0" 514 0 basechar 0
LayerCount: 2
Fore
SplineSet
523 -16 m 0,0,1
 271 -16 271 -16 165.5 113 c 128,-1,2
 60 242 60 242 60 492 c 2,3,-1
 60 954 l 2,4,5
 60 1142 60 1142 100 1267 c 128,-1,6
 140 1392 140 1392 240 1454 c 128,-1,7
 340 1516 340 1516 518 1516 c 0,8,9
 642 1516 642 1516 740.5 1472 c 128,-1,10
 839 1428 839 1428 896 1343 c 128,-1,11
 953 1258 953 1258 953 1135 c 2,12,-1
 953 906 l 1,13,-1
 588 906 l 1,14,-1
 588 1116 l 2,15,16
 588 1168 588 1168 573 1203.5 c 128,-1,17
 558 1239 558 1239 508 1239 c 0,18,19
 420 1239 420 1239 420 1114 c 2,20,-1
 420 387 l 2,21,22
 420 341 420 341 440 302.5 c 128,-1,23
 460 264 460 264 506 264 c 0,24,25
 553 264 553 264 571.5 301.5 c 128,-1,26
 590 339 590 339 590 389 c 2,27,-1
 590 641 l 1,28,-1
 953 641 l 1,29,-1
 953 379 l 2,30,31
 953 255 953 255 897.5 166.5 c 128,-1,32
 842 78 842 78 745 31 c 128,-1,33
 648 -16 648 -16 523 -16 c 0,0,1
EndSplineSet
Substitution2: "'smcp' Min+APoA-sculas a may+APoA-sculas peque+APEA-as en Latin b+APoA-squeda 33 subtabla" c.sc
Substitution2: "'aalt' Activar todas las variantes en Latin b+APoA-squeda 0 subtabla" c.sc
EndChar

StartChar: c.sc
Encoding: 65590 -1 485
Width: 971
GlyphClass: 2
Flags: W
AnchorPoint: "Anclaje-7" 486 0 basechar 0
AnchorPoint: "Anclaje-5" 496 1590 basechar 0
LayerCount: 2
Fore
SplineSet
488 -16 m 0,0,1
 297 -16 297 -16 180.5 103 c 128,-1,2
 64 222 64 222 64 436 c 2,3,-1
 64 1048 l 2,4,5
 64 1304 64 1304 165.5 1440 c 128,-1,6
 267 1576 267 1576 496 1576 c 0,7,8
 621 1576 621 1576 718.5 1530 c 128,-1,9
 816 1484 816 1484 872 1392.5 c 128,-1,10
 928 1301 928 1301 928 1162 c 2,11,-1
 928 882 l 1,12,-1
 578 882 l 1,13,-1
 578 1128 l 2,14,15
 578 1207 578 1207 558 1234.5 c 128,-1,16
 538 1262 538 1262 496 1262 c 0,17,18
 447 1262 447 1262 430 1226.5 c 128,-1,19
 413 1191 413 1191 413 1132 c 2,20,-1
 413 431 l 2,21,22
 413 358 413 358 434.5 328 c 128,-1,23
 456 298 456 298 496 298 c 0,24,25
 541 298 541 298 559.5 335 c 128,-1,26
 578 372 578 372 578 431 c 2,27,-1
 578 658 l 1,28,-1
 932 658 l 1,29,-1
 932 425 l 2,30,31
 932 193 932 193 815 88.5 c 128,-1,32
 698 -16 698 -16 488 -16 c 0,0,1
EndSplineSet
EndChar

StartChar: uni0310
Encoding: 784 784 490
Width: 0
GlyphClass: 4
Flags: W
LayerCount: 2
Fore
SplineSet
-178 2006 m 1,0,-1
 -178 2264 l 1,1,-1
 180 2264 l 1,2,-1
 180 2006 l 1,3,-1
 -178 2006 l 1,0,-1
-1 1592 m 0,4,5
 -176 1592 -176 1592 -284.5 1659 c 128,-1,6
 -393 1726 -393 1726 -393 1873 c 0,7,8
 -393 1894 -393 1894 -390 1915 c 1,9,-1
 -134 1915 l 1,10,11
 -134 1853 -134 1853 -105 1821 c 128,-1,12
 -76 1789 -76 1789 1 1789 c 256,13,14
 78 1789 78 1789 107 1821 c 128,-1,15
 136 1853 136 1853 136 1915 c 1,16,-1
 392 1915 l 1,17,18
 393 1905 393 1905 393.5 1895 c 128,-1,19
 394 1885 394 1885 394 1880 c 0,20,21
 394 1729 394 1729 286.5 1660.5 c 128,-1,22
 179 1592 179 1592 -1 1592 c 0,4,5
EndSplineSet
EndChar

StartChar: caron
Encoding: 711 711 491
Width: 970
GlyphClass: 1
Flags: W
LayerCount: 2
Fore
SplineSet
281 1591 m 1,0,-1
 40 1994 l 1,1,-1
 399 1994 l 1,2,-1
 485 1709 l 1,3,-1
 571 1994 l 1,4,-1
 930 1994 l 1,5,-1
 689 1591 l 1,6,-1
 281 1591 l 1,0,-1
EndSplineSet
EndChar

StartChar: uni030C
Encoding: 780 780 492
Width: 0
GlyphClass: 4
Flags: W
AnchorPoint: "Anclaje-13" 0 1500 mark 0
AnchorPoint: "Anclaje-8" 0 1500 mark 0
AnchorPoint: "Anclaje-6" 0 1500 mark 0
LayerCount: 2
Fore
SplineSet
-204 1591 m 1,0,-1
 -445 1994 l 1,1,-1
 -86 1994 l 1,2,-1
 0 1709 l 1,3,-1
 86 1994 l 1,4,-1
 445 1994 l 1,5,-1
 204 1591 l 1,6,-1
 -204 1591 l 1,0,-1
EndSplineSet
Substitution2: "'case' Formas sensible a may+APoA-sculas en Latin b+APoA-squeda 26 subtabla" uni030C.case
Substitution2: "Single Substitution b+APoA-squeda 7 subtabla" uni030C.case
Substitution2: "Single Substitution b+APoA-squeda 6 subtabla" uni030C.case
Substitution2: "Single Substitution b+APoA-squeda 4 subtabla" uni030C.case
Substitution2: "Single Substitution b+APoA-squeda 3 subtabla" uni030C.case
Substitution2: "'aalt' Activar todas las variantes en Latin b+APoA-squeda 0 subtabla" uni030C.case
EndChar

StartChar: uni030C.alt
Encoding: 65594 -1 493
Width: 0
GlyphClass: 1
Flags: W
LayerCount: 2
Fore
SplineSet
597 1226 m 1,0,-1
 673 1462 l 1,1,-1
 598 1462 l 1,2,-1
 598 1760 l 1,3,-1
 910 1760 l 1,4,-1
 910 1471 l 1,5,-1
 808 1226 l 1,6,-1
 597 1226 l 1,0,-1
EndSplineSet
EndChar

StartChar: uni030C.case
Encoding: 65595 -1 494
Width: 0
GlyphClass: 4
Flags: W
AnchorPoint: "Anclaje-14" 0 1610 mark 0
AnchorPoint: "Anclaje-13" 0 2044 basemark 0
AnchorPoint: "Anclaje-12" 0 1673 basemark 0
AnchorPoint: "Anclaje-12" 0 2145 mark 0
AnchorPoint: "Anclaje-5" 0 1610 mark 0
LayerCount: 2
Fore
SplineSet
-445 2044 m 1,0,-1
 -86 2044 l 1,1,-1
 0 1829 l 1,2,-1
 86 2044 l 1,3,-1
 445 2044 l 1,4,-1
 204 1711 l 1,5,-1
 -204 1711 l 1,6,-1
 -445 2044 l 1,0,-1
EndSplineSet
EndChar

StartChar: cedilla
Encoding: 184 184 506
Width: 576
GlyphClass: 1
Flags: W
LayerCount: 2
Fore
SplineSet
238 -631 m 0,0,1
 135 -631 135 -631 40 -591 c 1,2,-1
 40 -368 l 1,3,4
 71 -378 71 -378 101 -384.5 c 128,-1,5
 131 -391 131 -391 158 -391 c 0,6,7
 208 -391 208 -391 241.5 -364.5 c 128,-1,8
 275 -338 275 -338 275 -273 c 0,9,10
 275 -217 275 -217 247.5 -145 c 128,-1,11
 220 -73 220 -73 171 0 c 1,12,-1
 332 0 l 1,13,14
 429 -85 429 -85 482.5 -189.5 c 128,-1,15
 536 -294 536 -294 536 -387 c 0,16,17
 536 -490 536 -490 465 -560.5 c 128,-1,18
 394 -631 394 -631 238 -631 c 0,0,1
EndSplineSet
EndChar

StartChar: uni0327
Encoding: 807 807 507
Width: 0
GlyphClass: 4
Flags: W
AnchorPoint: "Anclaje-11" 23 -631 basemark 0
AnchorPoint: "Anclaje-11" 23 0 mark 0
AnchorPoint: "Anclaje-9" 23 0 mark 0
AnchorPoint: "Anclaje-7" 23 0 mark 0
AnchorPoint: "Anclaje-0" -226 0 mark 0
LayerCount: 2
Fore
SplineSet
-252 -631 m 0,0,1
 -355 -631 -355 -631 -450 -591 c 1,2,-1
 -450 -368 l 1,3,4
 -419 -378 -419 -378 -389 -384.5 c 128,-1,5
 -359 -391 -359 -391 -332 -391 c 0,6,7
 -282 -391 -282 -391 -248.5 -364.5 c 128,-1,8
 -215 -338 -215 -338 -215 -273 c 0,9,10
 -215 -217 -215 -217 -242.5 -145 c 128,-1,11
 -270 -73 -270 -73 -319 0 c 1,12,-1
 -158 0 l 1,13,14
 -61 -85 -61 -85 -7.5 -189.5 c 128,-1,15
 46 -294 46 -294 46 -387 c 0,16,17
 46 -490 46 -490 -25 -560.5 c 128,-1,18
 -96 -631 -96 -631 -252 -631 c 0,0,1
EndSplineSet
Substitution2: "'case' Formas sensible a may+APoA-sculas en Latin b+APoA-squeda 26 subtabla" uni0327.case
Substitution2: "Single Substitution b+APoA-squeda 7 subtabla" uni0327.case
Substitution2: "Single Substitution b+APoA-squeda 6 subtabla" uni0327.case
Substitution2: "Single Substitution b+APoA-squeda 4 subtabla" uni0327.case
Substitution2: "Single Substitution b+APoA-squeda 3 subtabla" uni0327.case
Substitution2: "'aalt' Activar todas las variantes en Latin b+APoA-squeda 0 subtabla" uni0327.case
EndChar

StartChar: uni0327.case
Encoding: 65601 -1 508
Width: 0
GlyphClass: 4
Flags: W
AnchorPoint: "Anclaje-11" -202 -631 basemark 0
AnchorPoint: "Anclaje-11" -202 0 mark 0
AnchorPoint: "Anclaje-9" -202 0 mark 0
AnchorPoint: "Anclaje-7" -202 0 mark 0
AnchorPoint: "Anclaje-0" -226 0 mark 0
LayerCount: 2
Fore
SplineSet
-252 -631 m 0,0,1
 -355 -631 -355 -631 -450 -591 c 1,2,-1
 -450 -368 l 1,3,4
 -419 -378 -419 -378 -389 -384.5 c 128,-1,5
 -359 -391 -359 -391 -332 -391 c 0,6,7
 -282 -391 -282 -391 -248.5 -364.5 c 128,-1,8
 -215 -338 -215 -338 -215 -273 c 0,9,10
 -215 -217 -215 -217 -242.5 -145 c 128,-1,11
 -270 -73 -270 -73 -319 0 c 1,12,-1
 -158 0 l 1,13,14
 -61 -85 -61 -85 -7.5 -189.5 c 128,-1,15
 46 -294 46 -294 46 -387 c 0,16,17
 46 -490 46 -490 -25 -560.5 c 128,-1,18
 -96 -631 -96 -631 -252 -631 c 0,0,1
EndSplineSet
EndChar

StartChar: cent
Encoding: 162 162 509
Width: 986
GlyphClass: 1
Flags: W
LayerCount: 2
Fore
SplineSet
422 -163 m 1,0,-1
 422 -13 l 1,1,2
 217 10 217 10 132.5 138 c 128,-1,3
 48 266 48 266 48 492 c 2,4,-1
 48 954 l 2,5,6
 48 1124 48 1124 80.5 1244 c 128,-1,7
 113 1364 113 1364 194.5 1432 c 128,-1,8
 276 1500 276 1500 422 1514 c 1,9,-1
 422 1677 l 1,10,-1
 595 1677 l 1,11,-1
 595 1511 l 1,12,13
 743 1490 743 1490 842 1394.5 c 128,-1,14
 941 1299 941 1299 941 1135 c 2,15,-1
 941 879 l 1,16,-1
 576 879 l 1,17,-1
 576 1116 l 2,18,19
 576 1168 576 1168 561 1203.5 c 128,-1,20
 546 1239 546 1239 496 1239 c 0,21,22
 408 1239 408 1239 408 1114 c 2,23,-1
 408 387 l 2,24,25
 408 341 408 341 428 302.5 c 128,-1,26
 448 264 448 264 494 264 c 0,27,28
 541 264 541 264 559.5 301.5 c 128,-1,29
 578 339 578 339 578 389 c 2,30,-1
 578 614 l 1,31,-1
 941 614 l 1,32,-1
 941 379 l 2,33,34
 941 211 941 211 843 110 c 128,-1,35
 745 9 745 9 595 -12 c 1,36,-1
 595 -163 l 1,37,-1
 422 -163 l 1,0,-1
EndSplineSet
EndChar

StartChar: uniAB53
Encoding: 43859 43859 510
Width: 940
GlyphClass: 1
Flags: W
LayerCount: 2
Fore
SplineSet
930 -260 m 1,0,1
 820 -260 820 -260 744 -239.5 c 128,-1,2
 668 -219 668 -219 614.5 -169 c 128,-1,3
 561 -119 561 -119 520 -32 c 128,-1,4
 479 55 479 55 438 188 c 2,5,-1
 424 235 l 1,6,-1
 279 -250 l 1,7,-1
 8 -250 l 1,8,-1
 301 703 l 1,9,-1
 192 1058 l 2,10,11
 158 1168 158 1168 127.5 1205 c 128,-1,12
 97 1242 97 1242 40 1242 c 1,13,-1
 40 1516 l 1,14,15
 190 1516 190 1516 280.5 1481.5 c 128,-1,16
 371 1447 371 1447 428.5 1360.5 c 128,-1,17
 486 1274 486 1274 537 1116 c 1,18,-1
 654 1501 l 1,19,-1
 920 1501 l 1,20,-1
 658 655 l 1,21,-1
 798 198 l 2,22,23
 832 88 832 88 857 51 c 128,-1,24
 882 14 882 14 930 14 c 1,25,-1
 930 -260 l 1,0,1
EndSplineSet
EndChar

StartChar: uni0188
Encoding: 392 392 511
Width: 1049
GlyphClass: 1
Flags: W
LayerCount: 2
Fore
SplineSet
523 -16 m 0,0,1
 271 -16 271 -16 165.5 113 c 128,-1,2
 60 242 60 242 60 492 c 2,3,-1
 60 954 l 2,4,5
 60 1142 60 1142 100 1267 c 128,-1,6
 140 1392 140 1392 240 1454 c 128,-1,7
 340 1516 340 1516 518 1516 c 0,8,9
 603 1516 603 1516 664 1495 c 1,10,11
 699 1614 699 1614 797.5 1692 c 128,-1,12
 896 1770 896 1770 1059 1770 c 1,13,-1
 1059 1494 l 1,14,15
 953 1494 953 1494 953 1362 c 2,16,-1
 953 906 l 1,17,-1
 588 906 l 1,18,-1
 588 1116 l 2,19,20
 588 1168 588 1168 573 1203.5 c 128,-1,21
 558 1239 558 1239 508 1239 c 0,22,23
 420 1239 420 1239 420 1114 c 2,24,-1
 420 387 l 2,25,26
 420 341 420 341 440 302.5 c 128,-1,27
 460 264 460 264 506 264 c 0,28,29
 553 264 553 264 571.5 301.5 c 128,-1,30
 590 339 590 339 590 389 c 2,31,-1
 590 641 l 1,32,-1
 953 641 l 1,33,-1
 953 379 l 2,34,35
 953 255 953 255 897.5 166.5 c 128,-1,36
 842 78 842 78 745 31 c 128,-1,37
 648 -16 648 -16 523 -16 c 0,0,1
EndSplineSet
EndChar

StartChar: circumflex
Encoding: 710 710 512
Width: 970
GlyphClass: 1
Flags: W
LayerCount: 2
Fore
SplineSet
40 1591 m 1,0,-1
 281 1994 l 1,1,-1
 689 1994 l 1,2,-1
 930 1591 l 1,3,-1
 571 1591 l 1,4,-1
 485 1876 l 1,5,-1
 399 1591 l 1,6,-1
 40 1591 l 1,0,-1
EndSplineSet
EndChar

StartChar: uni032D
Encoding: 813 813 513
Width: 0
GlyphClass: 4
Flags: W
AnchorPoint: "Anclaje-11" 0 -505 basemark 0
AnchorPoint: "Anclaje-11" 0 0 mark 0
AnchorPoint: "Anclaje-9" 0 0 mark 0
AnchorPoint: "Anclaje-7" 0 0 mark 0
LayerCount: 2
Fore
SplineSet
-445 -512 m 1,0,-1
 -204 -109 l 1,1,-1
 204 -109 l 1,2,-1
 445 -512 l 1,3,-1
 86 -512 l 1,4,-1
 0 -227 l 1,5,-1
 -86 -512 l 1,6,-1
 -445 -512 l 1,0,-1
EndSplineSet
EndChar

StartChar: uni0302
Encoding: 770 770 514
Width: 0
GlyphClass: 4
Flags: W
AnchorPoint: "Anclaje-14" 0 1996 basemark 0
AnchorPoint: "Anclaje-13" 0 1500 mark 0
AnchorPoint: "Anclaje-8" 0 1500 mark 0
AnchorPoint: "Anclaje-6" 0 1500 mark 0
LayerCount: 2
Fore
SplineSet
-445 1591 m 1,0,-1
 -204 1994 l 1,1,-1
 204 1994 l 1,2,-1
 445 1591 l 1,3,-1
 86 1591 l 1,4,-1
 0 1876 l 1,5,-1
 -86 1591 l 1,6,-1
 -445 1591 l 1,0,-1
EndSplineSet
Substitution2: "'case' Formas sensible a may+APoA-sculas en Latin b+APoA-squeda 26 subtabla" uni0302.case
Substitution2: "Single Substitution b+APoA-squeda 7 subtabla" uni0302.case
Substitution2: "Single Substitution b+APoA-squeda 6 subtabla" uni0302.case
Substitution2: "Single Substitution b+APoA-squeda 4 subtabla" uni0302.case
Substitution2: "Single Substitution b+APoA-squeda 3 subtabla" uni0302.case
Substitution2: "'aalt' Activar todas las variantes en Latin b+APoA-squeda 0 subtabla" uni0302.case
EndChar

StartChar: uni0302.case
Encoding: 65602 -1 515
Width: 0
GlyphClass: 4
Flags: W
AnchorPoint: "Anclaje-14" 0 1972 basemark 0
AnchorPoint: "Anclaje-14" 0 1500 mark 0
AnchorPoint: "Anclaje-5" 0 1500 mark 0
LayerCount: 2
Fore
SplineSet
-445 1601 m 1,0,-1
 -204 1934 l 1,1,-1
 204 1934 l 1,2,-1
 445 1601 l 1,3,-1
 86 1601 l 1,4,-1
 0 1816 l 1,5,-1
 -86 1601 l 1,6,-1
 -445 1601 l 1,0,-1
EndSplineSet
EndChar

StartChar: uni03020301
Encoding: 65603 -1 516
Width: 0
GlyphClass: 4
Flags: W
AnchorPoint: "Anclaje-14" 0 1500 mark 0
AnchorPoint: "Anclaje-13" 0 2127 basemark 0
AnchorPoint: "Anclaje-5" 0 1500 mark 0
LayerCount: 2
Fore
SplineSet
314 1832 m 1,0,-1
 478 2127 l 1,1,-1
 785 2127 l 1,2,-1
 547 1832 l 1,3,-1
 314 1832 l 1,0,-1
-445 1591 m 1,4,-1
 -204 1894 l 1,5,-1
 204 1894 l 1,6,-1
 445 1591 l 1,7,-1
 90 1591 l 1,8,-1
 0 1786 l 1,9,-1
 -90 1591 l 1,10,-1
 -445 1591 l 1,4,-1
EndSplineSet
Substitution2: "'case' Formas sensible a may+APoA-sculas en Latin b+APoA-squeda 26 subtabla" uni03020301.case
Ligature2: "'ccmp' Composici+APMA-n/descomposici+APMA-n de glifos en Latin b+APoA-squeda 10 subtabla" uni0302 acutecomb
Substitution2: "Single Substitution b+APoA-squeda 7 subtabla" uni03020301.case
Substitution2: "Single Substitution b+APoA-squeda 6 subtabla" uni03020301.case
Substitution2: "Single Substitution b+APoA-squeda 4 subtabla" uni03020301.case
Substitution2: "Single Substitution b+APoA-squeda 3 subtabla" uni03020301.case
Substitution2: "'aalt' Activar todas las variantes en Latin b+APoA-squeda 0 subtabla" uni03020301.case
EndChar

StartChar: uni03020301.case
Encoding: 65604 -1 517
Width: 0
GlyphClass: 4
Flags: W
AnchorPoint: "Anclaje-14" 0 1760 mark 0
AnchorPoint: "Anclaje-13" 0 2204 basemark 0
AnchorPoint: "Anclaje-5" 0 1760 mark 0
LayerCount: 2
Fore
SplineSet
289 2000 m 1,0,-1
 403 2204 l 1,1,-1
 710 2204 l 1,2,-1
 522 2000 l 1,3,-1
 289 2000 l 1,0,-1
-384 1839 m 1,4,-1
 -147 2093 l 1,5,-1
 147 2093 l 1,6,-1
 384 1839 l 1,7,-1
 99 1839 l 1,8,-1
 0 1974 l 1,9,-1
 -99 1839 l 1,10,-1
 -384 1839 l 1,4,-1
EndSplineSet
Ligature2: "'ccmp' Composici+APMA-n/descomposici+APMA-n de glifos en Latin b+APoA-squeda 10 subtabla" uni0302.case acutecomb.case
EndChar

StartChar: uni03020300
Encoding: 65605 -1 518
Width: 0
GlyphClass: 4
Flags: W
AnchorPoint: "Anclaje-14" 0 1500 mark 0
AnchorPoint: "Anclaje-13" 0 2127 basemark 0
AnchorPoint: "Anclaje-5" 0 1500 mark 0
LayerCount: 2
Fore
SplineSet
372 1832 m 1,0,-1
 134 2127 l 1,1,-1
 441 2127 l 1,2,-1
 605 1832 l 1,3,-1
 372 1832 l 1,0,-1
-445 1591 m 1,4,-1
 -204 1894 l 1,5,-1
 204 1894 l 1,6,-1
 445 1591 l 1,7,-1
 90 1591 l 1,8,-1
 0 1786 l 1,9,-1
 -90 1591 l 1,10,-1
 -445 1591 l 1,4,-1
EndSplineSet
Substitution2: "'case' Formas sensible a may+APoA-sculas en Latin b+APoA-squeda 26 subtabla" uni03020300.case
Ligature2: "'ccmp' Composici+APMA-n/descomposici+APMA-n de glifos en Latin b+APoA-squeda 10 subtabla" uni0302 gravecomb
Substitution2: "Single Substitution b+APoA-squeda 7 subtabla" uni03020300.case
Substitution2: "Single Substitution b+APoA-squeda 6 subtabla" uni03020300.case
Substitution2: "Single Substitution b+APoA-squeda 4 subtabla" uni03020300.case
Substitution2: "Single Substitution b+APoA-squeda 3 subtabla" uni03020300.case
Substitution2: "'aalt' Activar todas las variantes en Latin b+APoA-squeda 0 subtabla" uni03020300.case
EndChar

StartChar: uni03020300.case
Encoding: 65606 -1 519
Width: 0
GlyphClass: 4
Flags: W
AnchorPoint: "Anclaje-14" 0 1760 mark 0
AnchorPoint: "Anclaje-13" 0 2204 basemark 0
AnchorPoint: "Anclaje-5" 0 1760 mark 0
LayerCount: 2
Fore
SplineSet
356 2000 m 1,0,-1
 168 2204 l 1,1,-1
 475 2204 l 1,2,-1
 589 2000 l 1,3,-1
 356 2000 l 1,0,-1
-384 1839 m 1,4,-1
 -147 2093 l 1,5,-1
 147 2093 l 1,6,-1
 384 1839 l 1,7,-1
 99 1839 l 1,8,-1
 0 1974 l 1,9,-1
 -99 1839 l 1,10,-1
 -384 1839 l 1,4,-1
EndSplineSet
Ligature2: "'ccmp' Composici+APMA-n/descomposici+APMA-n de glifos en Latin b+APoA-squeda 10 subtabla" uni0302.case gravecomb.case
EndChar

StartChar: uni03020309
Encoding: 65607 -1 520
Width: 0
GlyphClass: 4
Flags: W
AnchorPoint: "Anclaje-14" 0 1500 mark 0
AnchorPoint: "Anclaje-13" 0 2343 basemark 0
AnchorPoint: "Anclaje-5" 0 1500 mark 0
LayerCount: 2
Fore
SplineSet
361 1797 m 1,0,-1
 255 1921 l 1,1,2
 309 1941 309 1941 342 1971 c 128,-1,3
 375 2001 375 2001 375 2051 c 0,4,5
 375 2146 375 2146 274 2146 c 0,6,7
 227 2146 227 2146 184 2130 c 1,8,-1
 184 2310 l 1,9,10
 272 2343 272 2343 367 2343 c 0,11,12
 492 2343 492 2343 562.5 2280.5 c 128,-1,13
 633 2218 633 2218 633 2105 c 0,14,15
 633 1978 633 1978 555 1905.5 c 128,-1,16
 477 1833 477 1833 361 1797 c 1,0,-1
-395 1591 m 1,17,-1
 -174 1904 l 1,18,-1
 174 1904 l 1,19,-1
 395 1591 l 1,20,-1
 90 1591 l 1,21,-1
 0 1786 l 1,22,-1
 -90 1591 l 1,23,-1
 -395 1591 l 1,17,-1
EndSplineSet
Substitution2: "'case' Formas sensible a may+APoA-sculas en Latin b+APoA-squeda 26 subtabla" uni03020309.case
Ligature2: "'ccmp' Composici+APMA-n/descomposici+APMA-n de glifos en Latin b+APoA-squeda 10 subtabla" uni0302 hookabovecomb
Substitution2: "Single Substitution b+APoA-squeda 7 subtabla" uni03020309.case
Substitution2: "Single Substitution b+APoA-squeda 6 subtabla" uni03020309.case
Substitution2: "Single Substitution b+APoA-squeda 4 subtabla" uni03020309.case
Substitution2: "Single Substitution b+APoA-squeda 3 subtabla" uni03020309.case
Substitution2: "'aalt' Activar todas las variantes en Latin b+APoA-squeda 0 subtabla" uni03020309.case
EndChar

StartChar: uni03020309.case
Encoding: 65608 -1 521
Width: 0
GlyphClass: 4
Flags: W
AnchorPoint: "Anclaje-14" 0 1760 mark 0
AnchorPoint: "Anclaje-13" 0 2299 basemark 0
AnchorPoint: "Anclaje-5" 0 1760 mark 0
LayerCount: 2
Fore
SplineSet
370 1959 m 1,0,-1
 304 2036 l 1,1,2
 338 2049 338 2049 358.5 2067.5 c 128,-1,3
 379 2086 379 2086 379 2117 c 0,4,5
 379 2176 379 2176 316 2176 c 0,6,7
 288 2176 288 2176 260 2166 c 1,8,-1
 260 2278 l 1,9,10
 317 2299 317 2299 374 2299 c 0,11,12
 451 2299 451 2299 495 2260 c 128,-1,13
 539 2221 539 2221 539 2151 c 0,14,15
 539 2072 539 2072 490.5 2027 c 128,-1,16
 442 1982 442 1982 370 1959 c 1,0,-1
-384 1839 m 1,17,-1
 -147 2093 l 1,18,-1
 147 2093 l 1,19,-1
 384 1839 l 1,20,-1
 99 1839 l 1,21,-1
 0 1974 l 1,22,-1
 -99 1839 l 1,23,-1
 -384 1839 l 1,17,-1
EndSplineSet
Ligature2: "'ccmp' Composici+APMA-n/descomposici+APMA-n de glifos en Latin b+APoA-squeda 10 subtabla" uni0302.case hookabovecomb.case
EndChar

StartChar: uni03020303
Encoding: 65609 -1 522
Width: 0
GlyphClass: 4
Flags: W
AnchorPoint: "Anclaje-14" 0 1500 mark 0
AnchorPoint: "Anclaje-13" 0 2280 basemark 0
AnchorPoint: "Anclaje-13" 0 1500 mark 0
AnchorPoint: "Anclaje-8" 0 1500 mark 0
AnchorPoint: "Anclaje-6" 0 1500 mark 0
AnchorPoint: "Anclaje-5" 0 1500 mark 0
LayerCount: 2
Fore
SplineSet
165 1969 m 0,0,1
 105 1969 105 1969 52.5 1992 c 128,-1,2
 0 2015 0 2015 -50 2037.5 c 128,-1,3
 -100 2060 -100 2060 -153 2060 c 0,4,5
 -185 2060 -185 2060 -213 2045 c 128,-1,6
 -241 2030 -241 2030 -265 1992 c 1,7,-1
 -413 2070 l 1,8,9
 -378 2156 -378 2156 -330.5 2218 c 128,-1,10
 -283 2280 -283 2280 -183 2280 c 0,11,12
 -121 2280 -121 2280 -68.5 2257.5 c 128,-1,13
 -16 2235 -16 2235 33 2212 c 128,-1,14
 82 2189 82 2189 135 2189 c 0,15,16
 173 2189 173 2189 197.5 2206 c 128,-1,17
 222 2223 222 2223 247 2264 c 1,18,-1
 413 2210 l 1,19,20
 389 2148 389 2148 360 2092.5 c 128,-1,21
 331 2037 331 2037 285.5 2003 c 128,-1,22
 240 1969 240 1969 165 1969 c 0,0,1
-445 1591 m 1,23,-1
 -204 1894 l 1,24,-1
 204 1894 l 1,25,-1
 445 1591 l 1,26,-1
 90 1591 l 1,27,-1
 0 1786 l 1,28,-1
 -90 1591 l 1,29,-1
 -445 1591 l 1,23,-1
EndSplineSet
Substitution2: "'case' Formas sensible a may+APoA-sculas en Latin b+APoA-squeda 26 subtabla" uni03020303.case
Ligature2: "'ccmp' Composici+APMA-n/descomposici+APMA-n de glifos en Latin b+APoA-squeda 10 subtabla" uni0302 tildecomb
Substitution2: "Single Substitution b+APoA-squeda 7 subtabla" uni03020303.case
Substitution2: "Single Substitution b+APoA-squeda 6 subtabla" uni03020303.case
Substitution2: "Single Substitution b+APoA-squeda 4 subtabla" uni03020303.case
Substitution2: "Single Substitution b+APoA-squeda 3 subtabla" uni03020303.case
Substitution2: "'aalt' Activar todas las variantes en Latin b+APoA-squeda 0 subtabla" uni03020303.case
EndChar

StartChar: uni03020303.case
Encoding: 65610 -1 523
Width: 0
GlyphClass: 4
Flags: W
AnchorPoint: "Anclaje-14" 0 1760 mark 0
AnchorPoint: "Anclaje-13" 0 2375 basemark 0
AnchorPoint: "Anclaje-5" 0 1760 mark 0
LayerCount: 2
Fore
SplineSet
120 2142 m 0,0,1
 75 2142 75 2142 35.5 2159 c 128,-1,2
 -4 2176 -4 2176 -41.5 2193 c 128,-1,3
 -79 2210 -79 2210 -119 2210 c 0,4,5
 -143 2210 -143 2210 -164 2199 c 128,-1,6
 -185 2188 -185 2188 -203 2159 c 1,7,-1
 -314 2217 l 1,8,9
 -288 2282 -288 2282 -252 2328.5 c 128,-1,10
 -216 2375 -216 2375 -141 2375 c 0,11,12
 -94 2375 -94 2375 -55 2358 c 128,-1,13
 -16 2341 -16 2341 21 2324 c 128,-1,14
 58 2307 58 2307 98 2307 c 0,15,16
 148 2307 148 2307 182 2363 c 1,17,-1
 307 2323 l 1,18,19
 279 2253 279 2253 242 2197.5 c 128,-1,20
 205 2142 205 2142 120 2142 c 0,0,1
-384 1839 m 1,21,-1
 -147 2093 l 1,22,-1
 147 2093 l 1,23,-1
 384 1839 l 1,24,-1
 99 1839 l 1,25,-1
 0 1974 l 1,26,-1
 -99 1839 l 1,27,-1
 -384 1839 l 1,21,-1
EndSplineSet
Ligature2: "'ccmp' Composici+APMA-n/descomposici+APMA-n de glifos en Latin b+APoA-squeda 10 subtabla" uni0302.case tildecomb.case
EndChar

StartChar: uni01C2
Encoding: 450 450 524
Width: 683
GlyphClass: 1
Flags: W
LayerCount: 2
Fore
SplineSet
173 -186 m 1,0,-1
 173 348 l 1,1,-1
 -10 348 l 1,2,-1
 -10 644 l 1,3,-1
 173 644 l 1,4,-1
 173 938 l 1,5,-1
 -10 938 l 1,6,-1
 -10 1234 l 1,7,-1
 173 1234 l 1,8,-1
 173 1760 l 1,9,-1
 513 1760 l 1,10,-1
 513 1234 l 1,11,-1
 693 1234 l 1,12,-1
 693 938 l 1,13,-1
 513 938 l 1,14,-1
 513 644 l 1,15,-1
 693 644 l 1,16,-1
 693 348 l 1,17,-1
 513 348 l 1,18,-1
 513 -186 l 1,19,-1
 173 -186 l 1,0,-1
EndSplineSet
EndChar

StartChar: uni01C0
Encoding: 448 448 525
Width: 464
GlyphClass: 1
Flags: W
LayerCount: 2
Fore
SplineSet
62 -186 m 1,0,-1
 62 1760 l 1,1,-1
 402 1760 l 1,2,-1
 402 -186 l 1,3,-1
 62 -186 l 1,0,-1
EndSplineSet
EndChar

StartChar: uni01C1
Encoding: 449 449 526
Width: 1004
GlyphClass: 1
Flags: W
LayerCount: 2
Fore
SplineSet
62 -186 m 1,0,-1
 62 1760 l 1,1,-1
 402 1760 l 1,2,-1
 402 -186 l 1,3,-1
 62 -186 l 1,0,-1
602 -186 m 1,4,-1
 602 1760 l 1,5,-1
 942 1760 l 1,6,-1
 942 -186 l 1,7,-1
 602 -186 l 1,4,-1
EndSplineSet
EndChar

StartChar: colon
Encoding: 58 58 528
Width: 495
GlyphClass: 1
Flags: W
LayerCount: 2
Fore
SplineSet
68 976 m 1,0,-1
 68 1274 l 1,1,-1
 426 1274 l 1,2,-1
 426 976 l 1,3,-1
 68 976 l 1,0,-1
68 237 m 1,4,-1
 68 535 l 1,5,-1
 426 535 l 1,6,-1
 426 237 l 1,7,-1
 68 237 l 1,4,-1
EndSplineSet
EndChar

StartChar: colonmonetary
Encoding: 8353 8353 530
Width: 1042
GlyphClass: 1
Flags: W
LayerCount: 2
Fore
SplineSet
173 -113 m 1,0,-1
 219 108 l 1,1,2
 128 217 128 217 128 391 c 2,3,-1
 128 1129 l 2,4,5
 128 1360 128 1360 222 1480 c 128,-1,6
 316 1600 316 1600 527 1600 c 1,7,-1
 543 1679 l 1,8,-1
 648 1679 l 1,9,-1
 630 1591 l 1,10,11
 667 1583 667 1583 701 1570 c 1,12,-1
 723 1679 l 1,13,-1
 828 1679 l 1,14,-1
 794 1515 l 1,15,16
 848 1470 848 1470 878 1399.5 c 128,-1,17
 908 1329 908 1329 908 1232 c 2,18,-1
 908 952 l 1,19,-1
 678 952 l 1,20,-1
 528 228 l 1,21,22
 595 232 595 232 624.5 281.5 c 128,-1,23
 654 331 654 331 654 408 c 2,24,-1
 654 682 l 1,25,-1
 915 682 l 1,26,-1
 915 381 l 2,27,28
 915 173 915 173 810 76 c 128,-1,29
 705 -21 705 -21 520 -21 c 0,30,31
 498 -21 498 -21 477 -19 c 1,32,-1
 458 -113 l 1,33,-1
 353 -113 l 1,34,-1
 377 1 l 1,35,36
 340 13 340 13 308 32 c 1,37,-1
 278 -113 l 1,38,-1
 173 -113 l 1,0,-1
384 1161 m 2,39,-1
 384 909 l 1,40,-1
 472 1335 l 1,41,42
 417 1321 417 1321 400.5 1274.5 c 128,-1,43
 384 1228 384 1228 384 1161 c 2,39,-1
384 401 m 1,44,45
 386 297 386 297 429 257 c 1,46,-1
 637 1264 l 1,47,48
 619 1314 619 1314 576 1331 c 1,49,-1
 384 401 l 1,44,45
EndSplineSet
EndChar

StartChar: comma
Encoding: 44 44 531
Width: 484
GlyphClass: 1
Flags: W
LayerCount: 2
Fore
SplineSet
116 -235 m 1,0,-1
 182 1 l 1,1,-1
 55 1 l 1,2,-1
 55 299 l 1,3,-1
 429 299 l 1,4,-1
 429 10 l 1,5,-1
 327 -235 l 1,6,-1
 116 -235 l 1,0,-1
EndSplineSet
Substitution2: "'dnom' Denominadores en Latin b+APoA-squeda 31 subtabla" comma.dnom
Substitution2: "'numr' Numeradores en Latin b+APoA-squeda 30 subtabla" comma.numr
Substitution2: "'sups' Supra+AO0A-ndice en Latin b+APoA-squeda 17 subtabla" comma.sups
AlternateSubs2: "'aalt' Activar todas las variantes en Latin b+APoA-squeda 1 subtabla" comma.dnom comma.numr comma.sups
EndChar

StartChar: comma.dnom
Encoding: 65611 -1 532
Width: 464
GlyphClass: 1
Flags: W
LayerCount: 2
Fore
SplineSet
107 -215 m 1,0,-1
 167 0 l 1,1,-1
 72 0 l 1,2,-1
 72 271 l 1,3,-1
 392 271 l 1,4,-1
 392 8 l 1,5,-1
 299 -215 l 1,6,-1
 107 -215 l 1,0,-1
EndSplineSet
EndChar

StartChar: comma.numr
Encoding: 65612 -1 533
Width: 464
GlyphClass: 1
Flags: W
LayerCount: 2
Fore
SplineSet
107 926 m 1,0,-1
 167 1141 l 1,1,-1
 72 1141 l 1,2,-1
 72 1412 l 1,3,-1
 392 1412 l 1,4,-1
 392 1149 l 1,5,-1
 299 926 l 1,6,-1
 107 926 l 1,0,-1
EndSplineSet
EndChar

StartChar: uni0313
Encoding: 787 787 535
Width: 0
GlyphClass: 4
Flags: W
AnchorPoint: "Anclaje-13" 0 2190 basemark 0
AnchorPoint: "Anclaje-13" 0 1500 mark 0
AnchorPoint: "Anclaje-8" 0 1500 mark 0
AnchorPoint: "Anclaje-6" 0 1500 mark 0
LayerCount: 2
Fore
SplineSet
-187 1656 m 1,0,-1
 -187 1945 l 1,1,-1
 -85 2190 l 1,2,-1
 126 2190 l 1,3,-1
 60 1954 l 1,4,-1
 187 1954 l 1,5,-1
 187 1656 l 1,6,-1
 -187 1656 l 1,0,-1
EndSplineSet
EndChar

StartChar: uni0326
Encoding: 806 806 536
Width: 0
GlyphClass: 4
Flags: W
AnchorPoint: "Anclaje-11" -12 -643 basemark 0
AnchorPoint: "Anclaje-11" 1 0 mark 0
AnchorPoint: "Anclaje-9" 1 0 mark 0
AnchorPoint: "Anclaje-7" 1 0 mark 0
LayerCount: 2
Fore
SplineSet
-138 -643 m 1,0,-1
 -72 -407 l 1,1,-1
 -199 -407 l 1,2,-1
 -199 -109 l 1,3,-1
 175 -109 l 1,4,-1
 175 -398 l 1,5,-1
 73 -643 l 1,6,-1
 -138 -643 l 1,0,-1
EndSplineSet
Substitution2: "'case' Formas sensible a may+APoA-sculas en Latin b+APoA-squeda 26 subtabla" uni0326.case
Substitution2: "Single Substitution b+APoA-squeda 7 subtabla" uni0326.case
Substitution2: "Single Substitution b+APoA-squeda 6 subtabla" uni0326.case
Substitution2: "Single Substitution b+APoA-squeda 4 subtabla" uni0326.case
Substitution2: "Single Substitution b+APoA-squeda 3 subtabla" uni0326.case
Substitution2: "'aalt' Activar todas las variantes en Latin b+APoA-squeda 0 subtabla" uni0326.case
EndChar

StartChar: uni0326.alt
Encoding: 65614 -1 537
Width: 0
GlyphClass: 1
Flags: W
LayerCount: 2
Fore
SplineSet
126 1725 m 1,0,-1
 126 2014 l 1,1,-1
 228 2259 l 1,2,-1
 439 2259 l 1,3,-1
 373 2023 l 1,4,-1
 500 2023 l 1,5,-1
 500 1725 l 1,6,-1
 126 1725 l 1,0,-1
EndSplineSet
EndChar

StartChar: uni0326.case
Encoding: 65615 -1 538
Width: 0
GlyphClass: 4
Flags: W
AnchorPoint: "Anclaje-11" -12 -643 basemark 0
AnchorPoint: "Anclaje-11" -12 0 mark 0
AnchorPoint: "Anclaje-9" -12 0 mark 0
AnchorPoint: "Anclaje-7" -12 0 mark 0
LayerCount: 2
Fore
SplineSet
-138 -643 m 1,0,-1
 -72 -407 l 1,1,-1
 -199 -407 l 1,2,-1
 -199 -109 l 1,3,-1
 175 -109 l 1,4,-1
 175 -398 l 1,5,-1
 73 -643 l 1,6,-1
 -138 -643 l 1,0,-1
EndSplineSet
EndChar

StartChar: uni0312
Encoding: 786 786 539
Width: 0
GlyphClass: 4
Flags: W
AnchorPoint: "Anclaje-13" 0 2190 basemark 0
AnchorPoint: "Anclaje-13" 0 1500 mark 0
AnchorPoint: "Anclaje-8" 0 1500 mark 0
AnchorPoint: "Anclaje-6" 0 1500 mark 0
LayerCount: 2
Fore
SplineSet
-187 1656 m 1,0,-1
 -187 1945 l 1,1,-1
 -85 2190 l 1,2,-1
 126 2190 l 1,3,-1
 60 1954 l 1,4,-1
 187 1954 l 1,5,-1
 187 1656 l 1,6,-1
 -187 1656 l 1,0,-1
EndSplineSet
Substitution2: "'case' Formas sensible a may+APoA-sculas en Latin b+APoA-squeda 26 subtabla" uni0312.case
Substitution2: "Single Substitution b+APoA-squeda 7 subtabla" uni0312.case
Substitution2: "Single Substitution b+APoA-squeda 6 subtabla" uni0312.case
Substitution2: "Single Substitution b+APoA-squeda 4 subtabla" uni0312.case
Substitution2: "Single Substitution b+APoA-squeda 3 subtabla" uni0312.case
Substitution2: "'aalt' Activar todas las variantes en Latin b+APoA-squeda 0 subtabla" uni0312.case
EndChar

StartChar: uni0312.case
Encoding: 65616 -1 540
Width: 0
GlyphClass: 4
Flags: W
AnchorPoint: "Anclaje-13" 0 2300 basemark 0
AnchorPoint: "Anclaje-13" 0 1760 mark 0
AnchorPoint: "Anclaje-8" 0 1760 mark 0
AnchorPoint: "Anclaje-6" 0 1760 mark 0
LayerCount: 2
Fore
SplineSet
-187 1766 m 1,0,-1
 -187 2055 l 1,1,-1
 -85 2300 l 1,2,-1
 126 2300 l 1,3,-1
 60 2064 l 1,4,-1
 187 2064 l 1,5,-1
 187 1766 l 1,6,-1
 -187 1766 l 1,0,-1
EndSplineSet
EndChar

StartChar: uni02BB
Encoding: 699 699 541
Width: 600
GlyphClass: 1
Flags: W
LayerCount: 2
Fore
SplineSet
104 966 m 1,0,-1
 104 1255 l 1,1,-1
 206 1500 l 1,2,-1
 417 1500 l 1,3,-1
 351 1264 l 1,4,-1
 478 1264 l 1,5,-1
 478 966 l 1,6,-1
 104 966 l 1,0,-1
EndSplineSet
EndChar

StartChar: uni2052
Encoding: 8274 8274 542
Width: 980
GlyphClass: 1
Flags: W
LayerCount: 2
Fore
SplineSet
55 1462 m 1,0,-1
 55 1760 l 1,1,-1
 363 1760 l 1,2,-1
 363 1462 l 1,3,-1
 55 1462 l 1,0,-1
159 0 m 1,4,-1
 569 1760 l 1,5,-1
 823 1760 l 1,6,-1
 412 0 l 1,7,-1
 159 0 l 1,4,-1
617 0 m 1,8,-1
 617 298 l 1,9,-1
 925 298 l 1,10,-1
 925 0 l 1,11,-1
 617 0 l 1,8,-1
EndSplineSet
EndChar

StartChar: copyright
Encoding: 169 169 543
Width: 1382
GlyphClass: 1
Flags: W
LayerCount: 2
Fore
SplineSet
691 205 m 256,0,1
 551 205 551 205 431.5 254.5 c 128,-1,2
 312 304 312 304 222.5 393.5 c 128,-1,3
 133 483 133 483 83.5 602.5 c 128,-1,4
 34 722 34 722 34 862 c 256,5,6
 34 1002 34 1002 83.5 1121.5 c 128,-1,7
 133 1241 133 1241 222.5 1330.5 c 128,-1,8
 312 1420 312 1420 431.5 1469.5 c 128,-1,9
 551 1519 551 1519 691 1519 c 256,10,11
 831 1519 831 1519 950.5 1469.5 c 128,-1,12
 1070 1420 1070 1420 1159.5 1330.5 c 128,-1,13
 1249 1241 1249 1241 1298.5 1121.5 c 128,-1,14
 1348 1002 1348 1002 1348 862 c 256,15,16
 1348 722 1348 722 1298.5 602.5 c 128,-1,17
 1249 483 1249 483 1159.5 393.5 c 128,-1,18
 1070 304 1070 304 950.5 254.5 c 128,-1,19
 831 205 831 205 691 205 c 256,0,1
691 334 m 0,20,21
 836 334 836 334 948 405.5 c 128,-1,22
 1060 477 1060 477 1124.5 597 c 128,-1,23
 1189 717 1189 717 1189 862 c 0,24,25
 1189 1008 1189 1008 1124.5 1127.5 c 128,-1,26
 1060 1247 1060 1247 948 1318.5 c 128,-1,27
 836 1390 836 1390 691 1390 c 0,28,29
 547 1390 547 1390 434.5 1318.5 c 128,-1,30
 322 1247 322 1247 257.5 1127.5 c 128,-1,31
 193 1008 193 1008 193 862 c 0,32,33
 193 717 193 717 257.5 597 c 128,-1,34
 322 477 322 477 434.5 405.5 c 128,-1,35
 547 334 547 334 691 334 c 0,20,21
685 424 m 0,36,37
 581 424 581 424 518 483 c 128,-1,38
 455 542 455 542 455 648 c 2,39,-1
 455 1049 l 2,40,41
 455 1175 455 1175 510 1240 c 128,-1,42
 565 1305 565 1305 689 1305 c 0,43,44
 790 1305 790 1305 857 1255.5 c 128,-1,45
 924 1206 924 1206 924 1105 c 2,46,-1
 924 952 l 1,47,-1
 735 952 l 1,48,-1
 735 1053 l 2,49,50
 735 1130 735 1130 689 1130 c 0,51,52
 661 1130 661 1130 653 1112.5 c 128,-1,53
 645 1095 645 1095 645 1066 c 2,54,-1
 645 657 l 2,55,56
 645 635 645 635 656.5 613.5 c 128,-1,57
 668 592 668 592 689 592 c 0,58,59
 735 592 735 592 735 657 c 2,60,-1
 735 806 l 1,61,-1
 928 806 l 1,62,-1
 928 643 l 2,63,64
 928 424 928 424 685 424 c 0,36,37
EndSplineSet
EndChar

StartChar: uni023C
Encoding: 572 572 544
Width: 1006
GlyphClass: 2
Flags: W
AnchorPoint: "Anclaje-6" 515 1500 basechar 0
AnchorPoint: "Anclaje-0" 514 0 basechar 0
LayerCount: 2
Fore
SplineSet
201 -186 m 1,0,-1
 259 38 l 1,1,2
 153 95 153 95 106.5 209 c 128,-1,3
 60 323 60 323 60 492 c 2,4,-1
 60 954 l 2,5,6
 60 1142 60 1142 100 1267 c 128,-1,7
 140 1392 140 1392 240 1454 c 128,-1,8
 340 1516 340 1516 518 1516 c 0,9,10
 583 1516 583 1516 641 1504 c 1,11,-1
 706 1760 l 1,12,-1
 846 1760 l 1,13,-1
 770 1457 l 1,14,15
 854 1411 854 1411 903.5 1329.5 c 128,-1,16
 953 1248 953 1248 953 1135 c 2,17,-1
 953 906 l 1,18,-1
 588 906 l 1,19,-1
 588 1116 l 2,20,21
 588 1168 588 1168 573 1203.5 c 128,-1,22
 558 1239 558 1239 508 1239 c 0,23,24
 420 1239 420 1239 420 1114 c 2,25,-1
 420 387 l 2,26,27
 420 341 420 341 440 302.5 c 128,-1,28
 460 264 460 264 506 264 c 0,29,30
 553 264 553 264 571.5 301.5 c 128,-1,31
 590 339 590 339 590 389 c 2,32,-1
 590 641 l 1,33,-1
 953 641 l 1,34,-1
 953 379 l 2,35,36
 953 255 953 255 897.5 166.5 c 128,-1,37
 842 78 842 78 745 31 c 128,-1,38
 648 -16 648 -16 523 -16 c 0,39,40
 449 -16 449 -16 388 -5 c 1,41,-1
 341 -186 l 1,42,-1
 201 -186 l 1,0,-1
EndSplineSet
EndChar

StartChar: currency
Encoding: 164 164 545
Width: 1000
GlyphClass: 1
Flags: W
LayerCount: 2
Fore
SplineSet
194 509 m 1,0,-1
 45 659 l 1,1,-1
 136 750 l 1,2,3
 83 848 83 848 83 964 c 0,4,5
 83 1081 83 1081 135 1178 c 1,6,-1
 45 1268 l 1,7,-1
 194 1418 l 1,8,-1
 281 1330 l 1,9,10
 378 1385 378 1385 499 1385 c 256,11,12
 620 1385 620 1385 717 1331 c 1,13,-1
 804 1418 l 1,14,-1
 954 1269 l 1,15,-1
 864 1179 l 1,16,17
 918 1082 918 1082 918 964 c 256,18,19
 918 846 918 846 864 748 c 1,20,-1
 954 658 l 1,21,-1
 804 509 l 1,22,-1
 715 597 l 1,23,24
 623 545 623 545 499 545 c 256,25,26
 375 545 375 545 283 598 c 1,27,-1
 194 509 l 1,0,-1
499 741 m 256,28,29
 594 741 594 741 651 807 c 128,-1,30
 708 873 708 873 708 966 c 0,31,32
 708 1061 708 1061 652 1123.5 c 128,-1,33
 596 1186 596 1186 499 1186 c 0,34,35
 405 1186 405 1186 348 1121 c 128,-1,36
 291 1056 291 1056 291 964 c 0,37,38
 291 871 291 871 347.5 806 c 128,-1,39
 404 741 404 741 499 741 c 256,28,29
EndSplineSet
EndChar

StartChar: d
Encoding: 100 100 546
Width: 1020
GlyphClass: 2
Flags: W
AnchorPoint: "Anclaje-7" 552 0 basechar 0
AnchorPoint: "Anclaje-6" 769 1760 basechar 0
AnchorPoint: "Anclaje-4" 510 750 basechar 0
AnchorPoint: "Anclaje-2" 767 1629 basechar 0
LayerCount: 2
Fore
SplineSet
367 -16 m 0,0,1
 263 -16 263 -16 202 22 c 128,-1,2
 141 60 141 60 111 127 c 128,-1,3
 81 194 81 194 71.5 284 c 128,-1,4
 62 374 62 374 62 477 c 2,5,-1
 62 1129 l 2,6,7
 62 1302 62 1302 123.5 1409 c 128,-1,8
 185 1516 185 1516 332 1516 c 0,9,10
 441 1516 441 1516 499.5 1469.5 c 128,-1,11
 558 1423 558 1423 590 1340 c 1,12,-1
 590 1760 l 1,13,-1
 954 1760 l 1,14,-1
 954 0 l 1,15,-1
 590 0 l 1,16,-1
 590 159 l 1,17,18
 560 78 560 78 510.5 31 c 128,-1,19
 461 -16 461 -16 367 -16 c 0,0,1
504 264 m 0,20,21
 555 264 555 264 572.5 305 c 128,-1,22
 590 346 590 346 590 452 c 2,23,-1
 590 1083 l 2,24,25
 590 1136 590 1136 574.5 1187.5 c 128,-1,26
 559 1239 559 1239 506 1239 c 0,27,28
 448 1239 448 1239 433 1190 c 128,-1,29
 418 1141 418 1141 418 1083 c 2,30,-1
 418 452 l 2,31,32
 418 264 418 264 504 264 c 0,20,21
EndSplineSet
Substitution2: "'smcp' Min+APoA-sculas a may+APoA-sculas peque+APEA-as en Latin b+APoA-squeda 33 subtabla" d.sc
Substitution2: "'aalt' Activar todas las variantes en Latin b+APoA-squeda 0 subtabla" d.sc
EndChar

StartChar: d.sc
Encoding: 65617 -1 547
Width: 1010
GlyphClass: 2
Flags: W
AnchorPoint: "Anclaje-7" 505 0 basechar 0
AnchorPoint: "Anclaje-5" 505 1590 basechar 0
AnchorPoint: "Anclaje-4" 505 810 basechar 0
LayerCount: 2
Fore
SplineSet
78 0 m 1,0,-1
 78 1560 l 1,1,-1
 563 1560 l 2,2,3
 753 1560 753 1560 848.5 1454.5 c 128,-1,4
 944 1349 944 1349 944 1146 c 2,5,-1
 944 522 l 2,6,7
 944 272 944 272 857 136 c 128,-1,8
 770 0 770 0 551 0 c 2,9,-1
 78 0 l 1,0,-1
432 311 m 1,10,-1
 493 311 l 2,11,12
 590 311 590 311 590 405 c 2,13,-1
 590 1113 l 2,14,15
 590 1201 590 1201 566.5 1226.5 c 128,-1,16
 543 1252 543 1252 471 1252 c 2,17,-1
 432 1252 l 1,18,-1
 432 311 l 1,10,-1
EndSplineSet
EndChar

StartChar: dagger
Encoding: 8224 8224 548
Width: 789
GlyphClass: 1
Flags: W
LayerCount: 2
Fore
SplineSet
214 0 m 1,0,-1
 214 996 l 1,1,-1
 31 996 l 1,2,-1
 31 1292 l 1,3,-1
 214 1292 l 1,4,-1
 214 1592 l 1,5,-1
 578 1592 l 1,6,-1
 578 1292 l 1,7,-1
 758 1292 l 1,8,-1
 758 996 l 1,9,-1
 578 996 l 1,10,-1
 578 0 l 1,11,-1
 214 0 l 1,0,-1
EndSplineSet
EndChar

StartChar: daggerdbl
Encoding: 8225 8225 549
Width: 807
GlyphClass: 1
Flags: W
LayerCount: 2
Fore
SplineSet
223 0 m 1,0,-1
 223 350 l 1,1,-1
 40 350 l 1,2,-1
 40 646 l 1,3,-1
 223 646 l 1,4,-1
 223 940 l 1,5,-1
 40 940 l 1,6,-1
 40 1236 l 1,7,-1
 223 1236 l 1,8,-1
 223 1592 l 1,9,-1
 587 1592 l 1,10,-1
 587 1236 l 1,11,-1
 767 1236 l 1,12,-1
 767 940 l 1,13,-1
 587 940 l 1,14,-1
 587 646 l 1,15,-1
 767 646 l 1,16,-1
 767 350 l 1,17,-1
 587 350 l 1,18,-1
 587 0 l 1,19,-1
 223 0 l 1,0,-1
EndSplineSet
EndChar

StartChar: uni030F
Encoding: 783 783 550
Width: 0
GlyphClass: 4
Flags: W
AnchorPoint: "Anclaje-13" 0 1500 mark 0
AnchorPoint: "Anclaje-8" 0 1500 mark 0
AnchorPoint: "Anclaje-6" 0 1500 mark 0
LayerCount: 2
Fore
SplineSet
-197 1586 m 1,0,-1
 -486 2015 l 1,1,-1
 -252 2123 l 1,2,-1
 -31 1644 l 1,3,-1
 -197 1586 l 1,0,-1
105 1586 m 1,4,-1
 -143 2015 l 1,5,-1
 87 2123 l 1,6,-1
 271 1644 l 1,7,-1
 105 1586 l 1,4,-1
EndSplineSet
Substitution2: "'case' Formas sensible a may+APoA-sculas en Latin b+APoA-squeda 26 subtabla" uni030F.case
Substitution2: "Single Substitution b+APoA-squeda 7 subtabla" uni030F.case
Substitution2: "Single Substitution b+APoA-squeda 6 subtabla" uni030F.case
Substitution2: "Single Substitution b+APoA-squeda 4 subtabla" uni030F.case
Substitution2: "Single Substitution b+APoA-squeda 3 subtabla" uni030F.case
Substitution2: "'aalt' Activar todas las variantes en Latin b+APoA-squeda 0 subtabla" uni030F.case
EndChar

StartChar: uni030F.case
Encoding: 65618 -1 551
Width: 0
GlyphClass: 4
Flags: W
AnchorPoint: "Anclaje-13" 0 1500 mark 0
AnchorPoint: "Anclaje-8" 0 1500 mark 0
AnchorPoint: "Anclaje-6" 0 1500 mark 0
LayerCount: 2
Fore
SplineSet
-197 1586 m 1,0,-1
 -486 2015 l 1,1,-1
 -252 2123 l 1,2,-1
 -31 1644 l 1,3,-1
 -197 1586 l 1,0,-1
105 1586 m 1,4,-1
 -143 2015 l 1,5,-1
 87 2123 l 1,6,-1
 271 1644 l 1,7,-1
 105 1586 l 1,4,-1
EndSplineSet
EndChar

StartChar: dcroat
Encoding: 273 273 556
Width: 1020
GlyphClass: 2
Flags: W
AnchorPoint: "Anclaje-7" 552 0 basechar 0
AnchorPoint: "Anclaje-6" 769 1760 basechar 0
AnchorPoint: "Anclaje-4" 510 750 basechar 0
AnchorPoint: "Anclaje-2" 767 1629 basechar 0
LayerCount: 2
Fore
SplineSet
367 -16 m 0,0,1
 263 -16 263 -16 202 22 c 128,-1,2
 141 60 141 60 111 127 c 128,-1,3
 81 194 81 194 71.5 284 c 128,-1,4
 62 374 62 374 62 477 c 2,5,-1
 62 1129 l 2,6,7
 62 1302 62 1302 123.5 1409 c 128,-1,8
 185 1516 185 1516 332 1516 c 0,9,10
 441 1516 441 1516 499.5 1469.5 c 128,-1,11
 558 1423 558 1423 590 1340 c 1,12,-1
 590 1532 l 1,13,-1
 422 1532 l 1,14,-1
 422 1685 l 1,15,-1
 590 1685 l 1,16,-1
 590 1760 l 1,17,-1
 954 1760 l 1,18,-1
 954 1685 l 1,19,-1
 1072 1685 l 1,20,-1
 1072 1532 l 1,21,-1
 954 1532 l 1,22,-1
 954 0 l 1,23,-1
 590 0 l 1,24,-1
 590 159 l 1,25,26
 560 78 560 78 510.5 31 c 128,-1,27
 461 -16 461 -16 367 -16 c 0,0,1
504 264 m 0,28,29
 555 264 555 264 572.5 305 c 128,-1,30
 590 346 590 346 590 452 c 2,31,-1
 590 1083 l 2,32,33
 590 1136 590 1136 574.5 1187.5 c 128,-1,34
 559 1239 559 1239 506 1239 c 0,35,36
 448 1239 448 1239 433 1190 c 128,-1,37
 418 1141 418 1141 418 1083 c 2,38,-1
 418 452 l 2,39,40
 418 264 418 264 504 264 c 0,28,29
EndSplineSet
Substitution2: "'smcp' Min+APoA-sculas a may+APoA-sculas peque+APEA-as en Latin b+APoA-squeda 33 subtabla" dcroat.sc
Substitution2: "'aalt' Activar todas las variantes en Latin b+APoA-squeda 0 subtabla" dcroat.sc
EndChar

StartChar: degree
Encoding: 176 176 561
Width: 796
GlyphClass: 1
Flags: W
LayerCount: 2
Fore
SplineSet
397 931 m 0,0,1
 237 931 237 931 140.5 1020.5 c 128,-1,2
 44 1110 44 1110 44 1269 c 0,3,4
 44 1427 44 1427 140.5 1517 c 128,-1,5
 237 1607 237 1607 397 1607 c 0,6,7
 558 1607 558 1607 654.5 1517 c 128,-1,8
 751 1427 751 1427 751 1269 c 256,9,10
 751 1111 751 1111 654.5 1021 c 128,-1,11
 558 931 558 931 397 931 c 0,0,1
398 1112 m 256,12,13
 465 1112 465 1112 502.5 1158 c 128,-1,14
 540 1204 540 1204 540 1269 c 256,15,16
 540 1334 540 1334 502.5 1380 c 128,-1,17
 465 1426 465 1426 398 1426 c 256,18,19
 331 1426 331 1426 293.5 1380 c 128,-1,20
 256 1334 256 1334 256 1269 c 256,21,22
 256 1204 256 1204 293.5 1158 c 128,-1,23
 331 1112 331 1112 398 1112 c 256,12,13
EndSplineSet
EndChar

StartChar: uni0257
Encoding: 599 599 562
Width: 1020
GlyphClass: 1
Flags: W
LayerCount: 2
Fore
SplineSet
367 -16 m 0,0,1
 263 -16 263 -16 202 22 c 128,-1,2
 141 60 141 60 111 127 c 128,-1,3
 81 194 81 194 71.5 284 c 128,-1,4
 62 374 62 374 62 477 c 2,5,-1
 62 1129 l 2,6,7
 62 1302 62 1302 123.5 1409 c 128,-1,8
 185 1516 185 1516 332 1516 c 0,9,10
 441 1516 441 1516 499.5 1469.5 c 128,-1,11
 558 1423 558 1423 590 1341 c 1,12,-1
 590 1378 l 2,13,14
 590 1504 590 1504 629.5 1593 c 128,-1,15
 669 1682 669 1682 767 1729 c 128,-1,16
 865 1776 865 1776 1040 1776 c 1,17,-1
 1040 1500 l 1,18,19
 991 1500 991 1500 972.5 1466.5 c 128,-1,20
 954 1433 954 1433 954 1368 c 2,21,-1
 954 0 l 1,22,-1
 590 0 l 1,23,-1
 590 159 l 1,24,25
 560 78 560 78 510.5 31 c 128,-1,26
 461 -16 461 -16 367 -16 c 0,0,1
504 264 m 0,27,28
 555 264 555 264 572.5 311 c 128,-1,29
 590 358 590 358 590 452 c 2,30,-1
 590 1083 l 2,31,32
 590 1136 590 1136 574.5 1187.5 c 128,-1,33
 559 1239 559 1239 506 1239 c 0,34,35
 448 1239 448 1239 433 1190 c 128,-1,36
 418 1141 418 1141 418 1083 c 2,37,-1
 418 452 l 2,38,39
 418 264 418 264 504 264 c 0,27,28
EndSplineSet
EndChar

StartChar: dieresis
Encoding: 168 168 563
Width: 976
GlyphClass: 1
Flags: W
LayerCount: 2
Fore
SplineSet
550 1599 m 1,0,-1
 550 1897 l 1,1,-1
 908 1897 l 1,2,-1
 908 1599 l 1,3,-1
 550 1599 l 1,0,-1
66 1599 m 1,4,-1
 66 1897 l 1,5,-1
 424 1897 l 1,6,-1
 424 1599 l 1,7,-1
 66 1599 l 1,4,-1
EndSplineSet
EndChar

StartChar: uni0324
Encoding: 804 804 564
Width: 0
GlyphClass: 4
Flags: W
AnchorPoint: "Anclaje-11" 0 -417 basemark 0
AnchorPoint: "Anclaje-11" 0 0 mark 0
AnchorPoint: "Anclaje-9" 0 0 mark 0
AnchorPoint: "Anclaje-7" 0 0 mark 0
LayerCount: 2
Fore
SplineSet
63 -417 m 1,0,-1
 63 -119 l 1,1,-1
 421 -119 l 1,2,-1
 421 -417 l 1,3,-1
 63 -417 l 1,0,-1
-421 -417 m 1,4,-1
 -421 -119 l 1,5,-1
 -63 -119 l 1,6,-1
 -63 -417 l 1,7,-1
 -421 -417 l 1,4,-1
EndSplineSet
Substitution2: "'case' Formas sensible a may+APoA-sculas en Latin b+APoA-squeda 26 subtabla" uni0324.case
Substitution2: "Single Substitution b+APoA-squeda 7 subtabla" uni0324.case
Substitution2: "Single Substitution b+APoA-squeda 6 subtabla" uni0324.case
Substitution2: "Single Substitution b+APoA-squeda 4 subtabla" uni0324.case
Substitution2: "Single Substitution b+APoA-squeda 3 subtabla" uni0324.case
Substitution2: "'aalt' Activar todas las variantes en Latin b+APoA-squeda 0 subtabla" uni0324.case
EndChar

StartChar: uni0324.case
Encoding: 65622 -1 565
Width: 0
GlyphClass: 4
Flags: W
AnchorPoint: "Anclaje-14" 0 -169 basemark 0
AnchorPoint: "Anclaje-14" 0 -566 mark 0
AnchorPoint: "Anclaje-11" 0 -467 basemark 0
AnchorPoint: "Anclaje-11" 0 0 mark 0
AnchorPoint: "Anclaje-9" 0 0 mark 0
AnchorPoint: "Anclaje-7" 0 0 mark 0
AnchorPoint: "Anclaje-5" 0 -566 mark 0
LayerCount: 2
Fore
SplineSet
63 -467 m 1,0,-1
 63 -219 l 1,1,-1
 421 -219 l 1,2,-1
 421 -467 l 1,3,-1
 63 -467 l 1,0,-1
-421 -467 m 1,4,-1
 -421 -219 l 1,5,-1
 -63 -219 l 1,6,-1
 -63 -467 l 1,7,-1
 -421 -467 l 1,4,-1
EndSplineSet
EndChar

StartChar: uni0308
Encoding: 776 776 566
Width: 0
GlyphClass: 4
Flags: W
AnchorPoint: "Anclaje-13" 0 1897 basemark 0
AnchorPoint: "Anclaje-13" 7 1500 mark 0
AnchorPoint: "Anclaje-8" 7 1500 mark 0
AnchorPoint: "Anclaje-6" 7 1500 mark 0
LayerCount: 2
Fore
SplineSet
63 1599 m 1,0,-1
 63 1897 l 1,1,-1
 421 1897 l 1,2,-1
 421 1599 l 1,3,-1
 63 1599 l 1,0,-1
-421 1599 m 1,4,-1
 -421 1897 l 1,5,-1
 -63 1897 l 1,6,-1
 -63 1599 l 1,7,-1
 -421 1599 l 1,4,-1
EndSplineSet
Substitution2: "'case' Formas sensible a may+APoA-sculas en Latin b+APoA-squeda 26 subtabla" uni0308.case
Substitution2: "Single Substitution b+APoA-squeda 7 subtabla" uni0308.case
Substitution2: "Single Substitution b+APoA-squeda 6 subtabla" uni0308.case
Substitution2: "Single Substitution b+APoA-squeda 4 subtabla" uni0308.case
Substitution2: "Single Substitution b+APoA-squeda 3 subtabla" uni0308.case
Substitution2: "'aalt' Activar todas las variantes en Latin b+APoA-squeda 0 subtabla" uni0308.case
EndChar

StartChar: uni0308.case
Encoding: 65623 -1 567
Width: 0
GlyphClass: 4
Flags: W
AnchorPoint: "Anclaje-14" 0 1897 basemark 0
AnchorPoint: "Anclaje-14" 0 1500 mark 0
AnchorPoint: "Anclaje-5" 0 1500 mark 0
LayerCount: 2
Fore
SplineSet
63 1599 m 1,0,-1
 63 1847 l 1,1,-1
 421 1847 l 1,2,-1
 421 1599 l 1,3,-1
 63 1599 l 1,0,-1
-421 1599 m 1,4,-1
 -421 1847 l 1,5,-1
 -63 1847 l 1,6,-1
 -63 1599 l 1,7,-1
 -421 1599 l 1,4,-1
EndSplineSet
EndChar

StartChar: divide
Encoding: 247 247 568
Width: 684
GlyphClass: 1
Flags: W
LayerCount: 2
Fore
SplineSet
193 976 m 1,0,-1
 193 1274 l 1,1,-1
 491 1274 l 1,2,-1
 491 976 l 1,3,-1
 193 976 l 1,0,-1
34 638 m 1,4,-1
 34 870 l 1,5,-1
 650 870 l 1,6,-1
 650 638 l 1,7,-1
 34 638 l 1,4,-1
193 237 m 1,8,-1
 193 535 l 1,9,-1
 491 535 l 1,10,-1
 491 237 l 1,11,-1
 193 237 l 1,8,-1
EndSplineSet
EndChar

StartChar: uni2215
Encoding: 8725 8725 569
Width: 722
GlyphClass: 1
Flags: W
LayerCount: 2
Fore
SplineSet
29 0 m 1,0,-1
 439 1760 l 1,1,-1
 693 1760 l 1,2,-1
 282 0 l 1,3,-1
 29 0 l 1,0,-1
EndSplineSet
EndChar

StartChar: dollar
Encoding: 36 36 572
Width: 946
GlyphClass: 1
Flags: W
LayerCount: 2
Fore
SplineSet
384 -113 m 1,0,-1
 384 36 l 1,1,2
 196 58 196 58 115 168 c 128,-1,3
 34 278 34 278 34 488 c 2,4,-1
 34 543 l 1,5,-1
 382 543 l 1,6,-1
 382 501 l 2,7,8
 382 347 382 347 479 347 c 0,9,10
 521 347 521 347 540.5 373 c 128,-1,11
 560 399 560 399 560 434 c 0,12,13
 560 496 560 496 497 560 c 2,14,-1
 210 849 l 2,15,16
 52 1007 52 1007 52 1192 c 0,17,18
 52 1292 52 1292 97.5 1368.5 c 128,-1,19
 143 1445 143 1445 218.5 1493.5 c 128,-1,20
 294 1542 294 1542 384 1558 c 1,21,-1
 384 1679 l 1,22,-1
 557 1679 l 1,23,-1
 557 1561 l 1,24,25
 728 1539 728 1539 817 1420 c 128,-1,26
 906 1301 906 1301 906 1105 c 1,27,-1
 549 1105 l 1,28,-1
 549 1170 l 2,29,30
 549 1213 549 1213 526 1236 c 128,-1,31
 503 1259 503 1259 465 1259 c 0,32,33
 423 1259 423 1259 402 1238 c 128,-1,34
 381 1217 381 1217 381 1182 c 0,35,36
 381 1132 381 1132 480 1034 c 2,37,-1
 760 758 l 2,38,39
 822 697 822 697 866.5 610 c 128,-1,40
 911 523 911 523 911 413 c 0,41,42
 911 248 911 248 810 149.5 c 128,-1,43
 709 51 709 51 557 34 c 1,44,-1
 557 -113 l 1,45,-1
 384 -113 l 1,0,-1
EndSplineSet
EndChar

StartChar: dong
Encoding: 8363 8363 573
Width: 1042
GlyphClass: 1
Flags: W
LayerCount: 2
Fore
SplineSet
365 -18 m 0,0,1
 240 -18 240 -18 181.5 42 c 128,-1,2
 123 102 123 102 106.5 203.5 c 128,-1,3
 90 305 90 305 90 430 c 2,4,-1
 90 921 l 2,5,6
 90 1059 90 1059 161 1155 c 128,-1,7
 232 1251 232 1251 371 1251 c 0,8,9
 501 1251 501 1251 567 1161 c 1,10,-1
 567 1331 l 1,11,-1
 293 1331 l 1,12,-1
 293 1498 l 1,13,-1
 567 1498 l 1,14,-1
 567 1596 l 1,15,-1
 891 1596 l 1,16,-1
 891 1498 l 1,17,-1
 954 1498 l 1,18,-1
 954 1331 l 1,19,-1
 891 1331 l 1,20,-1
 891 -2 l 1,21,-1
 567 -2 l 1,22,-1
 567 142 l 1,23,24
 540 69 540 69 495 25.5 c 128,-1,25
 450 -18 450 -18 365 -18 c 0,0,1
489 237 m 0,26,27
 533 237 533 237 550 279 c 128,-1,28
 567 321 567 321 567 408 c 2,29,-1
 567 857 l 2,30,31
 567 905 567 905 552.5 952 c 128,-1,32
 538 999 538 999 491 999 c 0,33,34
 439 999 439 999 425.5 954.5 c 128,-1,35
 412 910 412 910 412 857 c 2,36,-1
 412 407 l 2,37,38
 412 237 412 237 489 237 c 0,26,27
108 -340 m 1,39,-1
 108 -106 l 1,40,-1
 871 -106 l 1,41,-1
 871 -340 l 1,42,-1
 108 -340 l 1,39,-1
EndSplineSet
EndChar

StartChar: uni0358
Encoding: 856 856 574
Width: 0
GlyphClass: 4
Flags: W
LayerCount: 2
Fore
SplineSet
0 1592 m 1,0,-1
 0 1890 l 1,1,-1
 358 1890 l 1,2,-1
 358 1592 l 1,3,-1
 0 1592 l 1,0,-1
EndSplineSet
EndChar

StartChar: dotaccent
Encoding: 729 729 575
Width: 491
GlyphClass: 1
Flags: W
LayerCount: 2
Fore
SplineSet
67 1592 m 1,0,-1
 67 1890 l 1,1,-1
 425 1890 l 1,2,-1
 425 1592 l 1,3,-1
 67 1592 l 1,0,-1
EndSplineSet
EndChar

StartChar: uni0307
Encoding: 775 775 576
Width: 0
GlyphClass: 4
Flags: W
AnchorPoint: "Anclaje-13" 0 1890 basemark 0
AnchorPoint: "Anclaje-13" 0 1500 mark 0
AnchorPoint: "Anclaje-8" 0 1500 mark 0
AnchorPoint: "Anclaje-6" 0 1500 mark 0
LayerCount: 2
Fore
SplineSet
-179 1592 m 1,0,-1
 -179 1890 l 1,1,-1
 179 1890 l 1,2,-1
 179 1592 l 1,3,-1
 -179 1592 l 1,0,-1
EndSplineSet
Substitution2: "'case' Formas sensible a may+APoA-sculas en Latin b+APoA-squeda 26 subtabla" uni0307.case
Substitution2: "Single Substitution b+APoA-squeda 7 subtabla" uni0307.case
Substitution2: "Single Substitution b+APoA-squeda 6 subtabla" uni0307.case
Substitution2: "Single Substitution b+APoA-squeda 4 subtabla" uni0307.case
Substitution2: "Single Substitution b+APoA-squeda 3 subtabla" uni0307.case
Substitution2: "'aalt' Activar todas las variantes en Latin b+APoA-squeda 0 subtabla" uni0307.case
EndChar

StartChar: uni0307.case
Encoding: 65625 -1 577
Width: 0
GlyphClass: 4
Flags: W
AnchorPoint: "Anclaje-14" 0 1879 basemark 0
AnchorPoint: "Anclaje-14" 0 1500 mark 0
AnchorPoint: "Anclaje-5" 0 1500 mark 0
LayerCount: 2
Fore
SplineSet
-179 1592 m 1,0,-1
 -179 1850 l 1,1,-1
 179 1850 l 1,2,-1
 179 1592 l 1,3,-1
 -179 1592 l 1,0,-1
EndSplineSet
EndChar

StartChar: dotbelowcomb
Encoding: 803 803 578
Width: 0
GlyphClass: 4
Flags: W
AnchorPoint: "Anclaje-13" 0 -509 mark 0
AnchorPoint: "Anclaje-11" 0 0 mark 0
AnchorPoint: "Anclaje-9" 0 0 mark 0
AnchorPoint: "Anclaje-8" 0 -509 mark 0
AnchorPoint: "Anclaje-7" 0 0 mark 0
AnchorPoint: "Anclaje-6" 0 -509 mark 0
LayerCount: 2
Fore
SplineSet
-179 -417 m 1,0,-1
 -179 -119 l 1,1,-1
 179 -119 l 1,2,-1
 179 -417 l 1,3,-1
 -179 -417 l 1,0,-1
EndSplineSet
Substitution2: "'case' Formas sensible a may+APoA-sculas en Latin b+APoA-squeda 26 subtabla" dotbelowcomb.case
Substitution2: "Single Substitution b+APoA-squeda 7 subtabla" dotbelowcomb.case
Substitution2: "Single Substitution b+APoA-squeda 6 subtabla" dotbelowcomb.case
Substitution2: "Single Substitution b+APoA-squeda 4 subtabla" dotbelowcomb.case
Substitution2: "Single Substitution b+APoA-squeda 3 subtabla" dotbelowcomb.case
Substitution2: "'aalt' Activar todas las variantes en Latin b+APoA-squeda 0 subtabla" dotbelowcomb.case
EndChar

